<svg width="73" height="70" viewBox="0 0 73 70" fill="none" xmlns="http://www.w3.org/2000/svg"><path d="M65.416 6.75a2.41 2.41 0 00-2.88-1.812L57.262 6.14l-2.14-4.089a2.409 2.409 0 00-3.249-1.016L30.545 12.2c-.023.012-.045.026-.066.039L6.935 17.6H2.813a2.409 2.409 0 00-2.407 2.406v30.988A2.409 2.409 0 002.812 53.4H41.14l-.057.068a9.628 9.628 0 007.431 15.72 9.616 9.616 0 009.346-7.266 9.621 9.621 0 005.189-17.027c-.041-.035-.084-.066-.126-.099v-3.228l7.563-1.723a2.405 2.405 0 001.812-2.88L65.417 6.75zM52.99 3.166l1.846 3.526-15.188 3.459L52.99 3.166zm1.129 60.968a7.219 7.219 0 11-9.105-10.877l.01-.005a7.203 7.203 0 013.521-.908 7.219 7.219 0 015.574 11.79zM20.623 35.5a11.04 11.04 0 1111.04 11.041 11.053 11.053 0 01-11.04-11.04zm3.374 11.041H10.443a4.56 4.56 0 00-3.178-3.177V27.636a4.56 4.56 0 003.178-3.177h13.554a13.434 13.434 0 000 22.082zm21.114-11.04a13.44 13.44 0 00-5.78-11.042h13.554a4.56 4.56 0 003.178 3.177v15.125l-.068.005a9.563 9.563 0 00-6.72 3.775H39.33a13.44 13.44 0 005.78-11.04zm17.43 21.415a7.196 7.196 0 01-4.391 2.547 9.608 9.608 0 00-3.524-7.35l-.062-.047a2.406 2.406 0 013.913-1.584A1.203 1.203 0 1060 48.62a4.81 4.81 0 00-7.589 2.134 9.506 9.506 0 00-2.306-.688 7.218 7.218 0 1112.434 6.85zm-4.072-14.078V26.595a1.204 1.204 0 00-1.203-1.203 2.14 2.14 0 01-2.136-2.136 1.204 1.204 0 00-1.203-1.203H9.401a1.203 1.203 0 00-1.203 1.203 2.139 2.139 0 01-2.136 2.136 1.203 1.203 0 00-1.203 1.203v17.81a1.203 1.203 0 001.203 1.203 2.139 2.139 0 012.136 2.136 1.203 1.203 0 001.203 1.203h38.545a9.563 9.563 0 00-.325 1.034l-.049.003a9.62 9.62 0 00-3.432 1.01H2.812V20.005h57.703V43.4a9.505 9.505 0 00-2.046-.562zm4.453-16.151l.992 4.36a4.49 4.49 0 00-.992.722v-5.082zM60.515 17.6h-22.69l18.792-4.28a4.557 4.557 0 003.806 2.394l.436 1.913a2.402 2.402 0 00-.344-.028zm2.407 21.5V37l.15-.034a1.203 1.203 0 00.906-1.44 2.135 2.135 0 011.61-2.557 1.206 1.206 0 00.905-1.44l-3.954-17.366a1.203 1.203 0 00-1.44-.906 2.137 2.137 0 01-2.557-1.609 1.203 1.203 0 00-1.44-.906L26.989 17.6h-9.217L63.07 7.285l6.88 30.213-7.028 1.602zm-26.716-6.63v.803a1.203 1.203 0 11-2.406 0v-.803a1.452 1.452 0 00-.648-1.211 2.674 2.674 0 00-2.976 0 1.456 1.456 0 00.347 2.592l3.043 1.014a3.862 3.862 0 01.92 6.878 5.097 5.097 0 01-1.619.71v.839a1.203 1.203 0 11-2.406 0v-.84a5.093 5.093 0 01-1.62-.71 3.854 3.854 0 01-1.72-3.213v-.804a1.203 1.203 0 112.407 0v.803a1.454 1.454 0 00.648 1.211 2.674 2.674 0 002.976 0 1.456 1.456 0 00-.347-2.592l-3.043-1.014a3.862 3.862 0 01-.92-6.877 5.1 5.1 0 011.62-.71v-.839a1.203 1.203 0 112.405 0v.84c.578.14 1.126.38 1.62.71a3.854 3.854 0 011.72 3.212zm-23.048.017a3.011 3.011 0 100 6.023 3.011 3.011 0 000-6.023zm0 3.618a.605.605 0 110-1.21.605.605 0 010 1.21zm36.733 2.406a3.011 3.011 0 100-6.023 3.011 3.011 0 000 6.023zm0-3.618a.606.606 0 110 1.211.606.606 0 010-1.21zm1.857 22.637a1.203 1.203 0 01-1.693.169 2.406 2.406 0 00-3.048 3.725 1.203 1.203 0 01-1.523 1.862 4.812 4.812 0 116.094-7.45 1.203 1.203 0 01.17 1.694z" fill="url(#paint0_linear_188:2546)"/><defs><linearGradient id="paint0_linear_188:2546" x1=".406" y1="69.188" x2="74.74" y2="66.493" gradientUnits="userSpaceOnUse"><stop stop-color="#bbb"/><stop offset="1" stop-color="#77C2BE"/></linearGradient></defs></svg>