<svg width="77" height="77" viewBox="0 0 77 77" fill="none" xmlns="http://www.w3.org/2000/svg"><g clip-path="url(#clip0_188:2543)"><path d="M45.719 25.266V18.89a10.828 10.828 0 10-14.438 0v6.376a1.203 1.203 0 001.203 1.203v18.047c0 .273.093.538.264.752l4.813 6.015a1.202 1.202 0 001.879 0l4.812-6.016c.17-.213.264-.478.264-.751v-1.204h1.203a1.203 1.203 0 001.203-1.203v-4.812a1.203 1.203 0 00-1.203-1.203h-1.203v-1.908l2.053-2.054a1.203 1.203 0 000-1.702l-2.053-2.053v-1.908a1.203 1.203 0 001.203-1.203zm-15.64-14.438A8.422 8.422 0 1138.5 19.25a8.431 8.431 0 01-8.422-8.422zm14.437 30.078h-1.203a1.203 1.203 0 00-1.204 1.203v1.984l-2.406 3.008V25.266a1.204 1.204 0 00-2.406 0V47.1l-2.406-3.008V25.266a1.204 1.204 0 00-1.203-1.204v-3.538a10.794 10.794 0 009.624 0v3.538a1.204 1.204 0 00-1.203 1.204v3.609a1.203 1.203 0 00.353.85l1.555 1.556-1.555 1.556a1.203 1.203 0 00-.353.85v3.61a1.203 1.203 0 001.203 1.203h1.204v2.406zM38.5 12.031a3.61 3.61 0 100-7.218 3.61 3.61 0 000 7.218zm0-4.812a1.203 1.203 0 110 2.406 1.203 1.203 0 010-2.406zm36.094 42.066L73.39 15.598a1.202 1.202 0 00-1.677-1.063c-3.912 1.676-6.43 6.703-7.487 14.939a70.983 70.983 0 00-.502 10.32c-4.604.67-7.857 4.831-8.127 5.186-2.418 3.018-4.078 3.697-6 4.483-1.672.685-3.567 1.461-5.933 3.826-2.626 2.627-4.226 7.742-5.165 12.144-.939-4.402-2.538-9.517-5.165-12.144-2.365-2.365-4.26-3.141-5.933-3.826-1.922-.786-3.581-1.465-5.999-4.483-.27-.355-3.523-4.516-8.127-5.186a70.983 70.983 0 00-.502-10.32c-1.056-8.236-3.576-13.262-7.488-14.94a1.202 1.202 0 00-1.676 1.064L2.407 49.285v.043c0 .27.115 6.703 10.106 14.197 8.57 6.427 9.28 7.911 10.177 9.791.095.198.191.401.297.613a1.203 1.203 0 001.076.665h28.875a1.204 1.204 0 001.075-.665c.106-.212.203-.415.298-.613.898-1.88 1.607-3.364 10.176-9.791 9.992-7.494 10.107-13.926 10.107-14.197v-.043zM24.817 72.187c-1.06-2.216-1.942-3.897-10.86-10.587-8.734-6.55-9.13-12.001-9.145-12.263L5.938 17.81c4.557 4.245 5.137 16.648 4.924 22.31-.49.264-.94.597-1.336.988-1.309 1.309-1.68 3.082-1.043 4.991.763 2.288 3.236 4.29 6.101 6.608 2.234 1.808 4.544 3.677 6.11 5.765a1.203 1.203 0 101.924-1.444c-1.744-2.326-4.282-4.38-6.52-6.191-2.464-1.995-4.792-3.878-5.332-5.499-.345-1.034-.213-1.823.416-2.483a3.53 3.53 0 011.066-.739c4.036.146 7.211 4.284 7.242 4.325l.023.03c2.813 3.516 4.93 4.382 6.976 5.22 1.605.657 3.12 1.277 5.144 3.3 3.636 3.637 5.108 13.613 5.53 17.197H24.817zM63.044 61.6c-8.92 6.69-9.8 8.371-10.86 10.587H39.835c.421-3.584 1.894-13.56 5.53-17.196 2.024-2.023 3.54-2.644 5.144-3.3 2.046-.838 4.163-1.705 6.976-5.22l.023-.03c.032-.044 3.185-4.182 7.243-4.325.378.17.723.405 1.02.693.667.668.814 1.471.461 2.529-.54 1.62-2.867 3.504-5.332 5.498-2.238 1.812-4.775 3.865-6.52 6.192a1.203 1.203 0 101.925 1.443c1.566-2.087 3.875-3.957 6.11-5.764 2.864-2.319 5.338-4.32 6.1-6.608.636-1.91.266-3.682-1.043-4.991a5.851 5.851 0 00-1.336-.989c-.213-5.662.367-18.064 4.924-22.31l1.126 31.522c-.02.34-.467 5.761-9.143 12.269z" fill="url(#paint0_linear_188:2543)"/></g><defs><linearGradient id="paint0_linear_188:2543" x1="2.407" y1="74.594" x2="77" y2="72.104" gradientUnits="userSpaceOnUse"><stop stop-color="#50ADA8"/><stop offset="1" stop-color="#77C2BE"/></linearGradient><clipPath id="clip0_188:2543"><path fill="#fff" d="M0 0h77v77H0z"/></clipPath></defs></svg>