<svg width="61" height="75" viewBox="0 0 61 75" fill="none" xmlns="http://www.w3.org/2000/svg"><path d="M35.313 42.313a1.203 1.203 0 00-1.204-1.204h-7.218a1.203 1.203 0 100 2.407h7.218a1.203 1.203 0 001.203-1.203z" fill="url(#paint0_linear_188:2540)"/><path d="M51.765 60.164l-12.843-4.282V50.88a16.857 16.857 0 008.422-14.583h.601a4.216 4.216 0 004.211-4.211v-3.61a4.216 4.216 0 00-4.21-4.21h-.602v-7.22a16.844 16.844 0 10-33.688 0v7.22h-.601a4.216 4.216 0 00-4.211 4.21v3.61a4.216 4.216 0 004.21 4.21h.602a16.737 16.737 0 004.933 11.912 16.994 16.994 0 003.49 2.683v4.991L9.234 60.164A12.872 12.872 0 00.422 72.39v1.203a1.203 1.203 0 001.203 1.203h57.75a1.203 1.203 0 001.203-1.203V72.39a12.873 12.873 0 00-8.813-12.227zm-4.421-33.492h.601a1.806 1.806 0 011.805 1.805v3.609a1.807 1.807 0 01-1.805 1.805h-.601v-7.22zM13.656 33.89h-.601a1.806 1.806 0 01-1.805-1.805v-3.61a1.806 1.806 0 011.805-1.804h.601v7.219zm2.406-16.844a14.438 14.438 0 0128.875 0v.88c-.657.982-2.356 1.839-3.822 2.368-.584-2.35-2.178-4.793-2.395-5.119a1.203 1.203 0 00-1.964-.054c-.743.99-3.3 2.952-12.07 4.958a115.232 115.232 0 01-8.623 1.6v-4.633zm0 7.065c1.724-.248 5.333-.81 9.141-1.681 6.022-1.376 10.066-2.909 12.27-4.656.677 1.232 1.449 2.922 1.449 4.084a1.205 1.205 0 001.495 1.167c.364-.09 2.63-.688 4.52-1.91v6.759h-1.203v-2.406a1.203 1.203 0 00-1.203-1.203h-9.625a1.203 1.203 0 00-1.203 1.203v2.406h-2.406v-2.406a1.203 1.203 0 00-1.203-1.203h-9.625a1.203 1.203 0 00-1.203 1.203v2.406h-1.203v-3.763zm25.266 2.56v5.414a.602.602 0 01-.602.602h-6.015a.602.602 0 01-.602-.602v-5.414h7.22zm-14.437 0v5.414a.602.602 0 01-.602.602h-6.016a.602.602 0 01-.601-.602v-5.414h7.219zm-6.6 19.833a14.343 14.343 0 01-4.229-10.208V30.28h1.204v1.805a3.01 3.01 0 003.007 3.008h6.016a3.01 3.01 0 003.008-3.008V30.28h2.406v1.805a3.01 3.01 0 003.008 3.008h6.016a3.01 3.01 0 003.007-3.008V30.28h1.203v6.016a14.438 14.438 0 01-24.645 10.208zm16.225 5.524v4.214c-4.094 3.886-7.938 3.886-12.032 0v-4.205a16.9 16.9 0 0012.032-.009zm12.03 20.362h-7.218v-1.204h7.219v1.204zm2.407 0v-2.407a1.204 1.204 0 00-1.203-1.203h-9.625a1.204 1.204 0 00-1.203 1.203v2.407H2.828a10.467 10.467 0 017.168-9.944l12.975-4.325c2.47 2.291 5 3.438 7.529 3.438 2.53 0 5.06-1.147 7.529-3.438l12.975 4.325a10.467 10.467 0 017.168 9.944h-7.219z" fill="url(#paint1_linear_188:2540)"/><defs><linearGradient id="paint0_linear_188:2540" x1="25.688" y1="43.516" x2="35.459" y2="42.168" gradientUnits="userSpaceOnUse"><stop stop-color="#50ADA8"/><stop offset="1" stop-color="#77C2BE"/></linearGradient><linearGradient id="paint1_linear_188:2540" x1=".422" y1="74.797" x2="62.605" y2="73.067" gradientUnits="userSpaceOnUse"><stop stop-color="#50ADA8"/><stop offset="1" stop-color="#77C2BE"/></linearGradient></defs></svg>