<svg width="77" height="77" viewBox="0 0 77 77" fill="none" xmlns="http://www.w3.org/2000/svg"><path d="M70.984 36.094H64.97v-2.407h-2.406v2.407h-9.626V3.609a1.203 1.203 0 00-1.203-1.203H8.422A1.203 1.203 0 007.219 3.61v63.766h-3.61a1.203 1.203 0 00-1.203 1.203v4.813a1.203 1.203 0 001.203 1.203h67.375a3.62 3.62 0 003.61-3.61v-31.28a3.62 3.62 0 00-3.61-3.61zM9.625 4.812h40.906v31.282h-3.61v-3.61a1.204 1.204 0 00-1.202-1.203H38.5a1.203 1.203 0 00-1.203 1.203v3.61H34.89v-3.61a1.203 1.203 0 00-1.203-1.203h-7.22a1.203 1.203 0 00-1.202 1.203v7.22a1.204 1.204 0 001.203 1.202h2.406v26.469H9.625V4.812zm34.89 28.875v2.407h-4.812v-2.407h4.813zm-39.703 38.5v-2.406h24.063v1.203c.003.41.076.818.217 1.204H4.812zM29.093 38.5h-1.42v-4.813h4.812v2.407a3.62 3.62 0 00-3.392 2.406zm43.096 32.484a1.203 1.203 0 01-1.204 1.204h-38.5a1.204 1.204 0 01-1.203-1.204V45.72h40.907v25.265zm0-27.671H31.28v-3.61a1.203 1.203 0 011.203-1.203H38.5v2.406h2.406V38.5h9.625v2.406h2.407V38.5h9.624v2.406h2.407V38.5h6.015a1.203 1.203 0 011.204 1.203v3.61z" fill="url(#paint0_linear_188:2550)"/><path d="M68.578 48.125H34.891a1.203 1.203 0 00-1.203 1.203v19.25a1.204 1.204 0 001.203 1.203h33.687a1.203 1.203 0 001.203-1.203v-19.25a1.203 1.203 0 00-1.203-1.203zm-1.203 4.813h-2.406V50.53h2.406v2.407zm-19.25 4.812h-2.406v-2.406h2.406v2.406zm2.406-2.406h2.407v2.406H50.53v-2.406zm-2.406 4.812v2.407h-2.406v-2.407h2.406zm2.406 0h2.407v2.407H50.53v-2.407zm4.813 0h2.406v2.407h-2.406v-2.407zm0-2.406v-2.406h2.406v2.406h-2.406zm4.812-2.406h2.407v2.406h-2.407v-2.406zm0-2.407v-2.406h2.407v2.407h-2.407zm-2.406 0h-2.406v-2.406h2.406v2.407zm-4.813 0h-2.406v-2.406h2.407v2.407zm-4.812 0h-2.406v-2.406h2.406v2.407zm-4.813 0h-2.406v-2.406h2.407v2.407zm0 2.407v2.406h-2.406v-2.406h2.407zM38.5 57.75h-2.406v-2.406H38.5v2.406zm0 2.406v2.407h-2.406v-2.407H38.5zm2.406 0h2.407v2.407h-2.407v-2.407zm2.407 4.813v2.406h-2.407v-2.406h2.407zm2.406 0h2.406v2.406h-2.406v-2.406zm4.812 0h2.407v2.406H50.53v-2.406zm4.813 0h2.406v2.406h-2.406v-2.406zm4.812 0h2.407v2.406h-2.407v-2.406zm0-2.406v-2.407h2.407v2.407h-2.407zm4.813-2.407h2.406v2.407h-2.406v-2.407zm0-2.406v-2.406h2.406v2.406h-2.406zM38.5 50.531v2.407h-2.406V50.53H38.5zM36.094 64.97H38.5v2.406h-2.406V64.97zm28.875 2.406V64.97h2.406v2.406h-2.406z" fill="url(#paint1_linear_188:2550)"/><path d="M28.875 14.438h2.406V12.03h2.407V9.625H31.28V7.219h-2.406v2.406h-2.406v2.406h2.406v2.406z" fill="url(#paint2_linear_188:2550)"/><path d="M21.656 19.25h-7.218a1.203 1.203 0 00-1.204 1.203v7.219a1.203 1.203 0 001.204 1.203h7.218a1.203 1.203 0 001.203-1.203v-7.219a1.203 1.203 0 00-1.203-1.203zm-1.203 7.219h-4.812v-4.813h4.812v4.813z" fill="url(#paint3_linear_188:2550)"/><path d="M26.469 28.875h7.218a1.203 1.203 0 001.204-1.203v-7.219a1.203 1.203 0 00-1.203-1.203h-7.22a1.203 1.203 0 00-1.202 1.203v7.219a1.203 1.203 0 001.203 1.203zm1.203-7.219h4.812v4.813h-4.812v-4.813z" fill="url(#paint4_linear_188:2550)"/><path d="M38.5 28.875h7.219a1.203 1.203 0 001.203-1.203v-7.219a1.203 1.203 0 00-1.203-1.203H38.5a1.203 1.203 0 00-1.203 1.203v7.219a1.203 1.203 0 001.203 1.203zm1.203-7.219h4.813v4.813h-4.813v-4.813z" fill="url(#paint5_linear_188:2550)"/><path d="M21.656 31.281h-7.218a1.203 1.203 0 00-1.204 1.203v7.22a1.203 1.203 0 001.204 1.202h7.218a1.203 1.203 0 001.203-1.203v-7.219a1.204 1.204 0 00-1.203-1.203zM20.453 38.5h-4.812v-4.813h4.812V38.5z" fill="url(#paint6_linear_188:2550)"/><path d="M21.656 43.313h-7.218a1.203 1.203 0 00-1.204 1.203v7.218a1.203 1.203 0 001.204 1.203h7.218a1.203 1.203 0 001.203-1.203v-7.218a1.203 1.203 0 00-1.203-1.203zm-1.203 7.218h-4.812V45.72h4.812v4.812z" fill="url(#paint7_linear_188:2550)"/><path d="M21.656 55.344h-7.218a1.203 1.203 0 00-1.204 1.203v7.219a1.203 1.203 0 001.204 1.203h7.218a1.203 1.203 0 001.203-1.203v-7.22a1.204 1.204 0 00-1.203-1.202zm-1.203 7.218h-4.812V57.75h4.812v4.813z" fill="url(#paint8_linear_188:2550)"/><defs><linearGradient id="paint0_linear_188:2550" x1="2.406" y1="74.594" x2="76.995" y2="72.021" gradientUnits="userSpaceOnUse"><stop stop-color="#50ADA8"/><stop offset="1" stop-color="#77C2BE"/></linearGradient><linearGradient id="paint1_linear_188:2550" x1="33.688" y1="69.781" x2="70.903" y2="67.642" gradientUnits="userSpaceOnUse"><stop stop-color="#50ADA8"/><stop offset="1" stop-color="#77C2BE"/></linearGradient><linearGradient id="paint2_linear_188:2550" x1="26.469" y1="14.438" x2="33.928" y2="14.18" gradientUnits="userSpaceOnUse"><stop stop-color="#50ADA8"/><stop offset="1" stop-color="#77C2BE"/></linearGradient><linearGradient id="paint3_linear_188:2550" x1="13.234" y1="28.875" x2="23.18" y2="28.532" gradientUnits="userSpaceOnUse"><stop stop-color="#50ADA8"/><stop offset="1" stop-color="#77C2BE"/></linearGradient><linearGradient id="paint4_linear_188:2550" x1="25.266" y1="28.875" x2="35.211" y2="28.532" gradientUnits="userSpaceOnUse"><stop stop-color="#50ADA8"/><stop offset="1" stop-color="#77C2BE"/></linearGradient><linearGradient id="paint5_linear_188:2550" x1="37.297" y1="28.875" x2="47.242" y2="28.532" gradientUnits="userSpaceOnUse"><stop stop-color="#50ADA8"/><stop offset="1" stop-color="#77C2BE"/></linearGradient><linearGradient id="paint6_linear_188:2550" x1="13.234" y1="40.906" x2="23.18" y2="40.563" gradientUnits="userSpaceOnUse"><stop stop-color="#50ADA8"/><stop offset="1" stop-color="#77C2BE"/></linearGradient><linearGradient id="paint7_linear_188:2550" x1="13.234" y1="52.938" x2="23.18" y2="52.594" gradientUnits="userSpaceOnUse"><stop stop-color="#50ADA8"/><stop offset="1" stop-color="#77C2BE"/></linearGradient><linearGradient id="paint8_linear_188:2550" x1="13.234" y1="64.969" x2="23.18" y2="64.626" gradientUnits="userSpaceOnUse"><stop stop-color="#50ADA8"/><stop offset="1" stop-color="#77C2BE"/></linearGradient></defs></svg>