<svg width="64" height="73" viewBox="0 0 64 73" fill="none" xmlns="http://www.w3.org/2000/svg"><path d="M48.148 13.64a1.805 1.805 0 113.61 0 1.805 1.805 0 01-3.61 0zm-3.85 1.505a1.504 1.504 0 100-3.008 1.504 1.504 0 000 3.008zm11.31 0a1.504 1.504 0 10.003-3.008 1.504 1.504 0 00-.003 3.008zM17.92 25.456a1.654 1.654 0 100-3.309 1.654 1.654 0 000 3.309zm-7.22-3.309a1.654 1.654 0 100 3.308 1.654 1.654 0 000-3.308zm6.548 7.738a1.202 1.202 0 00-1.677-.29 1.406 1.406 0 01-1.53.058l-.337-.201a1.203 1.203 0 10-1.234 2.065l.335.201a3.815 3.815 0 004.152-.156 1.204 1.204 0 00.29-1.677zM.972 72.272a1.202 1.202 0 01-.347-.86L.902 50.01a8.751 8.751 0 018.722-8.628h4.805v-3.237h-.42a9.765 9.765 0 01-9.754-9.755V17.56A12.357 12.357 0 0116.598 5.22h4.827a12.3 12.3 0 012.872.344 1.198 1.198 0 011.776.1l.592.729a12.332 12.332 0 017.127 11.193v.049a6.977 6.977 0 001.57 4.403l1.741 2.13a7.863 7.863 0 01-6.089 12.84h-2.31v4.377h5.031a8.752 8.752 0 018.723 8.63l.276 21.398a1.202 1.202 0 01-1.203 1.218H1.828a1.203 1.203 0 01-.856-.358zm7.878-2.048c.066 0 .132.006.197.018v-2.053l-1.19-1.742a8.688 8.688 0 011.026-10.891l.309-.385v-1.827H3.265l-.219 16.88H8.85zm31.462 0l-.218-16.88h-5.782c-.034 0-.069-.003-.102-.005l.019 1.752.417.416a8.684 8.684 0 011.082 10.928 1.137 1.137 0 01-.057.078l-1.359 1.722v1.99h6zm-6.207-26.422l.079 7.142c.042-.004.085-.007.128-.007h5.75l-.01-.894a6.34 6.34 0 00-5.947-6.24zM31.7 43.79h-3.154l-.949 6.64a6.09 6.09 0 01-12.059 0l-.948-6.64h-2.991v11.804c0 .274-.094.54-.265.753l-.614.764a1.22 1.22 0 01-.087.098A6.272 6.272 0 009.85 65.1l1.393 2.039c.137.2.21.437.21.679v2.406h20.453v-2.406c0-.27.091-.533.259-.745l1.586-2.01a6.271 6.271 0 00-.807-7.854l-.764-.764a1.204 1.204 0 01-.352-.838l-.129-11.817zm-4.605-13.306a3.61 3.61 0 10-2.328-6.364 1.189 1.189 0 01-.133.118 3.607 3.607 0 002.46 6.246zm1.19-20.118c.008.128.013.256.013.384v10.23a6.015 6.015 0 01.407 11.69v1.93h2.31a5.457 5.457 0 004.226-8.91l-1.742-2.132a9.389 9.389 0 01-2.113-5.925v-.049a9.93 9.93 0 00-3.1-7.219zm-21.61 6.722h4.54a18.928 18.928 0 0010.533-3.189 1.204 1.204 0 011.87 1.002v5.086a3.091 3.091 0 00.459 1.688 5.971 5.971 0 011.814-.695V10.75a4.224 4.224 0 00-.754-2.401 9.952 9.952 0 00-3.711-.724h-4.827a9.948 9.948 0 00-9.924 9.463zm8.958 18.652a1.203 1.203 0 011.203 1.203s-.015 5.458-.012 5.474l1.097 7.673a3.684 3.684 0 007.295 0l1.096-7.673c.002-.017.006-.032.009-.048-.013-.072-.021-9.533-.021-9.533a5.968 5.968 0 01-1.75-.512l-1.803 1.803a2.959 2.959 0 01-.601 1.298c-.825 1.042-2.127 1.386-2.909.767-.781-.618-.746-1.965.078-3.007.565-.713 1.352-1.097 2.044-1.072l1.243-1.244a6 6 0 01-.332-7.582 5.482 5.482 0 01-1.057-3.3v-2.971a21.318 21.318 0 01-9.997 2.478H6.662v8.897a7.357 7.357 0 007.348 7.349h1.622zM3.308 50.04l-.012.897h5.896v-7.13a6.339 6.339 0 00-5.884 6.233zm20.176 10.522a1.204 1.204 0 001.203 1.204h6.016a1.203 1.203 0 000-2.407h-6.016a1.203 1.203 0 00-1.203 1.203zM36.72 13.641a13.235 13.235 0 1114.995 13.116l-4.648 3.487a1.203 1.203 0 01-1.925-.963v-3.308a13.174 13.174 0 01-8.422-12.332zm2.406 0a10.783 10.783 0 007.58 10.331 1.203 1.203 0 01.842 1.148v1.755l2.982-2.236c.173-.13.378-.21.593-.234A10.828 10.828 0 1039.125 13.64z" fill="url(#paint0_linear_188:2563)"/><defs><linearGradient id="paint0_linear_188:2563" x1=".625" y1="72.63" x2="65.287" y2="70.698" gradientUnits="userSpaceOnUse"><stop stop-color="#50ADA8"/><stop offset="1" stop-color="#77C2BE"/></linearGradient></defs></svg>