<svg width="77" height="77" viewBox="0 0 77 77" fill="none" xmlns="http://www.w3.org/2000/svg"><path d="M21.656 33.688h9.625a1.203 1.203 0 001.203-1.204v-9.126l2.054-2.054a1.204 1.204 0 00-1.701-1.702l-2.054 2.054h-9.127a1.203 1.203 0 00-1.203 1.203v9.625a1.203 1.203 0 001.203 1.203zm8.422-2.407H22.86v-5.517l2.759 2.759a1.202 1.202 0 001.702 0l2.758-2.759v5.517zm-3.61-5.31l-1.907-1.909h3.816l-1.908 1.909zm8.423 4.107a1.203 1.203 0 011.203-1.203h20.453a1.203 1.203 0 010 2.406H36.094a1.203 1.203 0 01-1.203-1.203zm22.859 7.219a1.203 1.203 0 01-1.203 1.203H20.453a1.203 1.203 0 010-2.406h36.094a1.203 1.203 0 011.203 1.203zm0 4.812a1.203 1.203 0 01-1.203 1.203H20.453a1.203 1.203 0 010-2.406h36.094a1.203 1.203 0 011.203 1.203zm0 4.813a1.203 1.203 0 01-1.203 1.203H20.453a1.203 1.203 0 010-2.406h36.094a1.203 1.203 0 011.203 1.203zm0 7.219a1.204 1.204 0 01-1.203 1.203h-4.813c-.186 0-.37-.044-.538-.127l-1.63-.816-.59.59a1.205 1.205 0 01-1.702 0l-1.555-1.555-1.556 1.555a1.204 1.204 0 01-1.701-1.701l2.406-2.406a1.203 1.203 0 011.701 0l1.556 1.555.352-.352a1.203 1.203 0 011.39-.226l2.152 1.077h4.528a1.203 1.203 0 011.203 1.203zM74.594 2.406h-7.219a1.203 1.203 0 00-1.203 1.203v1.363l-7.164 1.024-20.232-4.76a1.203 1.203 0 00-.708.047L10.02 12.071a4.621 4.621 0 002.826 8.785l.388-.101v30.978l-2.406-.002v-1.2a1.203 1.203 0 00-1.203-1.203H2.406a1.203 1.203 0 00-1.203 1.203v21.657a1.203 1.203 0 001.203 1.203h7.219a1.203 1.203 0 001.203-1.204v-1.362l7.164-1.024 20.232 4.76c.236.056.482.04.708-.047L66.98 63.726a4.621 4.621 0 00-2.826-8.785l-.388.1V24.065l2.406.002v1.2a1.203 1.203 0 001.203 1.203h7.219a1.203 1.203 0 001.203-1.203V3.609a1.203 1.203 0 00-1.203-1.203zM8.422 70.984H3.609v-19.25h4.813v19.25zm56.34-13.715a2.215 2.215 0 011.353 4.21L38.413 72.135l-20.092-4.727a1.198 1.198 0 00-.446-.02l-7.047 1.007V54.137l4.812.004c.02-.002.043 0 .064-.002l20.621-1.091a1.52 1.52 0 01.445 2.992l-11.796 2.95a1.203 1.203 0 00.583 2.333l4.806-1.2 8.893 3.557c.24.095.502.112.75.047l24.756-6.458zm-24.98 4.03l-5.433-2.173 3.004-.752a3.926 3.926 0 00-1.152-7.73l-20.56 1.089V20.127l21.577-5.629 5.433 2.173-3.004.752a3.925 3.925 0 001.152 7.73l20.56-1.089V55.67L39.782 61.3zm21.514-39.64l-20.621 1.09a1.52 1.52 0 01-.445-2.992l11.796-2.949a1.204 1.204 0 00-.583-2.334l-4.806 1.201-8.893-3.558a1.202 1.202 0 00-.75-.047l-24.756 6.458a2.215 2.215 0 01-1.354-4.21L38.586 3.662 58.678 8.39c.146.035.297.041.446.02l7.048-1.007V21.66s-4.855-.004-4.876-.002zm12.095 2.404h-4.813V4.813h4.813v19.25z" fill="url(#paint0_linear_188:2548)"/><defs><linearGradient id="paint0_linear_188:2548" x1="1.203" y1="74.594" x2="78.275" y2="71.892" gradientUnits="userSpaceOnUse"><stop stop-color="#50ADA8"/><stop offset="1" stop-color="#77C2BE"/></linearGradient></defs></svg>