<svg width="25" height="25" viewBox="0 0 25 25" fill="none" xmlns="http://www.w3.org/2000/svg"><path d="M16.406 12.5a3.906 3.906 0 11-7.812 0c0-.223.023-.44.064-.651H7.292v5.204c0 .362.293.655.655.655h9.108a.655.655 0 00.653-.655V11.85h-1.366c.04.21.064.428.064.651zM12.5 15.104a2.605 2.605 0 10-.002-5.21 2.605 2.605 0 00.002 5.21zm3.125-5.338h1.561a.392.392 0 00.392-.391V7.814a.392.392 0 00-.392-.392h-1.561a.392.392 0 00-.392.392v1.561c.001.215.177.39.392.39zM12.5 0a12.5 12.5 0 100 25 12.5 12.5 0 000-25zm6.51 17.564a1.45 1.45 0 01-1.446 1.446H7.436a1.45 1.45 0 01-1.446-1.446V7.436c0-.795.65-1.446 1.446-1.446h10.128a1.45 1.45 0 011.446 1.446v10.128z" fill="#FAFAFA"/></svg>