<svg width="131" height="177" viewBox="0 0 131 177" fill="none" xmlns="http://www.w3.org/2000/svg"><path d="M7.33 36.006a179.2 179.2 0 005.643-5.349 235.707 235.707 0 007.493-7.724 160.653 160.653 0 003.992-4.44 74.696 74.696 0 001.988-2.375c.312-.4.647-.821.959-1.287.233-.32.435-.662.602-1.02.081-.209.142-.425.181-.645V11.37a5.327 5.327 0 010-.844 8.375 8.375 0 01.18-1.554 5.563 5.563 0 011.294-2.309 6.089 6.089 0 014.46-2.22c1.35.02 2.651.507 3.68 1.377a6.668 6.668 0 011.762 2.22c.515.996.68 2.136.468 3.237a6.8 6.8 0 01-1.583 3.238c-.41.45-.883.84-1.405 1.154a1.87 1.87 0 01-.401.222h-.335a3.928 3.928 0 00-1.536.954 2.613 2.613 0 00-.647 1.619v1.554c0 .754.134 1.529.2 2.22a107.354 107.354 0 003.079 16.447 39.12 39.12 0 002.23 6.326 11.952 11.952 0 003.211 3.973c.842.739 1.72 1.435 2.632 2.087l.981.643c.558.4 1.093.466 1.536-.355a.534.534 0 000-.155.841.841 0 00-.357-.666 26.731 26.731 0 01-4.46-3.95 10.53 10.53 0 01-.825-1.044 1.091 1.091 0 01-.156-.244l-.134-.2-.29-.643a24.634 24.634 0 01-1.026-2.819 75.438 75.438 0 01-2.386-12.452 132.018 132.018 0 01-.558-6.393c0-1.066-.111-2.22-.134-3.196v.155a10.447 10.447 0 003.617-2.183 10.388 10.388 0 002.45-3.432 9.818 9.818 0 00.937-4.106 9.44 9.44 0 00-.915-4.196A10.732 10.732 0 0038.335.73a9.853 9.853 0 00-3.952-.726 10.076 10.076 0 00-3.746.756 10.462 10.462 0 00-5.331 4.972 9.489 9.489 0 00-.96 3.597c-.043.569-.043 1.14 0 1.709v1.353a.27.27 0 010 .223l-.11.18-.271.399c-.335.532-.736 1.065-1.138 1.618-.804 1.088-1.65 2.22-2.498 3.238-1.717 2.22-3.479 4.262-5.264 6.349-3.59 4.173-7.248 8.346-11.15 12.14A2.511 2.511 0 003 38.248c0 .421.669.532 2.052-.378a12.871 12.871 0 002.278-1.863z" fill="#FAFAFA"/><path d="M31.956 59.67c.945 5.036 2 9.535 2.857 12.758.44 1.611.813 2.887 1.099 3.76.286.872.484 1.32.484 1.32.131.403.308.582.571.448a.637.637 0 000-.403 28.731 28.731 0 01-.879-3.111 81.188 81.188 0 01-.725-3.29c-.462-2.237-.88-4.474-1.253-6.711-.747-4.476-1.407-8.953-1.912-13.429-.505-4.476-.879-8.953-1.055-13.429v-6.71c.063-2.207.283-4.407.66-6.58a2.97 2.97 0 00-.55-1.858c-.374-.537-.923-.738-1.494.358-.098.178-.18.365-.242.56a13.3 13.3 0 00-.46 1.678 44.615 44.615 0 000 4.477 134.651 134.651 0 002.899 30.162zM33 11c1.105 0 2-.672 2-1.5S34.105 8 33 8s-2 .672-2 1.5.895 1.5 2 1.5zM16.816 62.75c.875-.26 1.72-.614 2.521-1.058a14.068 14.068 0 002.193-1.642 12.375 12.375 0 001.666-2.097 11.741 11.741 0 001.71-4.906c.21-1.64.067-3.306-.416-4.884-.386-.67-.818-1.31-1.294-1.914l-1.315-1.779a62.535 62.535 0 01-4.386-6.481 25.783 25.783 0 01-2.192-4.861c-.197-.608-.285-1.126-.373-1.46a1.544 1.544 0 010-.382v-.205c0-.608-.132-1.081-.439-1.081a2.01 2.01 0 000 .742c.147 1.638.547 3.24 1.184 4.75a33.243 33.243 0 002.018 4.186 91.256 91.256 0 004.933 7.606l.57.879.132.202a.76.76 0 010 .135v.247c.133.661.213 1.332.24 2.006a11.345 11.345 0 01-.57 3.938 10.206 10.206 0 01-1.995 3.374 9.477 9.477 0 01-3.11 2.25 8.234 8.234 0 01-7.388-.224 11.525 11.525 0 01-3.11-2.43l-.657-.788a.164.164 0 00-.038-.104.156.156 0 00-.093-.054v-.158a2.268 2.268 0 01-.178-.337 5.387 5.387 0 01-.329-1.733v-.9a3.898 3.898 0 010-.518v-.45c.104-.652.266-1.293.483-1.915a41.045 41.045 0 011.732-3.961 227.624 227.624 0 001.995-4.029 28.17 28.17 0 001.71-4.5c.11-.459.11-.938 0-1.396a3.963 3.963 0 00-.24-.72 2.07 2.07 0 00-.373-.54c-.278-.3-.541-.368-.79-.203a.85.85 0 00-.308.36c-.06.246-.157.481-.285.698v.158a.722.722 0 01-.154.472l-.285.765-.439 1.08a57.987 57.987 0 01-1.973 5.357c-.591 1.148-1.205 2.363-1.798 3.739a15.65 15.65 0 00-1.359 4.636c-.021.42-.021.84 0 1.26-.021.435-.021.87 0 1.305.08.965.396 1.895.92 2.7.137.189.283.37.44.54l.438.496c.298.332.613.647.943.945l1.03.878c.36.269.733.517 1.119.743.792.459 1.63.828 2.5 1.102.884.257 1.798.393 2.718.405.904.03 1.807-.052 2.692-.244zm6.574-14.178l.329-.112h.35c-.372.023.988-.293-.745.112h.066zM10.566 24.394c0 .293 2.009.383 2.31-.404.065-.212.065-.44 0-.652 0-.292-.67-.607-.693-.989a4.817 4.817 0 01.187-2.247c.208-.607.531-1.282.785-2.023a8.22 8.22 0 01.531 4.045 7.95 7.95 0 01-.438 1.798 4.104 4.104 0 01-.281.674.469.469 0 00.187.404h.208a8.843 8.843 0 001.59-4.203 8.774 8.774 0 00-.69-4.428L12.809 13l-1.086 3.483c-.3.945-1.108 1.978-1.617 3.484a5.69 5.69 0 000 2.18c.075.762.23 1.516.463 2.247h-.002zm-4.055 4.601a5.339 5.339 0 001.567-.165c.188-.055.373-.126.551-.213.133 0 .221-.117.133-.424a.208.208 0 00-.18 0 4.526 4.526 0 01-3.11-.354 5.652 5.652 0 01-1.368-.968l-.31-.286-.198-.237a10.081 10.081 0 011.72 0 4.566 4.566 0 012.693 1.298 3.281 3.281 0 001.037-.191c.485-.191 1.014-.473.948-1.133.005-.095.005-.19 0-.287a2.1 2.1 0 00-.441-.732 1.946 1.946 0 00-.905-.424 4.322 4.322 0 01-1.015-.26 6.96 6.96 0 00-2.802-.613H3.154c-.774-.024-1.55.024-2.316.141a1.24 1.24 0 01-.728.543H0c.183.039.357.12.508.237.394.314.743.688 1.037 1.109.28.214.546.45.794.707.194.21.4.408.618.59.397.33.826.615 1.279.85a6.328 6.328 0 002.273.802l.002.01z" fill="#FAFAFA"/><path d="M118.984 133.272a1.857 1.857 0 00-.866-.399 222.028 222.028 0 00-51.261-2.751H65.39a102.09 102.09 0 01-.755-3.728 126.629 126.629 0 01-1.311-8.565c-.156-1.354-.244-2.84-.333-4.282a134.2 134.2 0 01-.2-4.438c-.2-5.814-.223-11.739-.27-17.622 0-2.93 0-5.814.222-8.699.1-2.058.308-4.11.622-6.146a78.223 78.223 0 015.312-.843c2.378-.333 4.6-.91 6.489-1.043h.466c1.4 1.508 2.822 3.017 4.266 4.438A168.506 168.506 0 0091.63 89.893l6.044 5.015-3.91-6.79c-2.556-4.438-5.267-8.876-8.067-13.114l2 1.73a46.626 46.626 0 018.177 8.876l5.888 8.765-3.665-9.901a44.145 44.145 0 00-6.243-11.117c1.62 1.309 3.15 2.507 4.577 3.596a161.86 161.86 0 005.466 3.994l1.266.865 1.334.799c.585.32 1.194.595 1.822.82.547.162 1.104.288 1.666.378h1.201c.111 0 .379.111.245 0l-.578-1.438-.289-.688c0-.244-.244-.51-.378-.754l-.755-1.465-.2-.355-.156-.27-.289-.532-.599-1.065c-.423-.688-.8-1.398-1.245-2.109a120.186 120.186 0 00-6.02-9.12c-.534-.754-1.778-2.419-3.356-4.438l-1.222-1.509-1.333-1.528-1.378-1.509-1.267-1.309v-.107c4.134 1.132 7.777 2.419 10.624 3.417l6.377 2.352c.511.243.933.288 1.178-.27v-.11a.836.836 0 00-.467-.489c-5.155-2.418-10.398-4.855-15.887-6.856l-2.222-.777a58.774 58.774 0 00-.488-3.373 4.979 4.979 0 00-.223-1.086v-.466a1.509 1.509 0 00-.311-.51v-.112c-.28-.185-.6-.3-.934-.333a1.468 1.468 0 00-1.31.843 1.746 1.746 0 00-.157.578v.11a.842.842 0 000 .289v.621c.111.777.244 1.554.378 2.374v.134a62.573 62.573 0 00-11.822-2.22 59.638 59.638 0 00-34.418 7.368 3.439 3.439 0 00-1 2.773 1.86 1.86 0 001.38 1.902c.275.073.563.083.841.029l.712-.156a16.92 16.92 0 001.91-.665 10.336 10.336 0 002.022-1.487 9.732 9.732 0 012.4-1.575 77.428 77.428 0 017.577-2.53 61.605 61.605 0 019.132-1.799 58.778 58.778 0 019.91-.377 60.69 60.69 0 019.755 1.286l2.222.511.244.954.2.688c.035.192.096.378.18.554v.223l.18.2.244.243.156.11.27.244.533.444.955.91a80.08 80.08 0 018.199 9.387 120.554 120.554 0 014.444 6.457 64.48 64.48 0 013.355 5.991l.18.378h-.355a3.121 3.121 0 01-.801-.289h-.18l-.27-.18-.888-.554-1.756-1.265c-2.355-2.02-4.577-3.817-6.8-5.592A154.828 154.828 0 0183.994 63.44l-3.421-3.395 1.644 4.438a15.53 15.53 0 003.555 5.304c1.267 1.332 2.222 2.463 3.151 3.528a37.026 37.026 0 013.151 4.438c0 .18.245.355.356.555a79.825 79.825 0 00-1.933-1.82c-1.577-1.438-3.331-2.906-5.177-4.438l-9.354-7.83c-.978-.798-1.111-.665-.4.333 1.91 2.64 5.492 7.61 5.977 8.343 3.4 4.97 6.663 9.809 9.444 14.424a121.769 121.769 0 01-7.577-6.654c-2.667-2.53-4.222-4.216-5.422-5.57h1.111c.556 0 1.2-1.487 0-1.84h-2.773l-2.222-2.641c-.466-.533-.955-1.11-1.577-1.754a12.234 12.234 0 00-2.444-1.978 3.87 3.87 0 00-1.933-.532 1.601 1.601 0 00-1.2.444c-.18.2 0 .422.27.599s.888.4 1.755.976a25.733 25.733 0 015.155 4.993c-1.133 0-2.377.133-3.644.244-2.222.18-4.621.51-6.663.82a4.725 4.725 0 00-1.133-2.218c-.733-.844-1.822-1.42-2.933 0a4.081 4.081 0 00-.489.731 9.283 9.283 0 00-.911 2.22v.488c-.888.195-1.77.417-2.644.665a9.23 9.23 0 00-.934-1.775 2.42 2.42 0 00-1.178-1.043 1.646 1.646 0 00-1.733.688 4.448 4.448 0 00-.555.754 9.091 9.091 0 00-.955 2.352 3.873 3.873 0 000 .888l-1.09.399c-.711.222-1.466.4-2.422.599-.533.11-3.021.532-3.865.843-1.267.51-2.045 1.509-1.756 2.219.289.71 1.556.91 2.777.422.502-.284.978-.61 1.422-.977a31.256 31.256 0 015.022-1.888 16.54 16.54 0 01.222 3.44 295.527 295.527 0 000 39.053c.2 3.372.422 6.653.689 9.453-3.266.444-6.662.932-9.822 1.508l-3.15.577-3.152.644a169.77 169.77 0 00-6.287 1.376 66.238 66.238 0 00-12.688 4.083 4.797 4.797 0 00-2.222 3.217c-.2 1.265.423 2.219 2.467 1.82l1.022-.244c.666-.179 1.6-.488 2.822-.909a62.607 62.607 0 017.221-3.327c1.86-.471 3.726-.915 5.6-1.332l6.265-1.331c2.222-.422 4.444-.91 6.663-1.287l3.532-.643 1.844-.289c.133 1.22.29 2.219.444 3.372.312 2.109.645 3.795.911 4.904.156.532.27.999.356 1.243l.155.399c.134.444.356.621.912.355a.444.444 0 00.11-.399 3.125 3.125 0 00-.222-.8l-.18-.932c0-.665-.2-1.353-.27-2.042-.156-1.375-.244-2.817-.333-4.238v-2.219a276.937 276.937 0 0110.776-1.421c.334 1.066.69 2.042 1 2.93a43.891 43.891 0 001.934 4.637c.27.532.489.888.644 1.154.057.128.132.248.223.355.245.422.533.665 1.044.333a.69.69 0 000-.555 20.153 20.153 0 01-1.49-3.597c-.466-1.331-.844-2.707-1.2-4.082l-.332-1.287 2.044-.199c2.489-.27 5-.422 7.444-.599l3.691-.2c1.2 0 2.4-.133 3.602-.155a235.012 235.012 0 0124.441.444c1.577 0 2.977.243 4.222.332 1.244.089 2.222.2 3.177.311l2.711.289c.822.133 1.44.111 1.53-.488.169.003.214-.175.169-.175zm-65.57-1.885v-2.618c0-5.814 0-11.649.155-17.485.156-5.836.4-11.672.711-17.486.156-2.929.333-5.836.556-8.72.11-1.44.222-2.885.378-4.306.03-.747.126-1.49.289-2.219l2.933-.599a17 17 0 01.18 3.147c-.385 6.194-.34 12.407.133 18.595.18 3.462.4 7.013.733 10.519a99.522 99.522 0 001.4 10.274 137.773 137.773 0 002.422 9.896c-3.38.292-6.646.669-9.89 1.001v.001zM7.749 161.558v.435H5.116v8.706c-.03.322.055.644.243.912a.95.95 0 00.742.272c.64 0 1.138-.435 1.515-1.304l.384.203a2.983 2.983 0 01-1.138 1.617 3.174 3.174 0 01-1.932.592 3.134 3.134 0 01-1.198-.141 3.07 3.07 0 01-1.046-.581 2.28 2.28 0 01-.64-1.13 8.44 8.44 0 01-.167-1.85v-7.302H0v-.435h1.88v-2.857A7.063 7.063 0 005.078 158v3.564l2.67-.006zm6.991.394a1.724 1.724 0 00-.638-.42 1.755 1.755 0 00-.76-.107c-.3.001-.598.046-.885.134a1.82 1.82 0 00-.725.406c.384.114.725.335.984.635.24.317.363.704.349 1.099.016.29-.053.58-.201.832-.155.25-.38.45-.647.578a2.093 2.093 0 01-.957.209 1.487 1.487 0 01-1.196-.489 1.758 1.758 0 01-.434-1.226c.015-.399.144-.786.373-1.116.229-.33.548-.59.92-.75a7.21 7.21 0 013.414-.716 4.56 4.56 0 011.754.173 4.505 4.505 0 011.551.824c.324.319.549.722.647 1.163.128.64.184 1.291.168 1.943v6.046c-.016.261.02.522.104.769a.383.383 0 00.365.222 1.42 1.42 0 00.84-.381l.234.381a3.486 3.486 0 01-1.125.635 4.73 4.73 0 01-1.458.197 2.292 2.292 0 01-1.662-.537 1.746 1.746 0 01-.511-1.27 3.536 3.536 0 01-1.449 1.353c-.6.302-1.266.455-1.94.448a3.076 3.076 0 01-2.075-.667 2.343 2.343 0 01-.602-.845 2.305 2.305 0 01-.174-1.016 2.587 2.587 0 01.769-1.905 6.685 6.685 0 012.445-1.41l1.138-.406a4.69 4.69 0 001.403-.743 1.132 1.132 0 00.434-.839v-1.75a2.209 2.209 0 00-.454-1.454zm0 4.585a10.22 10.22 0 01-.938.635 4.096 4.096 0 00-1.126 1.096 2.715 2.715 0 00-.407 1.522c-.03.455.108.905.388 1.269a1.297 1.297 0 001.015.432 1.88 1.88 0 00.89-.262c.269-.16.492-.384.65-.652v-4.528a1.926 1.926 0 01-.492.489l.02-.001zm12.997-4.979v.435h-2.636v8.707c-.032.321.051.644.236.912a.961.961 0 00.76.272c.64 0 1.143-.435 1.52-1.304l.383.203a3.005 3.005 0 01-1.144 1.618c-.558.4-1.239.608-1.933.591a3.117 3.117 0 01-1.195-.147 3.046 3.046 0 01-1.04-.588 2.24 2.24 0 01-.638-1.123 8.039 8.039 0 01-.173-1.851v-7.287H20v-.434h1.877v-2.867A7.069 7.069 0 0025.07 158v3.564l2.667-.006zm1.874 9.873c.23.345.555.627.94.816.385.19.817.28 1.251.263a1.84 1.84 0 001.18-.391 1.48 1.48 0 00.39-.537c.085-.205.12-.424.102-.643a2.121 2.121 0 00-.324-1.091 3.559 3.559 0 00-.742-.859c-.436-.36-.886-.705-1.348-1.034a37.189 37.189 0 01-1.639-1.306 4.561 4.561 0 01-.944-1.129 2.867 2.867 0 01-.392-1.482 2.57 2.57 0 01.553-1.64 3.364 3.364 0 011.49-1.042A5.582 5.582 0 0132.15 161a6.208 6.208 0 011.652.208 4.21 4.21 0 011.173.473c.12.089.265.142.418.151.29 0 .475-.271.553-.807h.519c-.068.738-.095 2.031-.095 3.88h-.527a5.334 5.334 0 00-.923-2.435 2.343 2.343 0 00-.91-.75 2.527 2.527 0 00-1.186-.234 1.74 1.74 0 00-1.154.378 1.331 1.331 0 00-.339.479 1.257 1.257 0 00-.092.568c.006.473.206.925.56 1.262.388.383.819.728 1.284 1.028.499.334.862.58 1.092.744.536.37 1.052.766 1.544 1.186.372.333.684.721.923 1.148.245.458.368.965.357 1.477.01.617-.204 1.22-.607 1.709-.42.514-.981.911-1.624 1.148a6.073 6.073 0 01-2.292.385 4.846 4.846 0 01-2.185-.46 11.44 11.44 0 00-1.105-.467h-.122c-.25 0-.431.267-.553.788H28c.063-.84.093-2.312.087-4.415h.52a6.466 6.466 0 001.004 2.987zm20.26.335a1.325 1.325 0 001.129.456v.468a14.7 14.7 0 00-1.408-.064 14.757 14.757 0 00-3.315.31v-1.999a3.66 3.66 0 01-1.5 1.58 3.792 3.792 0 01-2.156.47 3.167 3.167 0 01-2.468-.86 2.362 2.362 0 01-.538-1.094 7.85 7.85 0 01-.162-1.783v-5.599a2.654 2.654 0 00-.324-1.481 1.306 1.306 0 00-1.129-.461v-.468c.48.044.953.063 1.408.063a15.24 15.24 0 003.315-.304v9.172a2.71 2.71 0 00.28 1.389c.116.167.277.3.466.384.19.083.398.115.604.09.395.001.78-.118 1.103-.341.345-.24.622-.561.803-.935.2-.406.302-.852.298-1.303v-5.805a2.593 2.593 0 00-.33-1.481 1.252 1.252 0 00-.486-.365 1.288 1.288 0 00-.604-.096v-.468c.48.044.947.063 1.407.063 1.115.02 2.228-.082 3.32-.304v9.28a2.66 2.66 0 00.287 1.486zm8.179-10.198a3.087 3.087 0 011.863-.567c.41-.012.815.091 1.167.296.3.187.542.453.696.769.15.317.226.663.222 1.013.022.5-.154.989-.491 1.364a1.688 1.688 0 01-1.313.536 1.856 1.856 0 01-1.24-.394 1.318 1.318 0 01-.453-1.052 2.073 2.073 0 011.01-1.769 1.406 1.406 0 00-.281-.032 1.334 1.334 0 00-.36.058c-.404.069-.776.26-1.064.546a3.338 3.338 0 00-1.03 2.342v5.989a1.745 1.745 0 00.512 1.455c.49.309 1.068.45 1.647.401V173c-1.91-.058-3.13-.091-3.654-.091-.525 0-1.581 0-3.281.091v-.477c.296.013.59-.036.866-.142a.842.842 0 00.462-.498c.105-.316.151-.648.138-.981v-7.107a2.74 2.74 0 00-.322-1.516 1.31 1.31 0 00-1.135-.523v-.482c.486.045.958.064 1.424.064 1.126.022 2.25-.082 3.353-.31v2.098a3.884 3.884 0 011.266-1.562l-.003.004z" fill="#FAFAFA"/><path d="M68.032 161.601a3.095 3.095 0 011.872-.6 2.21 2.21 0 011.172.296c.302.187.544.453.699.769a2.3 2.3 0 01.223 1.013c.022.5-.155.989-.494 1.364a1.702 1.702 0 01-1.317.535 1.863 1.863 0 01-1.2-.393 1.316 1.316 0 01-.455-1.053c0-.354.093-.703.27-1.013a2.09 2.09 0 01.739-.755 1.373 1.373 0 00-.279-.032 1.345 1.345 0 00-.362.058c-.405.069-.778.26-1.067.546a3.276 3.276 0 00-.764 1.097 3.175 3.175 0 00-.279 1.246v5.989a1.751 1.751 0 00.521 1.455c.49.308 1.072.449 1.653.4V173c-1.917-.058-3.142-.091-3.67-.091-.527 0-1.587 0-3.294.091v-.477a2.2 2.2 0 00.876-.142.87.87 0 00.465-.498 2.79 2.79 0 00.138-.981v-7.107a2.731 2.731 0 00-.323-1.516 1.313 1.313 0 00-.517-.375 1.341 1.341 0 00-.636-.09v-.477c.487.045.968.064 1.43.064 1.13.023 2.26-.081 3.366-.31v2.071a3.925 3.925 0 011.233-1.561zm14.505.837c.975.965 1.463 2.49 1.463 4.576 0 2.085-.488 3.602-1.463 4.551A6.367 6.367 0 0178.503 173a6.367 6.367 0 01-4.034-1.435c-.983-.957-1.473-2.474-1.469-4.551.004-2.076.494-3.6 1.47-4.569A6.333 6.333 0 0178.502 161c1.476 0 2.905.512 4.034 1.445v-.007zm-5.578.365a11.702 11.702 0 00-.571 4.211 11.501 11.501 0 00.571 4.179c.385.913.899 1.366 1.546 1.366.648 0 1.163-.453 1.538-1.36a11.7 11.7 0 00.565-4.185 11.887 11.887 0 00-.565-4.217c-.38-.913-.893-1.366-1.538-1.366-.644 0-1.162.453-1.546 1.372zm18.228 7.727c.275.207.493.483.634.802.141.319.2.67.172 1.02a4.034 4.034 0 01-.693 2.217 5.05 5.05 0 01-2.103 1.739 7.783 7.783 0 01-3.436.689c-.886.014-1.77-.071-2.638-.255a3.932 3.932 0 01-1.593-.695 1.25 1.25 0 01-.375-.43 1.308 1.308 0 01-.153-.557c-.01-.175.023-.35.1-.507a.973.973 0 01.333-.385 6.04 6.04 0 011.427-.637 5.154 5.154 0 001.396-.638h-.504a3.162 3.162 0 01-1.646-.448 1.69 1.69 0 01-.602-.7 1.763 1.763 0 01-.154-.925c-.008-.402.079-.8.252-1.159a2.96 2.96 0 01.855-.987 8.715 8.715 0 011.599-.975 3.687 3.687 0 01-1.722-1.191 3.219 3.219 0 01-.615-2.019 3.072 3.072 0 01.29-1.473c.216-.457.542-.849.946-1.139a5.743 5.743 0 013.379-.859 7.873 7.873 0 011.598.152c-.02-.376.009-.753.087-1.121a2.59 2.59 0 01.615-1.484c.185-.194.409-.344.655-.441a1.79 1.79 0 01.772-.12c.408-.019.81.114 1.131.376a1.2 1.2 0 01.337.438c.078.172.117.36.112.549a1.155 1.155 0 01-.433.93c-.302.247-.68.374-1.064.359a1.524 1.524 0 01-1.02-.319 2.015 2.015 0 01-.566-.936 3.112 3.112 0 00-.326 1.147v.681a3.902 3.902 0 012.005 1.172 3.16 3.16 0 01.707 2.121 3.265 3.265 0 01-.615 1.981 3.502 3.502 0 01-1.636 1.178 6.809 6.809 0 01-2.398.389c-.62.003-1.24-.07-1.844-.217-.32.188-.618.415-.886.675a.956.956 0 00-.295.695c0 .49.282.738.86.738h4.97a3.627 3.627 0 012.084.561l.001.008zm-7.07 3.262c-.12.292-.187.606-.197.923-.013.278.043.554.163.802.12.249.298.462.52.619.512.35 1.118.524 1.732.497a3.92 3.92 0 001.624-.331 2.822 2.822 0 001.229-.962 2.46 2.46 0 00.449-1.472.878.878 0 00-.277-.707 1.543 1.543 0 00-.978-.23h-3.689a2.266 2.266 0 00-.577.861zm1.149-11.695a5.777 5.777 0 00-.37 2.433 5.723 5.723 0 00.37 2.423c.095.213.247.392.438.518a1.156 1.156 0 001.276 0c.19-.126.343-.305.438-.518.29-.77.414-1.597.363-2.423a5.92 5.92 0 00-.363-2.433 1.221 1.221 0 00-.438-.518 1.155 1.155 0 00-1.276 0 1.22 1.22 0 00-.438.518zm13.499-.146a1.728 1.728 0 00-1.397-.526c-.3.001-.599.046-.886.133-.271.08-.52.218-.728.405.383.113.725.333.983.634.245.314.37.702.355 1.097.005.29-.074.575-.229.822a1.538 1.538 0 01-.644.572c-.3.144-.63.215-.964.209a1.463 1.463 0 01-1.164-.489 1.75 1.75 0 01-.434-1.223c.012-.389.133-.768.35-1.094.216-.326.52-.588.878-.756a7.23 7.23 0 013.453-.715 4.62 4.62 0 011.754.174 4.54 4.54 0 011.551.821c.324.319.549.721.647 1.161.125.639.179 1.289.161 1.939v6.034c-.015.26.023.521.11.767a.378.378 0 00.365.221c.316-.031.612-.165.841-.38l.233.38c-.332.28-.717.496-1.132.634a4.695 4.695 0 01-1.457.197 2.307 2.307 0 01-1.662-.501 1.749 1.749 0 01-.505-1.267 3.54 3.54 0 01-1.449 1.35c-.6.301-1.266.454-1.94.446-.75.037-1.487-.2-2.069-.665a2.321 2.321 0 01-.607-.841 2.283 2.283 0 01-.175-1.016 2.561 2.561 0 01.776-1.901 6.637 6.637 0 012.393-1.445l1.15-.425a4.646 4.646 0 001.436-.741 1.118 1.118 0 00.427-.837v-1.723a2.198 2.198 0 00-.421-1.451zm0 4.575c-.3.229-.613.44-.938.634a4.08 4.08 0 00-1.125 1.097 2.698 2.698 0 00-.407 1.518c-.032.453.104.903.381 1.267a1.301 1.301 0 001.022.431c.313-.012.619-.102.887-.261.268-.16.49-.384.645-.652v-4.521a1.911 1.911 0 01-.511.487h.046zm15.38 4.709a4.558 4.558 0 01-1.532 1.264 4.615 4.615 0 01-2.202.5 5.81 5.81 0 01-2.767-.633 4.589 4.589 0 01-1.93-1.986 7.125 7.125 0 01-.71-3.345 6.915 6.915 0 01.743-3.319 5.006 5.006 0 012.043-2.068 6.231 6.231 0 012.973-.645c.547 0 1.093.06 1.625.179.449.1.881.261 1.281.48.379.213.702.508.942.859.221.361.336.771.332 1.189.007.232-.034.464-.122.681-.088.217-.22.415-.389.583a1.86 1.86 0 01-1.327.493 1.854 1.854 0 01-.694-.097 1.788 1.788 0 01-.599-.348 1.568 1.568 0 01-.39-.536 1.502 1.502 0 01-.128-.64c-.01-.425.148-.839.444-1.158.288-.309.667-.53 1.088-.633a1.24 1.24 0 00-.561-.385 2.362 2.362 0 00-.829-.146 2.224 2.224 0 00-.88.172 2.114 2.114 0 00-.726.505 4.225 4.225 0 00-1.002 1.859 9.563 9.563 0 00-.345 2.706c-.034.89.111 1.777.427 2.614.214.57.605 1.064 1.122 1.417.456.281.989.428 1.532.424a3.66 3.66 0 001.598-.392 3.78 3.78 0 001.453-1.404l.385.132a6.074 6.074 0 01-.855 1.678zm11.103-9.156a18.28 18.28 0 001.752-.061v.427a1.73 1.73 0 00-.857.528c-.318.39-.559.83-.714 1.298l-4.062 10.677a3.569 3.569 0 01-1 1.517 3.148 3.148 0 01-1.986.527c-.393 0-.783-.062-1.155-.182a2.213 2.213 0 01-.94-.564 1.301 1.301 0 01-.377-.952 1.238 1.238 0 01.12-.579 1.33 1.33 0 01.38-.471c.369-.27.829-.41 1.297-.394.443-.021.879.104 1.234.352.155.119.278.269.36.44.082.17.121.356.114.543a1.305 1.305 0 01-.306.819c-.22.255-.509.45-.837.564.173.009.346.009.519 0 .947 0 1.636-.558 2.077-1.68l.365-1.013-4.823-10.237a2.413 2.413 0 00-.708-.964 1.267 1.267 0 00-.701-.225V162a36.62 36.62 0 003.115.127c.895 0 1.947-.042 3.16-.127v.449a6.525 6.525 0 00-.766 0 1.106 1.106 0 00-.474.151.473.473 0 00-.153.18.434.434 0 00-.041.227c.009.21.062.416.155.607l2.81 6.315 1.554-4.083a5.306 5.306 0 00.366-1.705 1.622 1.622 0 00-.442-1.213 1.958 1.958 0 00-1.246-.473v-.428c.717.034 1.45.052 2.21.052z" fill="#FAFAFA"/></svg>