<svg width="14" height="17" viewBox="0 0 14 17" fill="none" xmlns="http://www.w3.org/2000/svg"><path d="M7 0c3.866 0 7 3.132 7 6.996 0 2.957-2.079 6.179-6.182 9.7a1.257 1.257 0 01-1.639 0l-.271-.236C1.987 13.03 0 9.887 0 6.996A6.998 6.998 0 017 0zm0 1.076a5.925 5.925 0 00-5.923 5.92c0 2.513 1.83 5.409 5.538 8.652l.268.232a.18.18 0 00.234 0c3.888-3.338 5.806-6.311 5.806-8.884a5.917 5.917 0 00-3.656-5.469A5.926 5.926 0 007 1.077zm0 3.23a2.693 2.693 0 012.692 2.69A2.69 2.69 0 017 9.687a2.693 2.693 0 01-2.692-2.69A2.69 2.69 0 017 4.305zm0 1.076a1.616 1.616 0 100 3.231 1.616 1.616 0 000-3.231z" fill="#FAFAFA"/></svg>