<svg width="93" height="75" viewBox="0 0 93 75" fill="none" xmlns="http://www.w3.org/2000/svg"><g filter="url(#filter0_d_188:2315)" fill="#50ADA8"><path d="M33.425 58.9c-4.35 0-8.225-1.075-11.625-3.225-3.4-2.15-6.075-5.25-8.025-9.3-1.9-4.1-2.85-8.975-2.85-14.625s.95-10.5 2.85-14.55c1.95-4.1 4.625-7.225 8.025-9.375C25.2 5.675 29.075 4.6 33.425 4.6S41.65 5.675 45.05 7.825C48.45 9.975 51.1 13.1 53 17.2c1.95 4.05 2.925 8.9 2.925 14.55S54.95 42.275 53 46.375c-1.9 4.05-4.55 7.15-7.95 9.3-3.4 2.15-7.275 3.225-11.625 3.225zm0-10.275c3.2 0 5.7-1.375 7.5-4.125 1.85-2.75 2.775-7 2.775-12.75s-.925-10-2.775-12.75c-1.8-2.75-4.3-4.125-7.5-4.125-3.15 0-5.65 1.375-7.5 4.125-1.8 2.75-2.7 7-2.7 12.75s.9 10 2.7 12.75c1.85 2.75 4.35 4.125 7.5 4.125zM82.764 5.5V58h-12.15V15.25h-10.5V5.5h22.65z"/></g><defs><filter id="filter0_d_188:2315" x=".925" y=".6" width="91.839" height="74.3" filterUnits="userSpaceOnUse" color-interpolation-filters="sRGB"><feFlood flood-opacity="0" result="BackgroundImageFix"/><feColorMatrix in="SourceAlpha" values="0 0 0 0 0 0 0 0 0 0 0 0 0 0 0 0 0 0 127 0" result="hardAlpha"/><feOffset dy="6"/><feGaussianBlur stdDeviation="5"/><feComposite in2="hardAlpha" operator="out"/><feColorMatrix values="0 0 0 0 0 0 0 0 0 0.6 0 0 0 0 0.6 0 0 0 0.2 0"/><feBlend in2="BackgroundImageFix" result="effect1_dropShadow_188:2315"/><feBlend in="SourceGraphic" in2="effect1_dropShadow_188:2315" result="shape"/></filter></defs></svg>