<svg width="19" height="19" viewBox="0 0 19 19" fill="none" xmlns="http://www.w3.org/2000/svg"><path d="M2.654 4.375l1.997-1.994a1.29 1.29 0 011.83 0l2.15 2.146a1.294 1.294 0 010 1.834l-1.68 1.681a7.6 7.6 0 001.62 2.387 7.617 7.617 0 002.386 1.623l1.68-1.681a1.29 1.29 0 011.83 0l2.152 2.146a1.294 1.294 0 010 1.834l-1.995 1.995a2.245 2.245 0 01-1.938.624c-2.483-.409-4.947-1.73-6.936-3.718-1.988-1.99-3.308-4.454-3.72-6.938a2.235 2.235 0 01.624-1.939zm.705 1.716c.366 2.21 1.555 4.415 3.345 6.205 1.791 1.79 3.994 2.98 6.205 3.345a.882.882 0 00.765-.248l1.96-1.959-2.078-2.079-2.247 2.25-.016.017-.405-.15A9.024 9.024 0 015.53 8.114l-.15-.405 2.265-2.263-2.078-2.08-1.96 1.96a.878.878 0 00-.249.765z" fill="#FAFAFA"/></svg>