<svg width="77" height="77" viewBox="0 0 77 77" fill="none" xmlns="http://www.w3.org/2000/svg">
<path d="M21.6562 33.6875H31.2812C31.6003 33.6875 31.9064 33.5607 32.132 33.3351C32.3576 33.1095 32.4844 32.8035 32.4844 32.4844V23.3578L34.5383 21.3039C34.7639 21.0782 34.8907 20.7722 34.8907 20.4531C34.8907 20.134 34.7639 19.828 34.5383 19.6024C34.3126 19.3767 34.0066 19.25 33.6875 19.25C33.3684 19.25 33.0624 19.3767 32.8367 19.6024L30.7829 21.6562H21.6562C21.3372 21.6562 21.0311 21.783 20.8055 22.0086C20.5799 22.2343 20.4531 22.5403 20.4531 22.8594V32.4844C20.4531 32.8035 20.5799 33.1095 20.8055 33.3351C21.0311 33.5607 21.3372 33.6875 21.6562 33.6875ZM30.0781 31.2812H22.8594V25.764L25.618 28.5226C25.7297 28.6344 25.8623 28.723 26.0083 28.7835C26.1543 28.8439 26.3107 28.875 26.4688 28.875C26.6268 28.875 26.7832 28.8439 26.9292 28.7835C27.0752 28.723 27.2078 28.6344 27.3195 28.5226L30.0781 25.764V31.2812ZM26.4688 25.9705L24.5609 24.0625H28.3766L26.4688 25.9705ZM34.8906 30.0781C34.8906 29.759 35.0174 29.453 35.243 29.2274C35.4686 29.0018 35.7747 28.875 36.0938 28.875H56.5469C56.866 28.875 57.172 29.0018 57.3976 29.2274C57.6232 29.453 57.75 29.759 57.75 30.0781C57.75 30.3972 57.6232 30.7032 57.3976 30.9289C57.172 31.1545 56.866 31.2812 56.5469 31.2812H36.0938C35.7747 31.2812 35.4686 31.1545 35.243 30.9289C35.0174 30.7032 34.8906 30.3972 34.8906 30.0781ZM57.75 37.2969C57.75 37.616 57.6232 37.922 57.3976 38.1476C57.172 38.3732 56.866 38.5 56.5469 38.5H20.4531C20.134 38.5 19.828 38.3732 19.6024 38.1476C19.3768 37.922 19.25 37.616 19.25 37.2969C19.25 36.9778 19.3768 36.6718 19.6024 36.4461C19.828 36.2205 20.134 36.0938 20.4531 36.0938H56.5469C56.866 36.0938 57.172 36.2205 57.3976 36.4461C57.6232 36.6718 57.75 36.9778 57.75 37.2969ZM57.75 42.1094C57.75 42.4285 57.6232 42.7345 57.3976 42.9601C57.172 43.1857 56.866 43.3125 56.5469 43.3125H20.4531C20.134 43.3125 19.828 43.1857 19.6024 42.9601C19.3768 42.7345 19.25 42.4285 19.25 42.1094C19.25 41.7903 19.3768 41.4843 19.6024 41.2586C19.828 41.033 20.134 40.9062 20.4531 40.9062H56.5469C56.866 40.9062 57.172 41.033 57.3976 41.2586C57.6232 41.4843 57.75 41.7903 57.75 42.1094ZM57.75 46.9219C57.75 47.241 57.6232 47.547 57.3976 47.7726C57.172 47.9982 56.866 48.125 56.5469 48.125H20.4531C20.134 48.125 19.828 47.9982 19.6024 47.7726C19.3768 47.547 19.25 47.241 19.25 46.9219C19.25 46.6028 19.3768 46.2968 19.6024 46.0711C19.828 45.8455 20.134 45.7188 20.4531 45.7188H56.5469C56.866 45.7188 57.172 45.8455 57.3976 46.0711C57.6232 46.2968 57.75 46.6028 57.75 46.9219ZM57.75 54.1406C57.75 54.4597 57.6232 54.7657 57.3976 54.9914C57.172 55.217 56.866 55.3438 56.5469 55.3438H51.7344C51.5476 55.3438 51.3633 55.3003 51.1963 55.2167L49.5657 54.4014L48.9758 54.9914C48.864 55.1031 48.7314 55.1917 48.5854 55.2522C48.4395 55.3127 48.283 55.3438 48.125 55.3438C47.967 55.3438 47.8105 55.3127 47.6646 55.2522C47.5186 55.1917 47.386 55.1031 47.2742 54.9914L45.7188 53.4357L44.1633 54.9914C43.9376 55.217 43.6316 55.3438 43.3125 55.3438C42.9934 55.3438 42.6874 55.217 42.4617 54.9914C42.2361 54.7658 42.1093 54.4597 42.1093 54.1406C42.1093 53.8215 42.2361 53.5155 42.4617 53.2899L44.868 50.8836C44.9797 50.7719 45.1123 50.6833 45.2583 50.6228C45.4043 50.5623 45.5607 50.5312 45.7188 50.5312C45.8768 50.5312 46.0332 50.5623 46.1792 50.6228C46.3252 50.6833 46.4578 50.7719 46.5695 50.8836L48.125 52.4393L48.4774 52.0867C48.6559 51.9081 48.8861 51.7902 49.1354 51.7497C49.3846 51.7093 49.6403 51.7482 49.8662 51.8612L52.0185 52.9375H56.5469C56.866 52.9375 57.172 53.0643 57.3976 53.2899C57.6232 53.5155 57.75 53.8215 57.75 54.1406ZM74.5938 2.40625H67.375C67.0559 2.40625 66.7499 2.53301 66.5243 2.75864C66.2986 2.98427 66.1719 3.29029 66.1719 3.60938V4.97207L59.0077 5.99562L38.7757 1.23516C38.5403 1.17974 38.2937 1.19651 38.0681 1.28328L10.0202 12.071C8.91782 12.4948 8.0195 13.3245 7.50971 14.3899C6.99993 15.4553 6.91738 16.6754 7.27901 17.7997C7.64063 18.9241 8.41899 19.8673 9.45427 20.4357C10.4895 21.0042 11.7032 21.1547 12.8459 20.8563L13.2344 20.755V51.7326L10.8281 51.7309V50.5312C10.8281 50.2122 10.7014 49.9061 10.4757 49.6805C10.2501 49.4549 9.94409 49.3281 9.625 49.3281H2.40625C2.08716 49.3281 1.78114 49.4549 1.55551 49.6805C1.32988 49.9061 1.20313 50.2122 1.20312 50.5312V72.1875C1.20313 72.5066 1.32988 72.8126 1.55551 73.0382C1.78114 73.2639 2.08716 73.3906 2.40625 73.3906H9.625C9.94409 73.3906 10.2501 73.2639 10.4757 73.0382C10.7014 72.8126 10.8281 72.5066 10.8281 72.1875V70.8247L17.9923 69.8013L38.2243 74.5617C38.4597 74.6171 38.7063 74.6004 38.9319 74.5136L66.9798 63.7259C68.0821 63.3021 68.9803 62.4723 69.49 61.407C69.9997 60.3416 70.0823 59.1216 69.7207 57.9973C69.3591 56.8731 68.5808 55.9299 67.5457 55.3614C66.5105 54.793 65.297 54.6424 64.1542 54.9406L63.7656 55.0419V24.0643L66.1719 24.066V25.2656C66.1719 25.5847 66.2986 25.8907 66.5243 26.1164C66.7499 26.342 67.0559 26.4688 67.375 26.4688H74.5938C74.9128 26.4688 75.2189 26.342 75.4445 26.1164C75.6701 25.8907 75.7969 25.5847 75.7969 25.2656V3.60938C75.7969 3.29029 75.6701 2.98427 75.4445 2.75864C75.2189 2.53301 74.9128 2.40625 74.5938 2.40625ZM8.42188 70.9844H3.60938V51.7344H8.42188V70.9844ZM64.7617 57.2687C65.309 57.1271 65.8898 57.2001 66.3851 57.4728C66.8804 57.7455 67.2527 58.1972 67.4257 58.7355C67.5987 59.2737 67.5593 59.8578 67.3157 60.368C67.0721 60.8782 66.6426 61.2759 66.1152 61.4797L38.4132 72.134L18.321 67.4066C18.175 67.3721 18.0238 67.3653 17.8753 67.3866L10.8281 68.3941V54.137L15.6397 54.1405C15.66 54.1387 15.6827 54.1405 15.7042 54.1388L36.3252 53.0476C36.7025 53.0283 37.0735 53.1502 37.3658 53.3895C37.6581 53.6288 37.8508 53.9684 37.9063 54.3421C37.9618 54.7158 37.8761 55.0968 37.666 55.4108C37.4559 55.7247 37.1364 55.9492 36.7698 56.0404L24.9739 58.9891C24.6663 59.0683 24.4026 59.2659 24.2401 59.5388C24.0777 59.8117 24.0297 60.1378 24.1068 60.4459C24.1838 60.754 24.3795 61.0192 24.6513 61.1836C24.923 61.348 25.2487 61.3982 25.5574 61.3234L30.3627 60.1221L39.2563 63.6796C39.4951 63.7751 39.7581 63.7916 40.0069 63.7267L64.7617 57.2687ZM39.7824 61.2992L34.3492 59.1255L37.3528 58.3744C38.2993 58.138 39.1239 57.5578 39.6659 56.7466C40.2079 55.9355 40.4285 54.9516 40.2848 53.9867C40.141 53.0218 39.6431 52.145 38.8882 51.5271C38.1332 50.9092 37.1753 50.5945 36.201 50.6443L15.6406 51.7327V20.1272L37.2176 14.4984L42.6508 16.6714L39.647 17.4225C38.7161 17.6537 37.9021 18.2179 37.3587 19.0084C36.8153 19.7988 36.5802 20.7609 36.6978 21.7129C36.8153 22.6649 37.2774 23.5409 37.9968 24.1755C38.7161 24.81 39.6429 25.1592 40.6022 25.157C40.6674 25.157 40.7332 25.1555 40.7989 25.1522L61.3594 24.0642V55.6696L39.7824 61.2992ZM61.2958 21.6587L40.6748 22.7499C40.2975 22.7692 39.9265 22.6473 39.6342 22.408C39.3419 22.1687 39.1492 21.829 39.0937 21.4553C39.0382 21.0817 39.1239 20.7007 39.334 20.3867C39.5441 20.0728 39.8636 19.8483 40.2302 19.7571L52.0261 16.8083C52.3337 16.729 52.5974 16.5314 52.7599 16.2585C52.9223 15.9856 52.9703 15.6595 52.8932 15.3514C52.8162 15.0433 52.6205 14.7781 52.3487 14.6137C52.077 14.4494 51.7513 14.3991 51.4426 14.4739L46.6372 15.6752L37.7437 12.1173C37.505 12.0217 37.2419 12.0052 36.9931 12.0702L12.2383 18.5281C11.6908 18.6706 11.1094 18.5981 10.6136 18.3256C10.1177 18.0531 9.74495 17.6012 9.57171 17.0625C9.39846 16.5239 9.43788 15.9394 9.68188 15.4289C9.92588 14.9184 10.356 14.5207 10.8839 14.3172L38.5859 3.66291L58.6781 8.39029C58.8241 8.42465 58.9753 8.43143 59.1238 8.4103L66.1719 7.40298V21.66C66.1719 21.66 61.3174 21.6562 61.2958 21.6579V21.6587ZM73.3906 24.0625H68.5781V4.8125H73.3906V24.0625Z" fill="url(#paint0_linear_188:2548)"/>
<defs>
<linearGradient id="paint0_linear_188:2548" x1="1.20313" y1="74.5938" x2="78.2749" y2="71.892" gradientUnits="userSpaceOnUse">
<stop stop-color="#50ADA8"/>
<stop offset="1" stop-color="#77C2BE"/>
</linearGradient>
</defs>
</svg>
