<svg width="64" height="73" viewBox="0 0 64 73" fill="none" xmlns="http://www.w3.org/2000/svg">
<path d="M48.1483 13.6406C48.1483 13.2836 48.2541 12.9347 48.4524 12.6379C48.6507 12.3411 48.9326 12.1098 49.2624 11.9732C49.5921 11.8366 49.955 11.8009 50.3051 11.8705C50.6551 11.9402 50.9767 12.1121 51.2291 12.3644C51.4815 12.6168 51.6534 12.9384 51.723 13.2885C51.7926 13.6385 51.7569 14.0014 51.6203 14.3312C51.4837 14.6609 51.2524 14.9428 50.9556 15.1411C50.6588 15.3394 50.3099 15.4452 49.953 15.4452C49.4743 15.4452 49.0153 15.2551 48.6769 14.9167C48.3384 14.5782 48.1483 14.1192 48.1483 13.6406ZM44.2983 15.1445C44.5957 15.1445 44.8865 15.0563 45.1338 14.891C45.3811 14.7258 45.5739 14.4909 45.6877 14.2161C45.8015 13.9413 45.8313 13.6389 45.7733 13.3472C45.7153 13.0554 45.572 12.7875 45.3617 12.5771C45.1514 12.3668 44.8834 12.2236 44.5917 12.1655C44.3 12.1075 43.9976 12.1373 43.7228 12.2511C43.448 12.365 43.2131 12.5577 43.0478 12.805C42.8826 13.0523 42.7944 13.3431 42.7944 13.6406C42.7944 14.0394 42.9528 14.4219 43.2349 14.704C43.5169 14.986 43.8994 15.1445 44.2983 15.1445ZM55.6089 15.1445C55.9063 15.1445 56.1971 15.0563 56.4444 14.891C56.6917 14.7258 56.8845 14.4909 56.9983 14.2161C57.1121 13.9413 57.1419 13.6389 57.0839 13.3472C57.0258 13.0554 56.8826 12.7875 56.6723 12.5771C56.462 12.3668 56.194 12.2236 55.9023 12.1655C55.6105 12.1075 55.3081 12.1373 55.0333 12.2511C54.7585 12.365 54.5237 12.5577 54.3584 12.805C54.1932 13.0523 54.105 13.3431 54.105 13.6406C54.105 14.0392 54.2632 14.4215 54.545 14.7035C54.8268 14.9855 55.209 15.1441 55.6077 15.1445H55.6089ZM17.9198 25.456C18.247 25.456 18.5668 25.359 18.8389 25.1772C19.1109 24.9954 19.3229 24.737 19.4481 24.4348C19.5734 24.1325 19.6061 23.7999 19.5423 23.479C19.4785 23.1581 19.3209 22.8633 19.0895 22.6319C18.8582 22.4006 18.5634 22.243 18.2425 22.1792C17.9216 22.1154 17.589 22.1481 17.2867 22.2733C16.9844 22.3985 16.7261 22.6106 16.5443 22.8826C16.3625 23.1547 16.2655 23.4745 16.2655 23.8017C16.2655 24.2404 16.4398 24.6612 16.75 24.9715C17.0603 25.2817 17.481 25.456 17.9198 25.456ZM10.701 22.1474C10.3738 22.1474 10.054 22.2444 9.78195 22.4262C9.5099 22.608 9.29786 22.8663 9.17266 23.1686C9.04745 23.4709 9.01468 23.8035 9.07852 24.1244C9.14235 24.4453 9.2999 24.7401 9.53126 24.9715C9.76262 25.2028 10.0574 25.3604 10.3783 25.4242C10.6992 25.488 11.0318 25.4553 11.3341 25.3301C11.6364 25.2049 11.8947 24.9928 12.0765 24.7208C12.2583 24.4487 12.3553 24.1289 12.3553 23.8017C12.3553 23.3629 12.181 22.9422 11.8708 22.6319C11.5605 22.3217 11.1398 22.1474 10.701 22.1474ZM17.2489 29.8851C17.1579 29.756 17.0423 29.646 16.9088 29.5616C16.7753 29.4771 16.6264 29.4197 16.4707 29.3928C16.315 29.3658 16.1556 29.3698 16.0014 29.4045C15.8473 29.4392 15.7015 29.5039 15.5723 29.5949C15.35 29.7515 15.087 29.8403 14.8152 29.8505C14.5435 29.8608 14.2746 29.792 14.0411 29.6526L13.7046 29.4516C13.4307 29.2879 13.1029 29.2398 12.7935 29.3178C12.4841 29.3959 12.2183 29.5936 12.0547 29.8675C11.8911 30.1415 11.843 30.4692 11.921 30.7787C11.999 31.0881 12.1967 31.3539 12.4707 31.5175L12.8065 31.7183C13.4396 32.0962 14.1687 32.2825 14.9055 32.2547C15.6423 32.2269 16.3553 31.9862 16.9582 31.5617C17.0874 31.4707 17.1973 31.3552 17.2819 31.2217C17.3664 31.0882 17.4238 30.9393 17.4508 30.7836C17.4778 30.6279 17.4738 30.4685 17.4392 30.3143C17.4046 30.1601 17.3399 30.0143 17.2489 29.8851ZM0.971806 72.2724C0.859857 72.1591 0.77154 72.0246 0.711981 71.8768C0.652422 71.7291 0.622807 71.5709 0.624855 71.4116L0.901725 50.011C0.934091 47.7165 1.86646 45.5264 3.49798 43.9127C5.1295 42.299 7.32961 41.3906 9.62438 41.3834H14.4292V38.1458H14.0096C11.4234 38.1429 8.94394 37.1142 7.1152 35.2854C5.28646 33.4567 4.25778 30.9772 4.25483 28.391V17.5618C4.2585 14.2893 5.56017 11.1518 7.87426 8.83779C10.1884 6.52378 13.3259 5.22222 16.5984 5.21868H21.4248C22.3925 5.22014 23.3566 5.33578 24.2972 5.56322C24.3237 5.5372 24.3512 5.51194 24.3806 5.48803C24.5032 5.38838 24.6442 5.31385 24.7956 5.26871C24.947 5.22357 25.1059 5.2087 25.263 5.22494C25.4202 5.24118 25.5726 5.28822 25.7116 5.36337C25.8506 5.43852 25.9734 5.54031 26.0731 5.66293L26.6651 6.39172C28.7964 7.38404 30.5997 8.9649 31.8624 10.948C33.1251 12.9311 33.7946 15.2339 33.792 17.5848V17.6336C33.7935 19.2381 34.3481 20.7931 35.3622 22.0366L37.1035 24.1679C38.0451 25.3202 38.6405 26.7161 38.8203 28.1934C39.0002 29.6707 38.7571 31.1686 38.1195 32.5132C37.4818 33.8579 36.4756 34.9939 35.2179 35.7894C33.9602 36.5849 32.5026 37.0072 31.0144 37.0072H28.7044V41.3836H33.735C36.0302 41.391 38.2306 42.2998 39.8622 43.9141C41.4937 45.5284 42.4258 47.719 42.4577 50.014L42.7342 71.4116C42.7362 71.5709 42.7066 71.7289 42.647 71.8766C42.5874 72.0244 42.4991 72.1588 42.3872 72.2721C42.2753 72.3854 42.142 72.4754 41.995 72.5368C41.8481 72.5982 41.6904 72.6298 41.5311 72.6298H1.82798C1.66872 72.6298 1.51104 72.5983 1.36407 72.5369C1.21709 72.4756 1.08376 72.3857 0.971806 72.2724ZM8.84957 70.2241C8.91565 70.2246 8.98159 70.2304 9.04673 70.2416V68.1895L7.85609 66.4465C6.75309 64.7884 6.25318 62.8018 6.44006 60.8192C6.62694 58.8366 7.48926 56.9783 8.88265 55.5556L9.19171 55.1709V53.3437H3.26526L3.04614 70.2241H8.84957ZM40.3123 70.2241L40.094 53.3437H34.3124C34.2778 53.3437 34.2435 53.3414 34.2096 53.3386L34.2287 55.0905L34.6458 55.5073C36.0575 56.9253 36.9362 58.7873 37.1334 60.7785C37.3305 62.7697 36.834 64.7679 35.7277 66.4352C35.7099 66.462 35.6911 66.4879 35.6711 66.5131L34.3124 68.2354V70.2241H40.3123ZM34.1054 43.8021L34.1835 50.9445C34.2263 50.9399 34.2693 50.9375 34.3124 50.9374H40.0628L40.0513 50.0428C40.0293 48.4446 39.4045 46.9137 38.302 45.7565C37.1995 44.5994 35.7006 43.9013 34.1054 43.8021ZM31.6992 43.7903H28.5447L27.5962 50.43C27.3889 51.8814 26.6649 53.2094 25.5573 54.17C24.4497 55.1306 23.0328 55.6595 21.5666 55.6595C20.1004 55.6595 18.6835 55.1306 17.5759 54.17C16.4683 53.2094 15.7443 51.8814 15.537 50.43L14.5886 43.7901H11.598V55.5941C11.5979 55.8681 11.5044 56.1338 11.3328 56.3474L10.7194 57.1113C10.6921 57.1453 10.6629 57.1778 10.6321 57.2087C9.61259 58.2327 8.97791 59.5773 8.83542 61.0152C8.69292 62.4532 9.05136 63.8962 9.85012 65.1003L11.2427 67.139C11.3796 67.339 11.4529 67.5756 11.453 67.8179V70.2241H31.9061V67.8179C31.9061 67.5474 31.9972 67.2848 32.1648 67.0725L33.7511 65.0621C34.5367 63.8587 34.8853 62.422 34.7383 60.9924C34.5913 59.5628 33.9578 58.2271 32.9438 57.2087L32.18 56.4449C31.9576 56.2224 31.8312 55.9217 31.8276 55.6072L31.6992 43.7903ZM27.0936 30.4843C27.6746 30.4849 28.2472 30.3452 28.7627 30.0771C29.2782 29.809 29.7213 29.4204 30.0545 28.9443C30.3876 28.4682 30.6009 27.9188 30.6762 27.3426C30.7515 26.7665 30.6865 26.1807 30.4869 25.635C30.2873 25.0893 29.959 24.5999 29.5297 24.2083C29.1004 23.8168 28.583 23.5346 28.0213 23.3858C27.4596 23.2371 26.8703 23.2261 26.3035 23.3539C25.7367 23.4817 25.2091 23.7444 24.7656 24.1198C24.7243 24.1624 24.6799 24.2019 24.6328 24.2378C24.1026 24.7317 23.7335 25.3737 23.5735 26.0803C23.4134 26.7868 23.4698 27.5253 23.7354 28.1993C24.0009 28.8734 24.4633 29.4519 25.0623 29.8594C25.6613 30.267 26.3691 30.4847 27.0936 30.4843ZM28.2841 10.3665C28.2916 10.4942 28.2967 10.6222 28.2967 10.7502V20.9804C29.6198 21.2507 30.8134 21.9584 31.6854 22.9894C32.5574 24.0205 33.0572 25.3149 33.1043 26.6645C33.1514 28.0141 32.743 29.3402 31.9449 30.4295C31.1468 31.5188 30.0054 32.3079 28.7044 32.6698V34.6015H31.0144C32.0472 34.6015 33.0588 34.3085 33.9317 33.7564C34.8045 33.2043 35.5028 32.4159 35.9454 31.4828C36.3879 30.5496 36.5566 29.51 36.4318 28.4848C36.307 27.4596 35.8939 26.4908 35.2404 25.6911L33.4984 23.5593C32.1336 21.8859 31.3872 19.7933 31.3852 17.6339V17.5851C31.3881 15.0721 30.4381 12.6514 28.7267 10.8111C28.584 10.6573 28.4354 10.5102 28.2841 10.3665ZM6.67372 17.0878H11.214C14.9633 17.0917 18.6293 15.982 21.7471 13.8995C21.9283 13.7787 22.1388 13.7094 22.3563 13.6988C22.5739 13.6883 22.7902 13.737 22.9822 13.8398C23.1742 13.9425 23.3347 14.0954 23.4466 14.2823C23.5585 14.4691 23.6176 14.6828 23.6176 14.9005V19.987C23.6048 20.582 23.7639 21.168 24.076 21.6747C24.6389 21.3458 25.2518 21.1112 25.8905 20.9804V10.7502C25.889 9.89168 25.626 9.054 25.1364 8.34876C23.9568 7.87249 22.6969 7.62678 21.4248 7.62493H16.5984C14.0461 7.62802 11.5925 8.61197 9.74527 10.3733C7.898 12.1346 6.79834 14.5385 6.67372 17.0878ZM15.632 35.7396C15.9511 35.7396 16.2571 35.8663 16.4828 36.0919C16.7084 36.3176 16.8352 36.6236 16.8352 36.9427C16.8352 36.9427 16.8201 42.4005 16.8231 42.4169L17.9198 50.0898C18.0454 50.9677 18.4834 51.7708 19.1534 52.3517C19.8234 52.9327 20.6804 53.2525 21.5672 53.2525C22.454 53.2525 23.311 52.9327 23.981 52.3517C24.651 51.7708 25.089 50.9677 25.2146 50.0898L26.3108 42.4169C26.3132 42.4005 26.317 42.3847 26.32 42.3686C26.3066 42.2967 26.2988 32.8364 26.2988 32.8364C25.6929 32.7562 25.103 32.5835 24.5496 32.3242L22.7463 34.1275C22.6546 34.6027 22.4481 35.0482 22.1447 35.4252C21.3201 36.4674 20.018 36.8108 19.2363 36.1922C18.4546 35.5737 18.4898 34.2275 19.3145 33.1855C19.8788 32.4723 20.6665 32.0876 21.3582 32.1126L22.6014 30.8693C21.6808 29.8374 21.1448 28.5191 21.0842 27.1375C21.0236 25.7559 21.442 24.3958 22.2688 23.2872C21.5689 22.3302 21.1981 21.1721 21.212 19.9866V17.0159C18.1322 18.6467 14.6995 19.4976 11.2146 19.4941H6.66229V28.391C6.66451 30.3391 7.43928 32.2067 8.81666 33.5843C10.194 34.9619 12.0616 35.737 14.0096 35.7396H15.632ZM3.30797 50.0399L3.29639 50.9374H9.19171V43.8068C7.60873 43.9206 6.12603 44.624 5.03662 45.7781C3.94721 46.9322 3.33036 48.453 3.30797 50.0399ZM23.4842 60.5624C23.4842 60.8815 23.611 61.1875 23.8366 61.4132C24.0622 61.6388 24.3683 61.7656 24.6874 61.7656H30.703C31.0221 61.7656 31.3281 61.6388 31.5537 61.4132C31.7793 61.1875 31.9061 60.8815 31.9061 60.5624C31.9061 60.2433 31.7793 59.9373 31.5537 59.7117C31.3281 59.4861 31.0221 59.3593 30.703 59.3593H24.6874C24.3683 59.3593 24.0622 59.4861 23.8366 59.7117C23.611 59.9373 23.4842 60.2433 23.4842 60.5624ZM36.7186 13.6406C36.7186 11.0982 37.4509 8.60968 38.8278 6.47253C40.2048 4.33538 42.1682 2.64007 44.4833 1.58933C46.7983 0.538593 49.367 0.1769 51.8822 0.547505C54.3974 0.918109 56.7526 2.00532 58.6662 3.67914C60.5798 5.35295 61.9707 7.54252 62.6728 9.986C63.3748 12.4295 63.3582 15.0235 62.6249 17.4578C61.8916 19.8921 60.4727 22.0636 58.5378 23.7128C56.6029 25.3619 54.2339 26.4188 51.7142 26.7572L47.0655 30.2437C46.8867 30.3777 46.6742 30.4594 46.4516 30.4794C46.2291 30.4995 46.0054 30.4572 45.8055 30.3573C45.6057 30.2574 45.4376 30.1038 45.3202 29.9137C45.2027 29.7236 45.1405 29.5046 45.1405 29.2812V25.9726C42.6536 25.0108 40.5172 23.317 39.0135 21.1151C37.5097 18.9132 36.7095 16.3069 36.7186 13.6406ZM39.1249 13.6406C39.1172 15.9469 39.8493 18.1949 41.2135 20.0545C42.5778 21.9141 44.5023 23.2873 46.7045 23.9724C46.9488 24.0492 47.1621 24.2019 47.3136 24.4083C47.4651 24.6148 47.5467 24.8641 47.5467 25.1202V26.8749L50.5285 24.6386C50.7017 24.5088 50.9067 24.4281 51.122 24.4049C53.2015 24.1791 55.1711 23.3558 56.7927 22.0345C58.4144 20.7132 59.6186 18.9504 60.2598 16.9594C60.901 14.9683 60.9518 12.8341 60.406 10.8148C59.8603 8.79552 58.7413 6.97751 57.1843 5.58056C55.6274 4.18361 53.6992 3.26753 51.6327 2.94303C49.5663 2.61854 47.4501 2.89953 45.5399 3.75204C43.6298 4.60455 42.0074 5.99208 40.869 7.74692C39.7305 9.50176 39.1248 11.5488 39.1249 13.6406Z" fill="url(#paint0_linear_188:2563)"/>
<defs>
<linearGradient id="paint0_linear_188:2563" x1="0.624756" y1="72.6298" x2="65.2874" y2="70.6979" gradientUnits="userSpaceOnUse">
<stop stop-color="#50ADA8"/>
<stop offset="1" stop-color="#77C2BE"/>
</linearGradient>
</defs>
</svg>
