<svg width="61" height="75" viewBox="0 0 61 75" fill="none" xmlns="http://www.w3.org/2000/svg">
<path d="M35.3125 42.3125C35.3125 41.9934 35.1857 41.6874 34.9601 41.4618C34.7345 41.2361 34.4285 41.1094 34.1094 41.1094H26.8906C26.5715 41.1094 26.2655 41.2361 26.0399 41.4618C25.8143 41.6874 25.6875 41.9934 25.6875 42.3125C25.6875 42.6316 25.8143 42.9376 26.0399 43.1632C26.2655 43.3889 26.5715 43.5156 26.8906 43.5156H34.1094C34.4285 43.5156 34.7345 43.3889 34.9601 43.1632C35.1857 42.9376 35.3125 42.6316 35.3125 42.3125Z" fill="url(#paint0_linear_188:2540)"/>
<path d="M51.7652 60.1639L38.9218 55.8822V50.8803C41.481 49.4012 43.6063 47.2753 45.0845 44.7157C46.5626 42.156 47.3418 39.2527 47.3437 36.2969H47.9453C49.0617 36.2956 50.1321 35.8516 50.9215 35.0622C51.7109 34.2727 52.155 33.2024 52.1562 32.0859V28.4766C52.155 27.3601 51.7109 26.2898 50.9215 25.5003C50.1321 24.7109 49.0617 24.2669 47.9453 24.2656H47.3437V17.0469C47.3437 12.5796 45.5691 8.29536 42.4103 5.13654C39.2515 1.97773 34.9672 0.203125 30.5 0.203125C26.0327 0.203125 21.7485 1.97773 18.5896 5.13654C15.4308 8.29536 13.6562 12.5796 13.6562 17.0469V24.2656H13.0547C11.9382 24.2669 10.8679 24.7109 10.0784 25.5003C9.28901 26.2898 8.84496 27.3601 8.84372 28.4766V32.0859C8.84496 33.2024 9.28901 34.2727 10.0784 35.0622C10.8679 35.8516 11.9382 36.2956 13.0547 36.2969H13.6562C13.6502 38.5098 14.0831 40.7018 14.9298 42.7463C15.7765 44.7908 17.0203 46.6471 18.589 48.2078C19.6308 49.2496 20.8037 50.1515 22.0781 50.8908V55.8822L9.23474 60.1639C6.66717 61.0171 4.43373 62.6576 2.85169 64.8525C1.26965 67.0474 0.419441 69.685 0.42185 72.3906V73.5938C0.42185 73.9128 0.548607 74.2189 0.774237 74.4445C0.999867 74.6701 1.30589 74.7969 1.62497 74.7969H59.375C59.6941 74.7969 60.0001 74.6701 60.2257 74.4445C60.4513 74.2189 60.5781 73.9128 60.5781 73.5938V72.3906C60.5805 69.685 59.7303 67.0474 58.1483 64.8525C56.5662 62.6576 54.3328 61.0171 51.7652 60.1639ZM47.3437 26.6719H47.9453C48.4238 26.6723 48.8826 26.8625 49.221 27.2009C49.5593 27.5393 49.7496 27.9981 49.75 28.4766V32.0859C49.7496 32.5644 49.5593 33.0232 49.221 33.3616C48.8826 33.7 48.4238 33.8902 47.9453 33.8906H47.3437V26.6719ZM13.6562 33.8906H13.0547C12.5761 33.8902 12.1174 33.7 11.779 33.3616C11.4406 33.0232 11.2504 32.5644 11.25 32.0859V28.4766C11.2504 27.9981 11.4406 27.5393 11.779 27.2009C12.1174 26.8625 12.5761 26.6723 13.0547 26.6719H13.6562V33.8906ZM16.0625 17.0469C16.0625 13.2178 17.5836 9.54558 20.2911 6.83802C22.9987 4.13046 26.6709 2.60938 30.5 2.60938C34.329 2.60938 38.0013 4.13046 40.7088 6.83802C43.4164 9.54558 44.9375 13.2178 44.9375 17.0469V17.9267C44.2803 18.9087 42.5808 19.7659 41.1145 20.2953C40.531 17.9447 38.9369 15.5024 38.7203 15.176C38.6136 15.0158 38.4699 14.8836 38.3015 14.7904C38.1331 14.6972 37.9447 14.6458 37.7523 14.6405C37.5599 14.6352 37.369 14.6762 37.1956 14.7599C37.0223 14.8437 36.8716 14.9678 36.7562 15.1219C36.0133 16.1129 33.4566 18.074 24.6859 20.0803C21.1818 20.8818 17.8491 21.4187 16.0625 21.6804V17.0469ZM16.0625 24.1122C17.7859 23.8641 21.3953 23.3016 25.2032 22.4309C31.2249 21.0548 35.2689 19.5223 37.4736 17.7748C38.1503 19.0065 38.9218 20.6969 38.9218 21.8594C38.9219 22.0422 38.9636 22.2226 39.0437 22.3869C39.1239 22.5512 39.2405 22.695 39.3846 22.8075C39.5287 22.92 39.6966 22.9982 39.8754 23.0361C40.0542 23.0741 40.2394 23.0707 40.4167 23.0264C40.7807 22.9362 43.0471 22.3376 44.9375 21.1164V27.875H43.7343V25.4688C43.7343 25.1497 43.6076 24.8436 43.382 24.618C43.1563 24.3924 42.8503 24.2656 42.5312 24.2656H32.9062C32.5871 24.2656 32.2811 24.3924 32.0555 24.618C31.8299 24.8436 31.7031 25.1497 31.7031 25.4688V27.875H29.2968V25.4688C29.2968 25.1497 29.1701 24.8436 28.9445 24.618C28.7188 24.3924 28.4128 24.2656 28.0937 24.2656H18.4687C18.1496 24.2656 17.8436 24.3924 17.618 24.618C17.3924 24.8436 17.2656 25.1497 17.2656 25.4688V27.875H16.0625V24.1122ZM41.3281 26.6719V32.0859C41.3281 32.2455 41.2647 32.3985 41.1519 32.5113C41.0391 32.6241 40.8861 32.6875 40.7265 32.6875H34.7109C34.5514 32.6875 34.3984 32.6241 34.2855 32.5113C34.1727 32.3985 34.1093 32.2455 34.1093 32.0859V26.6719H41.3281ZM26.8906 26.6719V32.0859C26.8906 32.2455 26.8272 32.3985 26.7144 32.5113C26.6016 32.6241 26.4486 32.6875 26.289 32.6875H20.2734C20.1139 32.6875 19.9609 32.6241 19.848 32.5113C19.7352 32.3985 19.6718 32.2455 19.6718 32.0859V26.6719H26.8906ZM20.2915 46.5054C18.9466 45.1679 17.8804 43.577 17.1545 41.8247C16.4286 40.0724 16.0574 38.1936 16.0625 36.2969V30.2812H17.2656V32.0859C17.2664 32.8834 17.5835 33.648 18.1474 34.2119C18.7113 34.7758 19.4759 35.093 20.2734 35.0938H26.289C27.0865 35.093 27.8511 34.7758 28.415 34.2119C28.9789 33.648 29.296 32.8834 29.2968 32.0859V30.2812H31.7031V32.0859C31.7039 32.8834 32.021 33.648 32.5849 34.2119C33.1488 34.7758 33.9134 35.093 34.7109 35.0938H40.7265C41.524 35.093 42.2886 34.7758 42.8525 34.2119C43.4164 33.648 43.7335 32.8834 43.7343 32.0859V30.2812H44.9375V36.2969C44.9373 39.1522 44.0905 41.9435 42.5041 44.3176C40.9177 46.6917 38.6629 48.5421 36.0249 49.6347C33.3868 50.7274 30.4841 51.0133 27.6835 50.4563C24.883 49.8993 22.3106 48.5244 20.2915 46.5054ZM36.5156 52.0292V56.2432C32.422 60.1293 28.578 60.1293 24.4843 56.2432V52.0383C28.3601 53.5112 32.6421 53.508 36.5156 52.0292ZM48.5468 72.3906H41.3281V71.1875H48.5468V72.3906ZM50.9531 72.3906V69.9844C50.9531 69.6653 50.8263 69.3593 50.6007 69.1336C50.3751 68.908 50.0691 68.7812 49.75 68.7812H40.125C39.8059 68.7812 39.4999 68.908 39.2742 69.1336C39.0486 69.3593 38.9218 69.6653 38.9218 69.9844V72.3906H2.8281C2.82593 70.1901 3.51734 68.0449 4.80406 66.2598C6.09079 64.4746 7.90739 63.1405 9.99572 62.4468L22.9714 58.1216C25.4408 60.4135 27.9704 61.5595 30.5 61.5595C33.0295 61.5595 35.5591 60.4135 38.0285 58.1216L51.0042 62.4468C53.0926 63.1405 54.9091 64.4746 56.1959 66.2598C57.4826 68.0449 58.174 70.1901 58.1718 72.3906H50.9531Z" fill="url(#paint1_linear_188:2540)"/>
<defs>
<linearGradient id="paint0_linear_188:2540" x1="25.6875" y1="43.5156" x2="35.4585" y2="42.1676" gradientUnits="userSpaceOnUse">
<stop stop-color="#50ADA8"/>
<stop offset="1" stop-color="#77C2BE"/>
</linearGradient>
<linearGradient id="paint1_linear_188:2540" x1="0.421845" y1="74.7969" x2="62.6048" y2="73.0673" gradientUnits="userSpaceOnUse">
<stop stop-color="#50ADA8"/>
<stop offset="1" stop-color="#77C2BE"/>
</linearGradient>
</defs>
</svg>
