<svg width="73" height="70" viewBox="0 0 73 70" fill="none" xmlns="http://www.w3.org/2000/svg">
<path d="M65.4164 6.75049C65.2739 6.1287 64.8906 5.58878 64.3507 5.2491C63.8107 4.90942 63.1581 4.7977 62.5359 4.93844L57.2617 6.13945L55.1211 2.05018C54.8246 1.48531 54.3162 1.06111 53.7073 0.870654C53.0984 0.680202 52.4389 0.739053 51.8734 1.03429L30.5445 12.1997C30.5217 12.2118 30.5003 12.2255 30.4787 12.2387L6.93456 17.6H2.8125C2.17454 17.6007 1.56292 17.8544 1.11182 18.3055C0.660711 18.7566 0.406966 19.3683 0.40625 20.0062V50.9939C0.406966 51.6319 0.660711 52.2435 1.11182 52.6946C1.56292 53.1457 2.17454 53.3994 2.8125 53.4002H41.1394C41.1205 53.423 41.1004 53.4453 41.0816 53.4675C39.9291 54.8767 39.1997 56.5837 38.9781 58.3907C38.7566 60.1976 39.052 62.0303 39.83 63.6761C40.608 65.322 41.8368 66.7134 43.3737 67.6891C44.9107 68.6648 46.6927 69.1846 48.5132 69.1883C48.8368 69.1883 49.162 69.1721 49.4888 69.1396C51.4569 68.9435 53.3166 68.1454 54.8146 66.8539C56.3125 65.5624 57.3758 63.8404 57.8595 61.9226C59.7592 61.7439 61.5628 61.0043 63.0411 59.798C64.5194 58.5916 65.6057 56.973 66.1618 55.1478C66.7179 53.3226 66.7188 51.3733 66.1644 49.5476C65.61 47.7218 64.5252 46.1022 63.048 44.8945C63.0065 44.8605 62.9635 44.8292 62.9217 44.796V41.5676L70.4845 39.8453C70.7927 39.7752 71.084 39.645 71.3418 39.4623C71.5996 39.2795 71.8189 39.0478 71.9872 38.7803C72.1554 38.5128 72.2694 38.2148 72.3225 37.9033C72.3755 37.5918 72.3668 37.2728 72.2966 36.9647L65.4164 6.75049ZM52.9893 3.16608L54.8349 6.69199L39.6466 10.151L52.9893 3.16608ZM54.118 64.1344C52.9056 65.6162 51.1543 66.5557 49.2492 66.7462C47.3442 66.9367 45.4415 66.3626 43.9598 65.1502C42.478 63.9379 41.5385 62.1866 41.348 60.2815C41.1575 58.3765 41.7316 56.4738 42.9439 54.992C43.5182 54.2887 44.2201 53.7002 45.0129 53.2574C45.0163 53.2556 45.0196 53.2535 45.0229 53.2516C45.8835 52.7735 46.8329 52.477 47.8125 52.3802C48.0574 52.3556 48.3013 52.3435 48.5442 52.3437C49.9095 52.3464 51.2461 52.7363 52.3988 53.4681C53.5515 54.1998 54.4731 55.2434 55.0566 56.4778C55.6401 57.7122 55.8616 59.0867 55.6955 60.4419C55.5293 61.7971 54.9823 63.0774 54.1178 64.1343L54.118 64.1344ZM20.6227 35.5001C20.6227 33.3163 21.2702 31.1815 22.4835 29.3658C23.6967 27.55 25.4212 26.1348 27.4387 25.2991C29.4563 24.4635 31.6763 24.2448 33.8182 24.6709C35.96 25.0969 37.9274 26.1485 39.4715 27.6927C41.0157 29.2369 42.0673 31.2043 42.4933 33.3461C42.9193 35.4879 42.7006 37.708 41.8649 39.7255C41.0292 41.7431 39.614 43.4675 37.7982 44.6807C35.9824 45.8939 33.8477 46.5415 31.6639 46.5414C28.7366 46.5381 25.9301 45.3738 23.8602 43.3038C21.7902 41.2339 20.6259 38.4274 20.6227 35.5001ZM23.997 46.5414H10.4427C10.2325 45.7824 9.82937 45.0908 9.27248 44.5339C8.71559 43.977 8.02396 43.5739 7.26496 43.3637V27.6364C8.02396 27.4263 8.71559 27.0231 9.27248 26.4662C9.82937 25.9093 10.2325 25.2177 10.4427 24.4587H23.997C22.2132 25.6953 20.7557 27.3457 19.749 29.2686C18.7423 31.1914 18.2164 33.3296 18.2164 35.5001C18.2164 37.6705 18.7423 39.8087 19.749 41.7316C20.7557 43.6545 22.2132 45.3048 23.997 46.5414ZM45.1115 35.5001C45.111 33.3297 44.5849 31.1917 43.5782 29.2689C42.5715 27.3461 41.1142 25.6957 39.3308 24.4587H52.8852C53.0954 25.2177 53.4985 25.9093 54.0554 26.4662C54.6123 27.023 55.3038 27.4262 56.0628 27.6364V42.7615C56.0403 42.7635 56.0177 42.7642 55.9954 42.7665C54.7369 42.8889 53.5151 43.2598 52.4008 43.8575C51.2865 44.4553 50.3019 45.2682 49.5038 46.2491C49.4252 46.345 49.3492 46.4428 49.2746 46.5414H39.3308C41.1142 45.3045 42.5715 43.654 43.5782 41.7312C44.5849 39.8084 45.111 37.6705 45.1115 35.5001ZM62.5401 56.9157C61.4347 58.2698 59.8741 59.1752 58.1499 59.4629C58.1371 58.0544 57.8148 56.6661 57.2058 55.396C56.5968 54.126 55.716 53.0055 54.6258 52.1137C54.6057 52.0972 54.5846 52.0821 54.5643 52.0657C54.6142 51.6369 54.7786 51.2294 55.0401 50.886C55.3018 50.5426 55.6509 50.276 56.0511 50.114C56.4513 49.952 56.8877 49.9007 57.3145 49.9655C57.7413 50.0303 58.1428 50.2087 58.4769 50.4821C58.5991 50.5829 58.74 50.6586 58.8915 50.7048C59.043 50.751 59.2021 50.7668 59.3597 50.7513C59.5174 50.7359 59.6704 50.6895 59.8101 50.6147C59.9497 50.54 60.0732 50.4384 60.1735 50.3158C60.2738 50.1932 60.3489 50.0521 60.3946 49.9004C60.4402 49.7487 60.4554 49.5895 60.4393 49.4319C60.4232 49.2744 60.3762 49.1215 60.3009 48.9821C60.2257 48.8428 60.1236 48.7197 60.0006 48.6198C59.4022 48.1296 58.6942 47.791 57.937 47.6327C57.1797 47.4744 56.3954 47.5011 55.6507 47.7105C54.906 47.9199 54.2227 48.3059 53.6589 48.8357C53.0952 49.3655 52.6675 50.0234 52.4122 50.7537C51.6757 50.4277 50.9007 50.1967 50.1058 50.0661C50.44 49.0616 50.9911 48.1428 51.7201 47.375C52.449 46.6072 53.3379 46.0091 54.3238 45.6233C55.3097 45.2374 56.3684 45.0731 57.4249 45.1421C58.4813 45.2111 59.5097 45.5117 60.437 46.0225C61.3644 46.5333 62.1679 47.2419 62.7908 48.098C63.4137 48.9541 63.8406 49.9367 64.0413 50.9762C64.242 52.0158 64.2116 53.0867 63.9522 54.1131C63.6927 55.1396 63.2107 56.0964 62.5401 56.9157ZM58.4691 42.8375V26.5953C58.4691 26.2762 58.3423 25.9702 58.1167 25.7445C57.891 25.5189 57.585 25.3922 57.2659 25.3922C56.6997 25.3913 56.1569 25.166 55.7565 24.7655C55.3562 24.365 55.131 23.8221 55.1304 23.2559C55.1304 22.9368 55.0036 22.6308 54.778 22.4051C54.5524 22.1795 54.2464 22.0527 53.9273 22.0527H9.40126C9.08217 22.0527 8.77616 22.1795 8.55053 22.4051C8.3249 22.6308 8.19814 22.9368 8.19814 23.2559C8.1975 23.8222 7.97222 24.3653 7.57173 24.7658C7.17123 25.1662 6.62823 25.3915 6.06184 25.3922C5.74275 25.3922 5.43673 25.5189 5.2111 25.7445C4.98547 25.9702 4.85871 26.2762 4.85871 26.5953V44.4051C4.85871 44.7242 4.98547 45.0302 5.2111 45.2559C5.43673 45.4815 5.74275 45.6083 6.06184 45.6083C6.6281 45.6089 7.17099 45.8341 7.57146 46.2344C7.97194 46.6347 8.1973 47.1776 8.19814 47.7438C8.19814 48.0629 8.3249 48.3689 8.55053 48.5946C8.77616 48.8202 9.08217 48.9469 9.40126 48.9469H47.9464C47.8183 49.2851 47.7095 49.6302 47.6205 49.9807C47.6045 49.9821 47.5885 49.9827 47.5725 49.9842C46.3754 50.1029 45.2111 50.4452 44.1401 50.9932H2.8125V20.0062H60.5154V43.3992C59.8564 43.1359 59.17 42.9472 58.4691 42.8367V42.8375ZM62.9217 26.6869L63.9143 31.0471C63.5519 31.2412 63.2179 31.4841 62.9217 31.769V26.6869ZM60.5154 17.6007H37.8258L56.6175 13.3214C56.9907 14.0154 57.5376 14.6007 58.2046 15.0203C58.8716 15.4398 59.636 15.6793 60.4232 15.7153L60.8594 17.6281C60.7455 17.6105 60.6306 17.6011 60.5154 17.6V17.6007ZM62.9217 39.1003V37.001L63.0721 36.9668C63.3832 36.8959 63.6534 36.7044 63.8233 36.4343C63.9931 36.1642 64.0487 35.8376 63.9779 35.5265C63.9156 35.253 63.9078 34.9699 63.955 34.6933C64.0021 34.4168 64.1033 34.1522 64.2528 33.9148C64.4022 33.6774 64.597 33.4717 64.8259 33.3096C65.0548 33.1475 65.3135 33.032 65.5871 32.9699C65.7411 32.9348 65.8867 32.8697 66.0157 32.7784C66.1446 32.687 66.2542 32.5711 66.3383 32.4374C66.4225 32.3036 66.4794 32.1546 66.506 31.9989C66.5325 31.8431 66.5281 31.6837 66.493 31.5296L62.5386 14.164C62.4678 13.8529 62.2762 13.5827 62.0061 13.4128C61.736 13.2429 61.4095 13.1873 61.0983 13.2582C60.5459 13.3837 59.9663 13.2847 59.4868 12.983C59.0074 12.6812 58.6674 12.2014 58.5417 11.649C58.4708 11.3379 58.2793 11.0677 58.0092 10.8978C57.7392 10.7279 57.4127 10.6722 57.1016 10.7431L26.9894 17.6009H17.7716L63.0701 7.28483L69.9503 37.4983L62.9217 39.1003ZM36.2064 32.4704V33.2743C36.2064 33.5934 36.0797 33.8994 35.854 34.125C35.6284 34.3507 35.3224 34.4774 35.0033 34.4774C34.6842 34.4774 34.3782 34.3507 34.1526 34.125C33.9269 33.8994 33.8002 33.5934 33.8002 33.2743V32.4709C33.8005 32.2312 33.7414 31.9952 33.6283 31.7839C33.5152 31.5727 33.3516 31.3926 33.152 31.26C32.7117 30.9652 32.1938 30.8079 31.664 30.8079C31.1341 30.8079 30.6162 30.9652 30.1759 31.26C29.9492 31.4111 29.7694 31.6229 29.6571 31.8711C29.5448 32.1194 29.5044 32.3942 29.5406 32.6643C29.5767 32.9344 29.688 33.1889 29.8617 33.3989C30.0354 33.6089 30.2645 33.7659 30.523 33.8521L33.5657 34.8663C34.2516 35.0949 34.8596 35.5115 35.3204 36.0686C35.7812 36.6258 36.0764 37.301 36.1723 38.0176C36.2683 38.7342 36.1612 39.4634 35.8631 40.1221C35.5651 40.7808 35.0882 41.3427 34.4866 41.7437C33.9922 42.0727 33.4441 42.3128 32.867 42.4531V43.2927C32.867 43.6118 32.7403 43.9178 32.5146 44.1434C32.289 44.3691 31.983 44.4958 31.6639 44.4958C31.3448 44.4958 31.0388 44.3691 30.8132 44.1434C30.5875 43.9178 30.4608 43.6118 30.4608 43.2927V42.4526C29.8836 42.3123 29.3355 42.0721 28.8411 41.7429C28.3116 41.3907 27.8775 40.913 27.5775 40.3524C27.2775 39.7917 27.1208 39.1656 27.1215 38.5297V37.7258C27.1215 37.4068 27.2482 37.1007 27.4739 36.8751C27.6995 36.6495 28.0055 36.5227 28.3246 36.5227C28.6437 36.5227 28.9497 36.6495 29.1754 36.8751C29.401 37.1007 29.5277 37.4068 29.5277 37.7258V38.5292C29.5275 38.7689 29.5865 39.0049 29.6995 39.2162C29.8126 39.4275 29.9762 39.6075 30.1758 39.7402C30.616 40.035 31.134 40.1924 31.6638 40.1924C32.1937 40.1924 32.7116 40.035 33.1519 39.7402C33.3786 39.589 33.5584 39.3773 33.6707 39.129C33.783 38.8807 33.8234 38.6059 33.7873 38.3358C33.7511 38.0658 33.6399 37.8112 33.4662 37.6012C33.2925 37.3913 33.0634 37.2342 32.8049 37.148L29.7625 36.1344C29.0766 35.9058 28.4687 35.4892 28.0079 34.9321C27.5471 34.375 27.252 33.6997 27.156 32.9831C27.06 32.2665 27.1671 31.5374 27.4651 30.8787C27.7631 30.22 28.24 29.6581 28.8415 29.257C29.3359 28.928 29.884 28.6879 30.4611 28.5475V27.708C30.4611 27.3889 30.5878 27.0829 30.8135 26.8573C31.0391 26.6317 31.3451 26.5049 31.6642 26.5049C31.9833 26.5049 32.2893 26.6317 32.5149 26.8573C32.7406 27.0829 32.8673 27.3889 32.8673 27.708V28.5475C33.4445 28.6879 33.9926 28.928 34.487 29.2572C35.0165 29.6094 35.4505 30.0871 35.7505 30.6477C36.0505 31.2084 36.2072 31.8346 36.2064 32.4704ZM13.1582 32.4882C12.5625 32.4882 11.9802 32.6648 11.4849 32.9958C10.9896 33.3267 10.6035 33.7971 10.3756 34.3475C10.1476 34.8978 10.088 35.5034 10.2042 36.0877C10.3204 36.6719 10.6072 37.2086 11.0285 37.6298C11.4497 38.051 11.9863 38.3378 12.5706 38.4541C13.1548 38.5703 13.7604 38.5106 14.3108 38.2827C14.8611 38.0547 15.3315 37.6687 15.6625 37.1734C15.9934 36.6781 16.17 36.0958 16.17 35.5001C16.1691 34.7015 15.8515 33.936 15.2869 33.3714C14.7222 32.8067 13.9567 32.4891 13.1582 32.4882ZM13.1582 36.1057C13.0384 36.1057 12.9213 36.0702 12.8217 36.0036C12.7221 35.9371 12.6445 35.8425 12.5986 35.7318C12.5528 35.6212 12.5408 35.4994 12.5642 35.3819C12.5876 35.2644 12.6452 35.1565 12.7299 35.0718C12.8146 34.9871 12.9225 34.9294 13.04 34.9061C13.1575 34.8827 13.2793 34.8947 13.3899 34.9405C13.5006 34.9864 13.5952 35.064 13.6617 35.1636C13.7283 35.2632 13.7638 35.3803 13.7638 35.5001C13.7636 35.6606 13.6997 35.8146 13.5862 35.9281C13.4727 36.0416 13.3187 36.1055 13.1582 36.1057ZM49.8914 38.5119C50.4871 38.5119 51.0694 38.3353 51.5647 38.0043C52.06 37.6734 52.446 37.203 52.674 36.6527C52.902 36.1023 52.9616 35.4967 52.8454 34.9125C52.7292 34.3282 52.4423 33.7916 52.0211 33.3703C51.5999 32.9491 51.0632 32.6623 50.479 32.5461C49.8947 32.4298 49.2891 32.4895 48.7388 32.7175C48.1884 32.9454 47.718 33.3315 47.3871 33.8268C47.0562 34.3221 46.8795 34.9044 46.8795 35.5001C46.8804 36.2986 47.198 37.0641 47.7627 37.6288C48.3273 38.1934 49.0929 38.511 49.8914 38.5119ZM49.8914 34.8944C50.0112 34.8944 50.1283 34.93 50.2278 34.9965C50.3274 35.0631 50.4051 35.1576 50.4509 35.2683C50.4967 35.379 50.5087 35.5007 50.4854 35.6182C50.462 35.7357 50.4043 35.8436 50.3196 35.9283C50.2349 36.013 50.127 36.0707 50.0095 36.094C49.8921 36.1174 49.7703 36.1054 49.6596 36.0596C49.549 36.0137 49.4544 35.9361 49.3878 35.8365C49.3213 35.7369 49.2858 35.6198 49.2858 35.5001C49.286 35.3395 49.3498 35.1856 49.4634 35.072C49.5769 34.9585 49.7308 34.8946 49.8914 34.8944ZM51.7478 57.5305C51.6478 57.6528 51.5246 57.7542 51.3854 57.8289C51.2461 57.9036 51.0936 57.9501 50.9363 57.9658C50.7791 57.9815 50.6203 57.9661 50.4691 57.9205C50.3178 57.8749 50.177 57.7999 50.0547 57.6998C49.5608 57.2957 48.9265 57.1044 48.2915 57.1679C47.6565 57.2314 47.0727 57.5446 46.6686 58.0386C46.2645 58.5325 46.0731 59.1668 46.1367 59.8018C46.2002 60.4368 46.5134 61.0206 47.0073 61.4247C47.2529 61.6272 47.4082 61.9188 47.4392 62.2355C47.4703 62.5523 47.3745 62.8684 47.173 63.1148C46.9714 63.3611 46.6805 63.5175 46.3639 63.5498C46.0472 63.5821 45.7307 63.4876 45.4836 63.287C44.4957 62.4788 43.8694 61.3112 43.7424 60.0412C43.6154 58.7711 43.9981 57.5027 44.8063 56.5148C45.6145 55.527 46.7821 54.9006 48.0521 54.7736C49.3221 54.6466 50.5906 55.0293 51.5785 55.8375C51.8254 56.0396 51.982 56.3315 52.0137 56.6489C52.0455 56.9664 51.9498 57.2835 51.7478 57.5305Z" fill="url(#paint0_linear_188:2546)"/>
<defs>
<linearGradient id="paint0_linear_188:2546" x1="0.406251" y1="69.1883" x2="74.7405" y2="66.4926" gradientUnits="userSpaceOnUse">
<stop stop-color="#bbb"/>
<stop offset="1" stop-color="#77C2BE"/>
</linearGradient>
</defs>
</svg>
