<svg width="77" height="77" viewBox="0 0 77 77" fill="none" xmlns="http://www.w3.org/2000/svg">
<g clip-path="url(#clip0_188:2543)">
<path d="M45.7187 25.2656V18.8902C47.3533 17.4282 48.5054 15.5044 49.0226 13.3733C49.5398 11.2422 49.3978 9.00429 48.6153 6.95568C47.8328 4.90707 46.4467 3.14434 44.6405 1.90073C42.8342 0.657129 40.6929 -0.00872803 38.5 -0.00872803C36.307 -0.00872803 34.1657 0.657129 32.3595 1.90073C30.5532 3.14434 29.1671 4.90707 28.3846 6.95568C27.6021 9.00429 27.4601 11.2422 27.9773 13.3733C28.4946 15.5044 29.6467 17.4282 31.2812 18.8902V25.2656C31.2812 25.5847 31.408 25.8907 31.6336 26.1163C31.8592 26.3419 32.1653 26.4687 32.4844 26.4687V44.5156C32.4843 44.7889 32.5773 45.0541 32.748 45.2675L37.5605 51.2831C37.6732 51.424 37.8162 51.5378 37.9788 51.6159C38.1414 51.6941 38.3195 51.7347 38.5 51.7347C38.6804 51.7347 38.8585 51.6941 39.0212 51.6159C39.1838 51.5378 39.3268 51.424 39.4395 51.2831L44.252 45.2675C44.4227 45.0541 44.5157 44.7889 44.5156 44.5156V43.3124H45.7187C46.0378 43.3124 46.3438 43.1857 46.5695 42.96C46.7951 42.7344 46.9219 42.4284 46.9219 42.1093V37.2968C46.9219 36.9777 46.7951 36.6717 46.5695 36.4461C46.3438 36.2204 46.0378 36.0937 45.7187 36.0937H44.5156V34.1857L46.5695 32.1319C46.6812 32.0202 46.7698 31.8876 46.8303 31.7416C46.8908 31.5956 46.9219 31.4392 46.9219 31.2812C46.9219 31.1232 46.8908 30.9667 46.8303 30.8208C46.7698 30.6748 46.6812 30.5421 46.5695 30.4304L44.5156 28.3767V26.4687C44.8347 26.4687 45.1407 26.3419 45.3663 26.1163C45.592 25.8907 45.7187 25.5847 45.7187 25.2656ZM30.0781 10.8281C30.0781 9.16237 30.572 7.53409 31.4974 6.14912C32.4229 4.76415 33.7382 3.6847 35.2771 3.04727C36.816 2.40983 38.5093 2.24305 40.143 2.56801C41.7767 2.89297 43.2773 3.69508 44.4551 4.8729C45.633 6.05072 46.4351 7.55135 46.76 9.18504C47.085 10.8187 46.9182 12.5121 46.2808 14.051C45.6433 15.5899 44.5639 16.9052 43.1789 17.8306C41.794 18.756 40.1657 19.2499 38.5 19.2499C36.2671 19.2474 34.1264 18.3593 32.5476 16.7805C30.9687 15.2016 30.0806 13.0609 30.0781 10.8281ZM44.5156 40.9062H43.3125C42.9934 40.9062 42.6874 41.0329 42.4617 41.2586C42.2361 41.4842 42.1094 41.7902 42.1094 42.1093V44.0934L39.7031 47.1012V25.2656C39.7031 24.9465 39.5763 24.6405 39.3507 24.4148C39.1251 24.1892 38.8191 24.0624 38.5 24.0624C38.1809 24.0624 37.8749 24.1892 37.6492 24.4148C37.4236 24.6405 37.2969 24.9465 37.2969 25.2656V47.1012L34.8906 44.0934V25.2656C34.8906 24.9465 34.7638 24.6405 34.5382 24.4148C34.3126 24.1892 34.0066 24.0624 33.6875 24.0624V20.524C35.1825 21.2686 36.8298 21.6562 38.5 21.6562C40.1701 21.6562 41.8175 21.2686 43.3125 20.524V24.0624C42.9934 24.0624 42.6874 24.1892 42.4617 24.4148C42.2361 24.6405 42.1094 24.9465 42.1094 25.2656V28.8749C42.1093 29.0329 42.1405 29.1894 42.2009 29.3354C42.2614 29.4813 42.35 29.614 42.4617 29.7257L44.0174 31.2812L42.4617 32.8367C42.35 32.9484 42.2614 33.081 42.2009 33.227C42.1405 33.373 42.1093 33.5294 42.1094 33.6874V37.2968C42.1094 37.6159 42.2361 37.9219 42.4617 38.1475C42.6874 38.3732 42.9934 38.4999 43.3125 38.4999H44.5156V40.9062ZM38.5 12.0312C39.2138 12.0312 39.9117 11.8195 40.5052 11.4229C41.0988 11.0263 41.5614 10.4626 41.8346 9.80306C42.1078 9.14353 42.1793 8.41781 42.04 7.71766C41.9007 7.01751 41.557 6.37438 41.0522 5.8696C40.5474 5.36482 39.9043 5.02106 39.2041 4.88179C38.504 4.74252 37.7783 4.814 37.1187 5.08719C36.4592 5.36037 35.8955 5.82299 35.4989 6.41655C35.1023 7.01011 34.8906 7.70795 34.8906 8.42181C34.8917 9.37875 35.2723 10.2962 35.949 10.9728C36.6256 11.6495 37.543 12.0301 38.5 12.0312ZM38.5 7.21869C38.7379 7.21869 38.9705 7.28925 39.1684 7.42145C39.3663 7.55365 39.5205 7.74156 39.6115 7.9614C39.7026 8.18124 39.7264 8.42315 39.68 8.65653C39.6336 8.88991 39.519 9.10429 39.3507 9.27255C39.1825 9.44081 38.9681 9.5554 38.7347 9.60182C38.5013 9.64824 38.2594 9.62442 38.0396 9.53336C37.8197 9.44229 37.6318 9.28809 37.4996 9.09023C37.3674 8.89238 37.2969 8.65977 37.2969 8.42181C37.2972 8.10283 37.4241 7.79702 37.6496 7.57147C37.8752 7.34592 38.181 7.21905 38.5 7.21869ZM74.5937 49.2852L73.3906 15.5977C73.3837 15.4023 73.3292 15.2116 73.232 15.0421C73.1348 14.8725 72.9977 14.7291 72.8326 14.6244C72.6675 14.5197 72.4794 14.4569 72.2846 14.4412C72.0897 14.4255 71.894 14.4576 71.7143 14.5346C67.8022 16.2113 65.2832 21.2376 64.2273 29.4738C63.8094 32.8971 63.6416 36.3462 63.7251 39.7939C59.1211 40.464 55.8677 44.6252 55.598 44.9798C53.1796 47.9979 51.5199 48.6773 49.5988 49.4634C47.9263 50.148 46.0308 50.924 43.6651 53.2895C41.039 55.9156 39.4392 61.0306 38.5003 65.4329C37.5612 61.0306 35.9615 55.9156 33.3354 53.2895C30.9698 50.924 29.0742 50.148 27.4018 49.4634C25.4804 48.677 23.8207 47.9976 21.403 44.9795C21.1333 44.6249 17.8799 40.4637 13.2759 39.7936C13.3594 36.3459 13.1916 32.8968 12.7737 29.4735C11.7175 21.2376 9.19847 16.212 5.28636 14.5346C5.10669 14.4576 4.91096 14.4255 4.71612 14.4412C4.52127 14.4569 4.33317 14.5197 4.1681 14.6244C4.00302 14.7291 3.86594 14.8725 3.76872 15.0421C3.67149 15.2116 3.61705 15.4023 3.61011 15.5977L2.40698 49.2852V49.3281C2.40698 49.5988 2.52188 56.0314 12.5132 63.5249C21.0823 69.9519 21.7923 71.4365 22.6899 73.3163C22.7845 73.5145 22.8813 73.7171 22.9872 73.9286C23.0871 74.1284 23.2405 74.2963 23.4304 74.4138C23.6203 74.5312 23.8392 74.5935 24.0625 74.5937H52.9375C53.1609 74.5937 53.3799 74.5314 53.57 74.414C53.76 74.2965 53.9136 74.1285 54.0135 73.9286C54.1188 73.7171 54.2163 73.5145 54.3108 73.3163C55.209 71.4364 55.9184 69.9519 64.4875 63.5249C74.4788 56.0314 74.5937 49.5988 74.5937 49.3281C74.5937 49.3138 74.5937 49.2995 74.5937 49.2852ZM24.8165 72.1874C23.7566 69.9711 22.8754 68.2895 13.9562 61.5999C5.2226 55.0497 4.82662 49.5988 4.81248 49.3375L5.93846 17.8096C10.4953 22.0553 11.0752 34.4579 10.8624 40.1198C10.3721 40.3839 9.92195 40.7167 9.52572 41.1082C8.21732 42.4166 7.84661 44.1895 8.48321 46.0992C9.2457 48.3868 11.7195 50.3889 14.584 52.707C16.8177 54.5147 19.1276 56.3841 20.6933 58.4718C20.7881 58.5982 20.9068 58.7047 21.0428 58.7852C21.1787 58.8657 21.3292 58.9186 21.4856 58.941C21.642 58.9633 21.8013 58.9546 21.9544 58.9154C22.1074 58.8762 22.2513 58.8072 22.3777 58.7124C22.5041 58.6176 22.6105 58.4989 22.691 58.3629C22.7715 58.227 22.8245 58.0765 22.8468 57.9201C22.8692 57.7637 22.8605 57.6044 22.8213 57.4513C22.782 57.2983 22.7131 57.1545 22.6183 57.0281C20.8737 54.7015 18.3362 52.6481 16.0976 50.8365C13.6335 48.8424 11.306 46.9587 10.7658 45.3382C10.421 44.3037 10.5533 43.5147 11.1824 42.8555C11.4889 42.5454 11.8501 42.2947 12.2479 42.1162C16.2841 42.2621 19.4592 46.3997 19.4902 46.4406C19.4977 46.4505 19.5052 46.4606 19.5132 46.4706C22.3262 49.9869 24.4427 50.8533 26.4895 51.691C28.0942 52.3479 29.6098 52.9683 31.6328 54.9918C35.2693 58.6282 36.7412 68.6036 37.1627 72.1879L24.8165 72.1874ZM63.0437 61.5999C54.1245 68.2895 53.2434 69.9711 52.1834 72.1874H39.8363C40.2574 68.6032 41.7298 58.6278 45.3662 54.9913C47.3896 52.9678 48.9052 52.3475 50.5096 51.6905C52.5564 50.8529 54.6728 49.9865 57.4859 46.4702C57.4937 46.4606 57.5009 46.4505 57.5089 46.4401C57.5408 46.3975 60.6936 42.2592 64.7525 42.1156C65.1299 42.2859 65.4749 42.5206 65.7718 42.8092C66.4391 43.4765 66.5857 44.28 66.2332 45.3377C65.693 46.9582 63.3656 48.8418 60.9014 50.836C58.6628 52.6476 56.1258 54.7011 54.3808 57.0276C54.286 57.154 54.217 57.2978 54.1778 57.4509C54.1386 57.6039 54.1299 57.7632 54.1522 57.9196C54.1746 58.076 54.2275 58.2265 54.308 58.3625C54.3885 58.4984 54.495 58.6172 54.6214 58.712C54.7478 58.8068 54.8916 58.8758 55.0447 58.915C55.1977 58.9542 55.357 58.9629 55.5134 58.9405C55.6698 58.9182 55.8203 58.8652 55.9563 58.7847C56.0922 58.7042 56.211 58.5978 56.3058 58.4714C57.8715 56.3836 60.1813 54.5143 62.4151 52.7066C65.2796 50.3885 67.754 48.3863 68.5158 46.0987C69.1524 44.1888 68.7822 42.4166 67.4733 41.1077C67.0771 40.7163 66.627 40.3835 66.1367 40.1193C65.9239 34.4573 66.5041 22.0549 71.0606 17.8092L72.1875 49.3312C72.1678 49.6705 71.7204 55.0925 63.0437 61.5999Z" fill="url(#paint0_linear_188:2543)"/>
</g>
<defs>
<linearGradient id="paint0_linear_188:2543" x1="2.40698" y1="74.5937" x2="77.0004" y2="72.1043" gradientUnits="userSpaceOnUse">
<stop stop-color="#50ADA8"/>
<stop offset="1" stop-color="#77C2BE"/>
</linearGradient>
<clipPath id="clip0_188:2543">
<rect width="77" height="77" fill="white"/>
</clipPath>
</defs>
</svg>
