<svg width="77" height="77" viewBox="0 0 77 77" fill="none" xmlns="http://www.w3.org/2000/svg">
<path d="M70.9844 36.0938H64.9688V33.6875H62.5625V36.0938H52.9375V3.60938C52.9375 3.29029 52.8107 2.98427 52.5851 2.75864C52.3595 2.53301 52.0535 2.40625 51.7344 2.40625H8.42188C8.10279 2.40625 7.79677 2.53301 7.57114 2.75864C7.34551 2.98427 7.21875 3.29029 7.21875 3.60938V67.375H3.60938C3.29029 67.375 2.98427 67.5018 2.75864 67.7274C2.53301 67.953 2.40625 68.259 2.40625 68.5781V73.3906C2.40625 73.7097 2.53301 74.0157 2.75864 74.2414C2.98427 74.467 3.29029 74.5938 3.60938 74.5938H70.9844C71.9408 74.5909 72.8572 74.2097 73.5334 73.5334C74.2097 72.8572 74.5909 71.9408 74.5938 70.9844V39.7031C74.5909 38.7467 74.2097 37.8303 73.5334 37.1541C72.8572 36.4778 71.9408 36.0966 70.9844 36.0938ZM9.625 4.8125H50.5312V36.0938H46.9219V32.4844C46.9219 32.1653 46.7951 31.8593 46.5695 31.6336C46.3439 31.408 46.0378 31.2812 45.7188 31.2812H38.5C38.1809 31.2812 37.8749 31.408 37.6493 31.6336C37.4236 31.8593 37.2969 32.1653 37.2969 32.4844V36.0938H34.8906V32.4844C34.8906 32.1653 34.7639 31.8593 34.5382 31.6336C34.3126 31.408 34.0066 31.2812 33.6875 31.2812H26.4688C26.1497 31.2812 25.8436 31.408 25.618 31.6336C25.3924 31.8593 25.2656 32.1653 25.2656 32.4844V39.7031C25.2656 40.0222 25.3924 40.3282 25.618 40.5539C25.8436 40.7795 26.1497 40.9062 26.4688 40.9062H28.875V67.375H9.625V4.8125ZM44.5156 33.6875V36.0938H39.7031V33.6875H44.5156ZM4.8125 72.1875V69.7812H28.875V70.9844C28.8783 71.3948 28.9515 71.8017 29.0916 72.1875H4.8125ZM29.0916 38.5H27.6719V33.6875H32.4844V36.0938C31.7401 36.0976 31.0151 36.3306 30.408 36.7612C29.801 37.1917 29.3413 37.7989 29.0916 38.5ZM72.1875 70.9844C72.1875 71.3035 72.0607 71.6095 71.8351 71.8351C71.6095 72.0607 71.3035 72.1875 70.9844 72.1875H32.4844C32.1653 72.1875 31.8593 72.0607 31.6336 71.8351C31.408 71.6095 31.2812 71.3035 31.2812 70.9844V45.7188H72.1875V70.9844ZM72.1875 43.3125H31.2812V39.7031C31.2812 39.384 31.408 39.078 31.6336 38.8524C31.8593 38.6268 32.1653 38.5 32.4844 38.5H38.5V40.9062H40.9062V38.5H50.5312V40.9062H52.9375V38.5H62.5625V40.9062H64.9688V38.5H70.9844C71.3035 38.5 71.6095 38.6268 71.8351 38.8524C72.0607 39.078 72.1875 39.384 72.1875 39.7031V43.3125Z" fill="url(#paint0_linear_188:2550)"/>
<path d="M68.5781 48.125H34.8906C34.5715 48.125 34.2655 48.2518 34.0399 48.4774C33.8143 48.703 33.6875 49.009 33.6875 49.3281V68.5781C33.6875 68.8972 33.8143 69.2032 34.0399 69.4289C34.2655 69.6545 34.5715 69.7812 34.8906 69.7812H68.5781C68.8972 69.7812 69.2032 69.6545 69.4289 69.4289C69.6545 69.2032 69.7812 68.8972 69.7812 68.5781V49.3281C69.7812 49.009 69.6545 48.703 69.4289 48.4774C69.2032 48.2518 68.8972 48.125 68.5781 48.125ZM67.375 52.9375H64.9688V50.5312H67.375V52.9375ZM48.125 57.75H45.7188V55.3438H48.125V57.75ZM50.5312 55.3438H52.9375V57.75H50.5312V55.3438ZM48.125 60.1562V62.5625H45.7188V60.1562H48.125ZM50.5312 60.1562H52.9375V62.5625H50.5312V60.1562ZM55.3438 60.1562H57.75V62.5625H55.3438V60.1562ZM55.3438 57.75V55.3438H57.75V57.75H55.3438ZM60.1562 55.3438H62.5625V57.75H60.1562V55.3438ZM60.1562 52.9375V50.5312H62.5625V52.9375H60.1562ZM57.75 52.9375H55.3438V50.5312H57.75V52.9375ZM52.9375 52.9375H50.5312V50.5312H52.9375V52.9375ZM48.125 52.9375H45.7188V50.5312H48.125V52.9375ZM43.3125 52.9375H40.9062V50.5312H43.3125V52.9375ZM43.3125 55.3438V57.75H40.9062V55.3438H43.3125ZM38.5 57.75H36.0938V55.3438H38.5V57.75ZM38.5 60.1562V62.5625H36.0938V60.1562H38.5ZM40.9062 60.1562H43.3125V62.5625H40.9062V60.1562ZM43.3125 64.9688V67.375H40.9062V64.9688H43.3125ZM45.7188 64.9688H48.125V67.375H45.7188V64.9688ZM50.5312 64.9688H52.9375V67.375H50.5312V64.9688ZM55.3438 64.9688H57.75V67.375H55.3438V64.9688ZM60.1562 64.9688H62.5625V67.375H60.1562V64.9688ZM60.1562 62.5625V60.1562H62.5625V62.5625H60.1562ZM64.9688 60.1562H67.375V62.5625H64.9688V60.1562ZM64.9688 57.75V55.3438H67.375V57.75H64.9688ZM38.5 50.5312V52.9375H36.0938V50.5312H38.5ZM36.0938 64.9688H38.5V67.375H36.0938V64.9688ZM64.9688 67.375V64.9688H67.375V67.375H64.9688Z" fill="url(#paint1_linear_188:2550)"/>
<path d="M28.875 14.4375H31.2812V12.0312H33.6875V9.625H31.2812V7.21875H28.875V9.625H26.4688V12.0312H28.875V14.4375Z" fill="url(#paint2_linear_188:2550)"/>
<path d="M21.6562 19.25H14.4375C14.1184 19.25 13.8124 19.3768 13.5868 19.6024C13.3611 19.828 13.2344 20.134 13.2344 20.4531V27.6719C13.2344 27.991 13.3611 28.297 13.5868 28.5226C13.8124 28.7482 14.1184 28.875 14.4375 28.875H21.6562C21.9753 28.875 22.2814 28.7482 22.507 28.5226C22.7326 28.297 22.8594 27.991 22.8594 27.6719V20.4531C22.8594 20.134 22.7326 19.828 22.507 19.6024C22.2814 19.3768 21.9753 19.25 21.6562 19.25ZM20.4531 26.4688H15.6406V21.6562H20.4531V26.4688Z" fill="url(#paint3_linear_188:2550)"/>
<path d="M26.4688 28.875H33.6875C34.0066 28.875 34.3126 28.7482 34.5382 28.5226C34.7639 28.297 34.8906 27.991 34.8906 27.6719V20.4531C34.8906 20.134 34.7639 19.828 34.5382 19.6024C34.3126 19.3768 34.0066 19.25 33.6875 19.25H26.4688C26.1497 19.25 25.8436 19.3768 25.618 19.6024C25.3924 19.828 25.2656 20.134 25.2656 20.4531V27.6719C25.2656 27.991 25.3924 28.297 25.618 28.5226C25.8436 28.7482 26.1497 28.875 26.4688 28.875ZM27.6719 21.6562H32.4844V26.4688H27.6719V21.6562Z" fill="url(#paint4_linear_188:2550)"/>
<path d="M38.5 28.875H45.7188C46.0378 28.875 46.3439 28.7482 46.5695 28.5226C46.7951 28.297 46.9219 27.991 46.9219 27.6719V20.4531C46.9219 20.134 46.7951 19.828 46.5695 19.6024C46.3439 19.3768 46.0378 19.25 45.7188 19.25H38.5C38.1809 19.25 37.8749 19.3768 37.6493 19.6024C37.4236 19.828 37.2969 20.134 37.2969 20.4531V27.6719C37.2969 27.991 37.4236 28.297 37.6493 28.5226C37.8749 28.7482 38.1809 28.875 38.5 28.875ZM39.7031 21.6562H44.5156V26.4688H39.7031V21.6562Z" fill="url(#paint5_linear_188:2550)"/>
<path d="M21.6562 31.2812H14.4375C14.1184 31.2812 13.8124 31.408 13.5868 31.6336C13.3611 31.8593 13.2344 32.1653 13.2344 32.4844V39.7031C13.2344 40.0222 13.3611 40.3282 13.5868 40.5539C13.8124 40.7795 14.1184 40.9062 14.4375 40.9062H21.6562C21.9753 40.9062 22.2814 40.7795 22.507 40.5539C22.7326 40.3282 22.8594 40.0222 22.8594 39.7031V32.4844C22.8594 32.1653 22.7326 31.8593 22.507 31.6336C22.2814 31.408 21.9753 31.2812 21.6562 31.2812ZM20.4531 38.5H15.6406V33.6875H20.4531V38.5Z" fill="url(#paint6_linear_188:2550)"/>
<path d="M21.6562 43.3125H14.4375C14.1184 43.3125 13.8124 43.4393 13.5868 43.6649C13.3611 43.8905 13.2344 44.1965 13.2344 44.5156V51.7344C13.2344 52.0535 13.3611 52.3595 13.5868 52.5851C13.8124 52.8107 14.1184 52.9375 14.4375 52.9375H21.6562C21.9753 52.9375 22.2814 52.8107 22.507 52.5851C22.7326 52.3595 22.8594 52.0535 22.8594 51.7344V44.5156C22.8594 44.1965 22.7326 43.8905 22.507 43.6649C22.2814 43.4393 21.9753 43.3125 21.6562 43.3125ZM20.4531 50.5312H15.6406V45.7188H20.4531V50.5312Z" fill="url(#paint7_linear_188:2550)"/>
<path d="M21.6562 55.3438H14.4375C14.1184 55.3438 13.8124 55.4705 13.5868 55.6961C13.3611 55.9218 13.2344 56.2278 13.2344 56.5469V63.7656C13.2344 64.0847 13.3611 64.3907 13.5868 64.6164C13.8124 64.842 14.1184 64.9688 14.4375 64.9688H21.6562C21.9753 64.9688 22.2814 64.842 22.507 64.6164C22.7326 64.3907 22.8594 64.0847 22.8594 63.7656V56.5469C22.8594 56.2278 22.7326 55.9218 22.507 55.6961C22.2814 55.4705 21.9753 55.3438 21.6562 55.3438ZM20.4531 62.5625H15.6406V57.75H20.4531V62.5625Z" fill="url(#paint8_linear_188:2550)"/>
<defs>
<linearGradient id="paint0_linear_188:2550" x1="2.40625" y1="74.5938" x2="76.9948" y2="72.0212" gradientUnits="userSpaceOnUse">
<stop stop-color="#50ADA8"/>
<stop offset="1" stop-color="#77C2BE"/>
</linearGradient>
<linearGradient id="paint1_linear_188:2550" x1="33.6875" y1="69.7813" x2="70.9031" y2="67.642" gradientUnits="userSpaceOnUse">
<stop stop-color="#50ADA8"/>
<stop offset="1" stop-color="#77C2BE"/>
</linearGradient>
<linearGradient id="paint2_linear_188:2550" x1="26.4688" y1="14.4375" x2="33.9276" y2="14.1802" gradientUnits="userSpaceOnUse">
<stop stop-color="#50ADA8"/>
<stop offset="1" stop-color="#77C2BE"/>
</linearGradient>
<linearGradient id="paint3_linear_188:2550" x1="13.2344" y1="28.875" x2="23.1795" y2="28.532" gradientUnits="userSpaceOnUse">
<stop stop-color="#50ADA8"/>
<stop offset="1" stop-color="#77C2BE"/>
</linearGradient>
<linearGradient id="paint4_linear_188:2550" x1="25.2656" y1="28.875" x2="35.2108" y2="28.532" gradientUnits="userSpaceOnUse">
<stop stop-color="#50ADA8"/>
<stop offset="1" stop-color="#77C2BE"/>
</linearGradient>
<linearGradient id="paint5_linear_188:2550" x1="37.2969" y1="28.875" x2="47.242" y2="28.532" gradientUnits="userSpaceOnUse">
<stop stop-color="#50ADA8"/>
<stop offset="1" stop-color="#77C2BE"/>
</linearGradient>
<linearGradient id="paint6_linear_188:2550" x1="13.2344" y1="40.9063" x2="23.1795" y2="40.5632" gradientUnits="userSpaceOnUse">
<stop stop-color="#50ADA8"/>
<stop offset="1" stop-color="#77C2BE"/>
</linearGradient>
<linearGradient id="paint7_linear_188:2550" x1="13.2344" y1="52.9375" x2="23.1795" y2="52.5945" gradientUnits="userSpaceOnUse">
<stop stop-color="#50ADA8"/>
<stop offset="1" stop-color="#77C2BE"/>
</linearGradient>
<linearGradient id="paint8_linear_188:2550" x1="13.2344" y1="64.9688" x2="23.1795" y2="64.6257" gradientUnits="userSpaceOnUse">
<stop stop-color="#50ADA8"/>
<stop offset="1" stop-color="#77C2BE"/>
</linearGradient>
</defs>
</svg>
