<svg width="131" height="177" viewBox="0 0 131 177" fill="none" xmlns="http://www.w3.org/2000/svg">
<path d="M7.33026 36.0063C8.73543 34.7409 10.6981 32.8991 12.9726 30.657C15.2471 28.4149 17.8116 25.8005 20.4656 22.9325C21.7813 21.5115 23.1422 20.0249 24.4579 18.4933C25.1266 17.7163 25.7962 16.9392 26.446 16.1181C26.7577 15.7188 27.093 15.297 27.4047 14.8312C27.6378 14.5108 27.8396 14.169 28.0075 13.8104C28.0883 13.602 28.1488 13.3864 28.1882 13.1665V11.3687C28.1659 11.0879 28.1659 10.8059 28.1882 10.5251C28.1991 10.0026 28.2596 9.48222 28.3689 8.97102C28.6076 8.10938 29.0511 7.31755 29.662 6.6624C30.205 5.99898 30.8835 5.458 31.6525 5.07534C32.4214 4.69268 33.2634 4.47707 34.1224 4.44281C35.4722 4.46292 36.773 4.94934 37.8021 5.81881C38.5423 6.42459 39.1432 7.18152 39.5642 8.0384C40.0793 9.03526 40.2441 10.1751 40.0322 11.2761C39.8058 12.477 39.259 13.5953 38.4491 14.5137C38.0397 14.9644 37.5663 15.3531 37.0439 15.6676C36.9202 15.7583 36.7854 15.8329 36.6427 15.8897H36.3083C35.7285 16.0842 35.2025 16.411 34.7721 16.8439C34.3772 17.2942 34.1489 17.8655 34.1251 18.4627V20.0168C34.1251 20.7714 34.2589 21.5457 34.3257 22.2364C34.9221 27.7899 35.9511 33.2889 37.4036 38.6837C37.9643 40.8518 38.7104 42.9682 39.6337 45.0097C40.4043 46.5488 41.4998 47.9042 42.8453 48.983C43.6871 49.7215 44.5653 50.4179 45.4767 51.0695L46.4581 51.7134C47.0156 52.1128 47.5506 52.1793 47.9943 51.3582C48.0019 51.3066 48.0019 51.2542 47.9943 51.2026C47.9907 51.0717 47.9567 50.9434 47.8947 50.8279C47.8328 50.7124 47.7446 50.6129 47.6373 50.5371C46.0071 49.3898 44.511 48.0646 43.1769 46.5863C42.8801 46.2562 42.6046 45.9077 42.3519 45.543C42.2892 45.469 42.2366 45.3871 42.1956 45.2993L42.0618 45.0996L41.7718 44.4557C41.3729 43.5377 41.0304 42.5965 40.7461 41.6371C39.6025 37.56 38.8041 33.3946 38.3596 29.1848C38.122 27.0587 37.9361 24.9272 37.8021 22.7922C37.8021 21.7265 37.6909 20.5726 37.6683 19.5959V19.7515C39.011 19.2771 40.2419 18.5342 41.2852 17.5684C42.3285 16.6027 43.162 15.4345 43.7345 14.136C44.3404 12.8503 44.6601 11.4496 44.6716 10.0296C44.6932 8.57986 44.3804 7.14455 43.7571 5.8341C42.6201 3.54288 40.6969 1.73217 38.3352 0.729397C37.0822 0.218312 35.7364 -0.0291032 34.3827 0.00272348C33.097 0.013699 31.8254 0.270472 30.6371 0.759075C28.3183 1.72631 26.4262 3.49076 25.3056 5.73067C24.7514 6.85538 24.4256 8.07785 24.3468 9.32806C24.3027 9.89681 24.3027 10.4681 24.3468 11.0368V12.3903C24.3626 12.4253 24.3708 12.4631 24.3708 12.5014C24.3708 12.5397 24.3626 12.5776 24.3468 12.6125L24.2356 12.7924L23.9646 13.1917C23.6302 13.7241 23.229 14.2574 22.8269 14.8105C22.0235 15.8978 21.1768 17.0301 20.3292 18.0481C18.6123 20.2677 16.8502 22.3102 15.0655 24.3966C11.4753 28.5696 7.81733 32.7426 3.91449 36.5378C3.65591 36.7482 3.44191 37.0075 3.28492 37.3009C3.12793 37.5942 3.03108 37.9157 3 38.2466C3 38.6684 3.6687 38.779 5.05218 37.8689C5.88065 37.3368 6.64502 36.7119 7.33026 36.0063Z" fill="#FAFAFA"/>
<path d="M31.956 59.6699C32.9009 64.7057 33.9563 69.2047 34.813 72.4277C35.253 74.0392 35.6261 75.3152 35.912 76.1876C36.1979 77.06 36.3956 77.508 36.3956 77.508C36.5274 77.9107 36.7038 78.0902 36.9674 77.956C37.0109 77.8254 37.0109 77.6839 36.9674 77.5534C36.6164 76.5341 36.3229 75.4953 36.0884 74.4419C35.8247 73.3537 35.5831 72.2569 35.3634 71.1518C34.9015 68.9148 34.4838 66.6779 34.1103 64.4409C33.3631 59.9646 32.7032 55.4883 32.1982 51.012C31.6932 46.5357 31.3192 42.0594 31.1429 37.5831V30.8723C31.2058 28.6655 31.4264 26.4663 31.8028 24.2921C31.8318 23.6274 31.638 22.9725 31.2533 22.4348C30.8792 21.8979 30.3297 21.6966 29.7589 22.793C29.6606 22.971 29.5798 23.1584 29.5175 23.3525C29.3276 23.9011 29.1735 24.4619 29.0562 25.0312C28.9813 26.5223 28.9813 28.0163 29.0562 29.5075C28.8851 39.6415 29.8581 49.762 31.956 59.6699Z" fill="#FAFAFA"/>
<path d="M33 11C34.1046 11 35 10.3284 35 9.5C35 8.67157 34.1046 8 33 8C31.8954 8 31 8.67157 31 9.5C31 10.3284 31.8954 11 33 11Z" fill="#FAFAFA"/>
<path d="M16.8159 62.7496C17.6909 62.4909 18.5361 62.1362 19.3372 61.6919C20.1179 61.2187 20.8522 60.669 21.5297 60.0505C22.1579 59.4157 22.7168 58.7125 23.1963 57.9532C24.1231 56.4731 24.7081 54.7951 24.9065 53.0474C25.1154 51.4077 24.9732 49.7409 24.4898 48.1634C24.1043 47.4939 23.672 46.8539 23.1963 46.2485L21.8806 44.4704C20.2873 42.4069 18.8227 40.2421 17.4955 37.9888C16.6002 36.4521 15.8653 34.8227 15.303 33.1277C15.1058 32.5204 15.0178 32.0025 14.9299 31.6687C14.914 31.5416 14.914 31.4129 14.9299 31.2857V31.0806C14.9299 30.4733 14.7984 30 14.491 30C14.4449 30.2452 14.4449 30.4971 14.491 30.7423C14.6379 32.3797 15.0377 33.9827 15.6752 35.4913C16.2502 36.934 16.9244 38.333 17.6928 39.6776C19.2121 42.2964 20.8586 44.8352 22.626 47.2844L23.1963 48.1625L23.3278 48.365C23.3318 48.4099 23.3318 48.455 23.3278 48.4999V48.747C23.4607 49.408 23.5412 50.0789 23.5686 50.7531C23.6118 52.0905 23.4186 53.4248 22.9982 54.6915C22.5545 55.9393 21.8766 57.0856 21.0029 58.0654C20.1254 59.0237 19.0676 59.7893 17.8935 60.3159C16.7264 60.8577 15.4542 61.1191 14.1738 61.0801C12.8934 61.0411 11.6385 60.7027 10.5048 60.0906C9.34074 59.4688 8.28908 58.6469 7.39543 57.6605L6.73802 56.8727C6.73769 56.8347 6.72432 56.7981 6.70027 56.7692C6.67622 56.7404 6.64303 56.7211 6.60654 56.7149V56.5572C6.53804 56.4501 6.47859 56.3372 6.42886 56.2198C6.22508 55.6654 6.11395 55.0796 6.10016 54.4872V53.5872C6.08868 53.4148 6.08868 53.2417 6.10016 53.0693V52.6188C6.20416 51.9668 6.36562 51.3259 6.58255 50.7039C7.0906 49.3527 7.66888 48.0304 8.31491 46.7428C8.97232 45.4379 9.65194 44.0874 10.3102 42.7141C11.0068 41.2677 11.579 39.7617 12.0204 38.2132C12.1309 37.755 12.1309 37.2762 12.0204 36.818C11.9633 36.5704 11.8826 36.3291 11.7796 36.0976C11.6843 35.8983 11.5583 35.7161 11.4065 35.5578C11.1287 35.2575 10.8655 35.19 10.6167 35.3554C10.483 35.443 10.3763 35.5679 10.3093 35.7156C10.2483 35.9613 10.1522 36.1963 10.0242 36.4131V36.5709C10.0302 36.7422 9.97564 36.91 9.87049 37.0432L9.58531 37.8083L9.14645 38.8889C8.57653 40.7071 7.918 42.4948 7.17333 44.2452C6.58167 45.3932 5.96779 46.6078 5.37523 47.9838C4.68607 49.4456 4.22729 51.0103 4.016 52.6197C3.99485 53.0395 3.99485 53.4601 4.016 53.8799C3.99467 54.3146 3.99467 54.7501 4.016 55.1848C4.09567 56.1504 4.4123 57.0796 4.93637 57.8857C5.07276 58.0739 5.21927 58.2542 5.37523 58.4256L5.8141 58.9207C6.11187 59.2527 6.42651 59.5683 6.75668 59.8663L7.78721 60.7444C8.14653 61.0127 8.51992 61.2605 8.90569 61.4867C9.69788 61.9456 10.5361 62.3152 11.4056 62.5891C12.2905 62.8462 13.2045 62.9823 14.1241 62.994C15.0277 63.0239 15.9315 62.9418 16.8159 62.7496ZM23.39 48.572L23.7187 48.4598H24.0696C23.6965 48.4826 25.0566 48.1671 23.3243 48.572H23.39Z" fill="#FAFAFA"/>
<path d="M10.5658 24.3944C10.5658 24.6867 12.5748 24.7769 12.8752 23.9901C12.9414 23.7775 12.9414 23.5506 12.8752 23.338C12.8752 23.0457 12.2052 22.7315 12.1827 22.349C12.0664 21.5958 12.1304 20.8266 12.3699 20.1015C12.5776 19.495 12.9014 18.8201 13.1549 18.0788C13.6697 19.3646 13.8522 20.7537 13.6864 22.1241C13.6108 22.7376 13.4636 23.3407 13.2476 23.9218C13.1744 24.1539 13.0805 24.3794 12.9669 24.5957C12.9624 24.6727 12.9771 24.7497 13.0097 24.8201C13.0423 24.8905 13.0918 24.9522 13.154 25H13.3617C14.2478 23.7522 14.7951 22.3065 14.9527 20.7975C15.1102 19.2885 14.8729 17.7652 14.2629 16.3695L12.8078 13L11.7223 16.4833C11.422 17.4277 10.6135 18.4613 10.1054 19.9667C9.96487 20.687 9.96487 21.4266 10.1054 22.1468C10.1804 22.9094 10.3353 23.6625 10.5676 24.3944H10.5658Z" fill="#FAFAFA"/>
<path d="M6.51123 28.9951C7.03798 29.0178 7.56514 28.9621 8.07757 28.8297C8.26639 28.7746 8.45084 28.7036 8.62919 28.6174C8.7615 28.6174 8.85001 28.4998 8.7615 28.1929C8.73335 28.1795 8.70289 28.1726 8.6721 28.1726C8.64131 28.1726 8.61085 28.1795 8.5827 28.1929C7.53774 28.449 6.4427 28.3245 5.47147 27.8391C4.97406 27.5892 4.51329 27.2632 4.1036 26.8714L3.79427 26.5846L3.59579 26.3484C4.16854 26.2992 4.74405 26.2992 5.3168 26.3484C6.32114 26.4604 7.26505 26.9154 8.00873 27.6459C8.36148 27.6387 8.71115 27.5742 9.0458 27.4547C9.53126 27.2635 10.0605 26.9824 9.99437 26.3216C9.99854 26.2273 9.99854 26.1317 9.99437 26.0348C9.89711 25.7604 9.74659 25.5111 9.55272 25.3033C9.2889 25.0834 8.9779 24.9375 8.64796 24.8788C8.30157 24.8342 7.96111 24.7472 7.63324 24.6197C6.74571 24.2214 5.79383 24.0128 4.83134 24.0058H3.15414C2.37964 23.9824 1.60468 24.0297 0.837707 24.1473C0.66638 24.4185 0.40706 24.612 0.109966 24.6904H0C0.183361 24.7286 0.356691 24.8092 0.50781 24.9266C0.901699 25.2409 1.25101 25.6145 1.54489 26.0358C1.82557 26.2502 2.09093 26.4867 2.33878 26.7433C2.53303 26.9535 2.73936 27.1506 2.95656 27.3333C3.35405 27.6634 3.78286 27.948 4.23592 28.1823C4.9416 28.5952 5.71173 28.867 6.50854 28.9846L6.51123 28.9951Z" fill="#FAFAFA"/>
<path d="M118.984 133.272C118.735 133.066 118.436 132.928 118.118 132.873C101.195 129.977 83.9926 129.054 66.8566 130.122H65.39C65.1199 128.88 64.857 127.637 64.6346 126.394C64.1001 123.555 63.6629 120.698 63.3238 117.829C63.168 116.475 63.0798 114.989 62.9907 113.547C62.9015 112.104 62.8349 110.64 62.7908 109.109C62.5909 103.295 62.5684 97.3703 62.5207 91.4867C62.5207 88.5574 62.5207 85.6732 62.7431 82.788C62.8435 80.7299 63.0511 78.6784 63.3652 76.6419C64.9857 76.3308 66.8314 76.0206 68.677 75.7985C71.0547 75.4659 73.2767 74.8887 75.1656 74.7556H75.6319C77.0319 76.2643 78.4535 77.7729 79.8985 79.1935C83.6382 82.9424 87.5532 86.5128 91.6304 89.8926L97.6742 94.9077L93.7632 88.1178C91.2082 83.6799 88.4973 79.242 85.6974 75.0038L87.697 76.7345C90.796 79.3269 93.5445 82.3104 95.8736 85.6102L101.762 94.3754L98.0973 84.4738C96.5654 80.4861 94.4623 76.7413 91.8537 73.3566C93.4742 74.6657 95.0048 75.8642 96.4309 76.953C98.4115 78.4616 100.212 79.7707 101.897 80.9467L103.163 81.8125L104.497 82.6109C105.082 82.9311 105.691 83.2056 106.319 83.4318C106.866 83.5926 107.423 83.7187 107.985 83.8094H109.186C109.297 83.8094 109.565 83.92 109.431 83.8094L108.853 82.3708L108.564 81.683C108.564 81.4394 108.32 81.1724 108.186 80.9287L107.431 79.4641L107.231 79.109L107.075 78.8392L106.786 78.307L106.187 77.2416C105.764 76.5538 105.387 75.8435 104.942 75.1332C103.075 72.0036 101.065 68.9604 98.9211 66.0129C98.3881 65.2586 97.1439 63.5944 95.5657 61.575L94.3439 60.0664L93.0106 58.5379L91.6331 57.0293L90.3664 55.7202V55.6132C94.4997 56.7452 98.1432 58.0318 100.99 59.0297L107.367 61.3817C107.878 61.6254 108.3 61.6703 108.545 61.112V61.0014C108.505 60.8924 108.443 60.7927 108.362 60.7087C108.282 60.6247 108.185 60.5582 108.078 60.5132C102.923 58.0947 97.6796 55.6582 92.1913 53.6568L89.9693 52.88C89.839 51.7514 89.676 50.6267 89.4805 49.5075C89.4471 49.1381 89.3725 48.7735 89.2581 48.4206V47.9548C89.1894 47.7656 89.0835 47.5919 88.9466 47.4442V47.3327C88.6669 47.1479 88.3466 47.0338 88.013 47C87.7372 47.0033 87.4679 47.0841 87.236 47.2333C87.0041 47.3825 86.8191 47.5939 86.7021 47.8433C86.6174 48.0254 86.5647 48.2207 86.5464 48.4206V48.5311C86.5298 48.6266 86.5298 48.7243 86.5464 48.8197V49.441C86.6571 50.2178 86.7903 50.9946 86.9236 51.8155V51.9486C83.0638 50.8311 79.1051 50.088 75.1025 49.7296C63.1484 48.6669 51.1516 51.2347 40.6837 57.0967C40.3216 57.4561 40.0439 57.8914 39.871 58.3711C39.698 58.8508 39.6339 59.3629 39.6835 59.8704C39.668 60.1536 39.7175 60.4366 39.8282 60.6978C39.9389 60.9591 40.1078 61.1916 40.3221 61.3778C40.5364 61.5639 40.7904 61.6988 41.0648 61.7721C41.3392 61.8454 41.6267 61.8552 41.9054 61.8007L42.6167 61.6452C43.2662 61.4616 43.9041 61.2394 44.5271 60.9799C45.2592 60.5681 45.9382 60.0687 46.5492 59.4928C47.2669 58.852 48.0758 58.3212 48.9494 57.9176C51.4298 56.9445 53.9588 56.1 56.5264 55.3876C59.5206 54.5588 62.5732 53.9577 65.6583 53.5894C68.9449 53.1846 72.26 53.0583 75.568 53.2118C78.8491 53.3761 82.1115 53.8064 85.3228 54.4984L87.5448 55.009L87.7888 55.963L87.9887 56.6508C88.024 56.8428 88.0845 57.0293 88.1687 57.2055V57.4276L88.3488 57.6272L88.5928 57.8708L88.7485 57.9814L89.0186 58.2251L89.5516 58.6692L90.5068 59.5791C93.4798 62.4905 96.2212 65.6288 98.7059 68.9655C100.173 70.9435 101.662 73.1148 103.15 75.4227C104.374 77.359 105.494 79.359 106.505 81.4142L106.685 81.7918H106.33C106.051 81.7327 105.782 81.6356 105.529 81.5032H105.349L105.079 81.3234L104.191 80.7687L102.435 79.5037C100.08 77.4843 97.8578 75.6871 95.6359 73.9123C91.5805 70.6195 87.6946 67.1239 83.9931 63.4388L80.5719 60.0439L82.2159 64.4818C83.0204 66.4767 84.2311 68.2831 85.7712 69.7864C87.0379 71.1179 87.9932 72.249 88.9223 73.3144C90.0802 74.7145 91.1334 76.1978 92.0734 77.7523C92.0734 77.9321 92.3182 78.1074 92.429 78.307C91.8069 77.7082 91.1622 77.0869 90.496 76.4872C88.9187 75.0487 87.1649 73.5805 85.3192 72.0494L75.965 64.2192C74.9873 63.4209 74.854 63.5539 75.5653 64.5519C77.4757 67.1925 81.0572 72.1627 81.5424 72.8954C84.942 77.8655 88.2047 82.7035 90.9858 87.3185C88.2308 85.0846 85.7052 82.8668 83.4088 80.6653C80.7421 78.1353 79.1872 76.4495 77.9871 75.0955H79.0981C79.6536 75.0955 80.2982 73.6084 79.0981 73.2541H76.3251L74.1032 70.6135C73.6368 70.0813 73.148 69.5041 72.5258 68.8603C71.7997 68.0987 70.9781 67.4339 70.0815 66.8823C69.4953 66.5382 68.8285 66.3546 68.1485 66.3501C67.9287 66.3376 67.7086 66.3707 67.5021 66.4471C67.2956 66.5235 67.1071 66.6417 66.9484 66.7942C66.7684 66.9938 66.9484 67.2159 67.2185 67.393C67.4886 67.5701 68.1071 67.7922 68.9741 68.3694C70.9176 69.785 72.6529 71.4655 74.1293 73.362C72.9958 73.362 71.7516 73.4951 70.4848 73.6057C68.2629 73.7855 65.8635 74.1164 63.8225 74.4265C63.6502 73.599 63.2587 72.8328 62.6891 72.2076C61.9562 71.3643 60.8668 70.7871 59.7559 72.2076C59.567 72.4333 59.4031 72.6786 59.267 72.9395C58.8686 73.6367 58.5623 74.3826 58.3559 75.1584V75.6466C57.4681 75.8423 56.5863 76.0642 55.7117 76.3119C55.4659 75.6882 55.1528 75.0931 54.778 74.5371C54.5127 74.0682 54.0983 73.7012 53.6004 73.4942C53.2758 73.42 52.9363 73.4461 52.6268 73.5689C52.3173 73.6917 52.0525 73.9055 51.8673 74.182C51.6561 74.4132 51.4699 74.666 51.3118 74.9363C50.8849 75.6719 50.5634 76.4636 50.3566 77.2883C50.3226 77.5832 50.3226 77.8809 50.3566 78.1757L49.2672 78.5749C48.556 78.797 47.8006 78.9741 46.8454 79.1737C46.3124 79.2843 43.824 79.706 42.9795 80.017C41.7127 80.5277 40.9349 81.5257 41.2239 82.236C41.5129 82.9463 42.7796 83.1459 44.0013 82.6577C44.5029 82.3744 44.9786 82.0476 45.4229 81.6813C47.0396 80.9092 48.7197 80.2775 50.4448 79.7932C50.6385 80.9287 50.713 82.0812 50.6672 83.2322C49.8061 96.2358 49.8061 109.282 50.6672 122.286C50.8671 125.658 51.0895 128.939 51.356 131.739C48.0896 132.183 44.6937 132.671 41.5345 133.247L38.3834 133.824L35.2323 134.468C33.1436 134.89 31.0549 135.334 28.9446 135.844C24.5888 136.775 20.3383 138.143 16.2574 139.927C15.6814 140.277 15.1859 140.745 14.803 141.299C14.4202 141.853 14.1586 142.482 14.0354 143.144C13.8356 144.409 14.4577 145.363 16.5023 144.964L17.5241 144.72C18.1904 144.541 19.124 144.232 20.3457 143.811C22.6799 142.55 25.0919 141.439 27.5671 140.484C29.4268 140.013 31.2933 139.569 33.1661 139.152L39.4323 137.821C41.6542 137.399 43.8762 136.911 46.0946 136.534L49.6274 135.891L51.4712 135.602C51.6044 136.822 51.7602 137.821 51.9151 138.974C52.2266 141.083 52.5597 142.769 52.8262 143.878C52.9819 144.41 53.0963 144.877 53.1818 145.121L53.3375 145.52C53.4708 145.964 53.6932 146.141 54.2487 145.875C54.2983 145.822 54.3343 145.759 54.3536 145.689C54.3729 145.619 54.3749 145.546 54.3594 145.476C54.3213 145.201 54.2465 144.932 54.137 144.676L53.957 143.744C53.957 143.079 53.7571 142.391 53.6869 141.702C53.5311 140.327 53.4429 138.885 53.3537 137.464V135.245C56.9363 134.701 60.5292 134.227 64.1305 133.824C64.4636 134.89 64.8192 135.866 65.1307 136.754C65.6858 138.335 66.3312 139.883 67.0637 141.391C67.3338 141.923 67.5525 142.279 67.7083 142.545C67.7653 142.673 67.8401 142.793 67.9307 142.9C68.1755 143.322 68.4636 143.565 68.975 143.233C69.0136 143.145 69.0336 143.051 69.0336 142.955C69.0336 142.86 69.0136 142.765 68.975 142.678C68.3637 141.53 67.865 140.325 67.4859 139.081C67.0195 137.75 66.6414 136.374 66.2858 134.999L65.9527 133.712L67.9973 133.513C70.4857 133.243 72.9967 133.091 75.441 132.914L79.1323 132.714C80.3324 132.714 81.5316 132.581 82.7336 132.559C90.8829 132.283 99.0412 132.431 107.175 133.003C108.752 133.003 110.152 133.246 111.397 133.335C112.641 133.424 113.619 133.535 114.574 133.646L117.285 133.935C118.107 134.068 118.725 134.046 118.815 133.447C118.984 133.45 119.029 133.272 118.984 133.272ZM53.4132 131.387V128.769C53.4132 122.955 53.4132 117.12 53.5689 111.284C53.7247 105.448 53.9687 99.6117 54.2802 93.7982C54.4359 90.869 54.6133 87.9622 54.8357 85.0771C54.9464 83.6385 55.058 82.1928 55.2138 80.7723C55.2437 80.0255 55.3404 79.2829 55.5028 78.5533L58.436 77.9545C58.5935 78.9956 58.6538 80.0491 58.6161 81.1013C58.2312 87.2953 58.2757 93.5084 58.7493 99.6962C58.9294 103.158 59.149 106.709 59.4822 110.215C59.77 113.662 60.2373 117.091 60.8821 120.489C61.615 124.061 62.4595 127.412 63.304 130.385C59.9233 130.677 56.6579 131.054 53.4132 131.386V131.387Z" fill="#FAFAFA"/>
<path d="M7.74862 161.558V161.993H5.11589V170.699C5.08525 171.021 5.17121 171.343 5.35916 171.611C5.45401 171.707 5.56982 171.781 5.69811 171.828C5.82641 171.875 5.96395 171.894 6.10069 171.883C6.7404 171.883 7.23865 171.448 7.61617 170.579L8 170.782C7.81932 171.429 7.41836 171.999 6.8616 172.399C6.30484 172.8 5.62461 173.008 4.93029 172.991C4.52518 173.022 4.1178 172.974 3.73228 172.85C3.34677 172.726 2.99094 172.528 2.68589 172.269C2.36581 171.959 2.14393 171.567 2.04618 171.139C1.92269 170.53 1.86682 169.91 1.87949 169.289V161.987H0V161.552H1.88039V158.695C2.98886 158.716 4.08604 158.478 5.07805 158V161.564L7.74862 161.558Z" fill="#FAFAFA"/>
<path d="M14.7391 161.952C14.5618 161.767 14.344 161.623 14.1022 161.532C13.8603 161.441 13.6006 161.404 13.3424 161.425C13.0421 161.426 12.7436 161.471 12.4568 161.559C12.1863 161.637 11.9382 161.776 11.7324 161.965C12.1157 162.079 12.4571 162.3 12.7155 162.6C12.9558 162.917 13.0789 163.304 13.0645 163.699C13.0814 163.989 13.0117 164.279 12.864 164.531C12.7094 164.781 12.4848 164.981 12.2171 165.109C11.92 165.253 11.5918 165.325 11.2604 165.318C11.0362 165.332 10.8117 165.295 10.6043 165.21C10.3969 165.126 10.2121 164.995 10.0641 164.829C9.76745 164.489 9.61256 164.051 9.63043 163.603C9.64521 163.204 9.77439 162.817 10.0031 162.487C10.2318 162.157 10.5508 161.897 10.9233 161.737C11.9831 161.223 13.1564 160.977 14.3373 161.021C14.9279 160.964 15.5241 161.023 16.0913 161.194C16.6585 161.365 17.1856 161.645 17.642 162.018C17.9662 162.337 18.1907 162.74 18.2889 163.181C18.4167 163.821 18.4732 164.472 18.4575 165.124V171.17C18.441 171.431 18.4763 171.692 18.5613 171.939C18.5925 172.007 18.6438 172.065 18.7088 172.105C18.7738 172.144 18.8494 172.164 18.9258 172.161C19.242 172.131 19.5384 171.996 19.7668 171.78L20 172.161C19.6689 172.44 19.2872 172.656 18.8748 172.796C18.4025 172.937 17.9104 173.004 17.4169 172.993C17.1175 173.017 16.8162 172.981 16.5309 172.889C16.2455 172.797 15.9817 172.65 15.755 172.456C15.5874 172.289 15.4557 172.09 15.3679 171.872C15.2801 171.654 15.2379 171.421 15.2439 171.186C14.9021 171.764 14.3995 172.233 13.7952 172.539C13.1952 172.841 12.5294 172.994 11.8554 172.987C11.1034 173.025 10.3637 172.787 9.77986 172.32C9.51791 172.086 9.31234 171.797 9.17807 171.475C9.0438 171.153 8.98419 170.806 9.00358 170.459C8.99401 170.107 9.05731 169.756 9.18964 169.429C9.32198 169.101 9.5206 168.804 9.77348 168.554C10.4761 167.917 11.3097 167.436 12.218 167.144L13.356 166.738C13.8639 166.571 14.3386 166.32 14.7592 165.995C14.8885 165.894 14.9942 165.767 15.069 165.622C15.1439 165.477 15.1861 165.319 15.1929 165.156V163.406C15.2192 162.884 15.0587 162.37 14.7391 161.952ZM14.7391 166.537C14.439 166.766 14.126 166.978 13.8016 167.172C13.3577 167.463 12.9755 167.835 12.6763 168.268C12.3927 168.726 12.2511 169.254 12.2691 169.79C12.2395 170.245 12.3772 170.695 12.6572 171.059C12.7833 171.201 12.9398 171.313 13.1153 171.387C13.2908 171.462 13.481 171.498 13.6722 171.491C13.9865 171.479 14.2924 171.389 14.5615 171.229C14.8306 171.069 15.0541 170.845 15.2111 170.577V166.049C15.079 166.24 14.9126 166.405 14.72 166.538L14.7391 166.537Z" fill="#FAFAFA"/>
<path d="M27.7374 161.558V161.993H25.101V170.7C25.0685 171.021 25.1521 171.344 25.3375 171.612C25.4349 171.71 25.5539 171.785 25.6855 171.832C25.8171 171.879 25.958 171.897 26.0976 171.884C26.7362 171.884 27.2399 171.449 27.6168 170.58L28 170.783C27.8164 171.431 27.4136 172 26.8558 172.401C26.298 172.801 25.6175 173.009 24.9229 172.992C24.5185 173.021 24.1123 172.971 23.7284 172.845C23.3445 172.718 22.9909 172.519 22.6886 172.257C22.368 171.95 22.1462 171.56 22.0499 171.134C21.9209 170.525 21.863 169.905 21.8772 169.283V161.996H20V161.562H21.8772V158.695C22.9837 158.715 24.0787 158.477 25.0695 158V161.564L27.7374 161.558Z" fill="#FAFAFA"/>
<path d="M29.611 171.431C29.8418 171.776 30.1662 172.058 30.5511 172.247C30.9361 172.437 31.3679 172.527 31.8024 172.51C32.2335 172.519 32.6532 172.38 32.9822 172.119C33.1534 171.969 33.2864 171.786 33.3716 171.582C33.4567 171.377 33.4918 171.158 33.4743 170.939C33.4687 170.556 33.3571 170.18 33.1504 169.848C32.9531 169.527 32.7024 169.237 32.4075 168.989C31.9717 168.629 31.5221 168.284 31.0596 167.955C30.3314 167.399 29.7852 166.964 29.421 166.649C29.0438 166.322 28.725 165.941 28.4769 165.52C28.2129 165.065 28.0781 164.555 28.0855 164.038C28.0729 163.449 28.2671 162.873 28.6383 162.398C29.0206 161.927 29.5367 161.566 30.1278 161.356C30.7702 161.114 31.4575 160.993 32.1501 161C32.7086 160.995 33.2649 161.065 33.802 161.208C34.2173 161.307 34.6133 161.466 34.9751 161.681C35.0947 161.77 35.2405 161.823 35.3931 161.832C35.6828 161.832 35.868 161.561 35.9459 161.025H36.4646C36.3971 161.763 36.3696 163.056 36.3696 164.905H35.8433C35.7441 164.037 35.4278 163.202 34.92 162.47C34.6906 162.151 34.3771 161.892 34.0099 161.72C33.6426 161.548 33.234 161.467 32.8236 161.486C32.4019 161.471 31.99 161.606 31.6704 161.864C31.5215 161.999 31.4058 162.162 31.3313 162.343C31.2569 162.524 31.2254 162.718 31.2392 162.911C31.2447 163.384 31.4451 163.836 31.7987 164.173C32.1872 164.556 32.6176 164.901 33.0829 165.201C33.5816 165.535 33.9454 165.781 34.1753 165.945C34.7112 166.315 35.2265 166.711 35.7189 167.131C36.0909 167.464 36.4027 167.852 36.6422 168.279C36.8875 168.737 37.0101 169.244 36.9993 169.756C37.0094 170.373 36.7954 170.976 36.3924 171.465C35.9726 171.979 35.411 172.376 34.768 172.613C34.0402 172.887 33.2601 173.018 32.4759 172.998C31.7182 173.016 30.9674 172.858 30.2912 172.538C29.9319 172.363 29.5628 172.208 29.1855 172.071H29.0639C28.8141 172.071 28.6326 172.338 28.511 172.859H28C28.0633 172.019 28.0925 170.547 28.0874 168.444H28.6079C28.6881 169.499 29.0317 170.522 29.611 171.431Z" fill="#FAFAFA"/>
<path d="M49.8712 171.766C50.0066 171.927 50.1803 172.052 50.3772 172.131C50.5741 172.211 50.788 172.242 51 172.222V172.69C50.5321 172.646 50.0624 172.625 49.5924 172.626C48.4788 172.604 47.3662 172.708 46.2773 172.936V170.937C45.9526 171.6 45.4291 172.151 44.7762 172.517C44.1234 172.883 43.3719 173.047 42.6212 172.987C42.1705 173.028 41.7161 172.972 41.2898 172.823C40.8635 172.675 40.4757 172.437 40.1534 172.127C39.8804 171.814 39.695 171.437 39.6151 171.033C39.4933 170.446 39.439 169.848 39.4533 169.25V163.651C39.4917 163.137 39.3791 162.624 39.1288 162.17C38.9942 162.009 38.8207 161.882 38.6238 161.801C38.4269 161.721 38.2126 161.689 38 161.709V161.241C38.4799 161.285 38.9533 161.304 39.4076 161.304C40.5208 161.324 41.6328 161.222 42.7227 161V170.172C42.6909 170.651 42.7873 171.129 43.0024 171.561C43.1189 171.728 43.2804 171.861 43.4692 171.945C43.6581 172.028 43.8668 172.06 44.0727 172.035C44.4679 172.036 44.8535 171.917 45.1759 171.694C45.5213 171.454 45.7979 171.133 45.9793 170.759C46.1791 170.353 46.281 169.907 46.2773 169.456V163.651C46.3174 163.136 46.2024 162.622 45.9464 162.17C45.8182 162.011 45.6516 161.886 45.4614 161.805C45.2712 161.725 45.0635 161.692 44.8569 161.709V161.241C45.3368 161.285 45.8038 161.304 46.2645 161.304C47.379 161.324 48.4922 161.222 49.5833 161V170.28C49.5332 170.792 49.633 171.307 49.8712 171.766Z" fill="#FAFAFA"/>
<path d="M58.0492 161.568C58.5905 161.184 59.2452 160.984 59.9128 161.001C60.3227 160.989 60.7277 161.092 61.0803 161.297C61.3809 161.484 61.6218 161.75 61.7755 162.066C61.9257 162.383 62.0018 162.729 61.9982 163.079C62.0197 163.579 61.8435 164.068 61.5065 164.443C61.341 164.621 61.1377 164.762 60.9108 164.855C60.684 164.947 60.4392 164.99 60.1938 164.979C59.7455 165.001 59.3044 164.861 58.9542 164.585C58.8043 164.453 58.6859 164.291 58.6076 164.109C58.5293 163.927 58.493 163.73 58.5013 163.533C58.5007 163.177 58.5934 162.828 58.7704 162.518C58.9474 162.208 59.2027 161.948 59.5116 161.764C59.419 161.744 59.3245 161.733 59.2297 161.732C59.1073 161.735 58.986 161.754 58.8692 161.79C58.4658 161.859 58.0942 162.05 57.8061 162.336C57.1635 162.953 56.7936 163.795 56.7763 164.678V170.667C56.7447 170.932 56.7743 171.201 56.863 171.453C56.9517 171.705 57.0971 171.934 57.2885 172.122C57.7771 172.431 58.3561 172.572 58.9348 172.523V173C57.0259 172.942 55.8057 172.909 55.2807 172.909C54.7556 172.909 53.7 172.909 52 173V172.523C52.2956 172.536 52.5908 172.487 52.8662 172.381C52.974 172.334 53.0707 172.265 53.1502 172.18C53.2298 172.094 53.2904 171.993 53.3284 171.883C53.4328 171.567 53.4794 171.235 53.4661 170.902V163.795C53.5071 163.27 53.3955 162.744 53.1444 162.279C53.0146 162.105 52.8427 161.967 52.6444 161.875C52.4461 161.784 52.2278 161.743 52.0092 161.756V161.274C52.4946 161.319 52.9669 161.338 53.4328 161.338C54.5587 161.36 55.6835 161.256 56.7856 161.028V163.126C57.0616 162.505 57.4982 161.967 58.052 161.564L58.0492 161.568Z" fill="#FAFAFA"/>
<path d="M68.0324 161.601C68.5713 161.204 69.2295 160.993 69.9039 161.001C70.3155 160.989 70.7222 161.092 71.0764 161.297C71.3783 161.484 71.6202 161.75 71.7745 162.066C71.9254 162.383 72.0018 162.729 71.9982 163.079C72.0198 163.579 71.8428 164.068 71.5044 164.443C71.3383 164.621 71.1343 164.762 70.9066 164.854C70.6789 164.947 70.4333 164.989 70.187 164.978C69.7523 164.99 69.3273 164.851 68.9876 164.585C68.8371 164.453 68.7182 164.29 68.6395 164.109C68.5609 163.927 68.5244 163.73 68.5327 163.532C68.5321 163.178 68.6245 162.829 68.8011 162.519C68.9776 162.21 69.2323 161.949 69.5409 161.764C69.4494 161.744 69.3561 161.733 69.2624 161.732C69.1395 161.735 69.0177 161.754 68.9004 161.79C68.4952 161.859 68.122 162.05 67.8328 162.336C67.5043 162.647 67.2443 163.02 67.0687 163.433C66.8922 163.826 66.7976 164.25 66.7902 164.679V170.668C66.7593 170.933 66.7901 171.202 66.8803 171.454C66.9705 171.706 67.1177 171.934 67.311 172.123C67.8018 172.431 68.3833 172.572 68.9644 172.523V173C67.0474 172.942 65.822 172.909 65.2947 172.909C64.7674 172.909 63.7072 172.909 62 173V172.523C62.299 172.536 62.5975 172.487 62.8764 172.381C62.9838 172.333 63.0802 172.264 63.1599 172.178C63.2397 172.093 63.3011 171.993 63.3405 171.883C63.4454 171.567 63.4922 171.235 63.4789 170.902V163.795C63.52 163.27 63.408 162.744 63.1558 162.279C63.0177 162.114 62.8402 161.985 62.639 161.904C62.4378 161.823 62.2192 161.792 62.0028 161.814V161.337C62.4902 161.382 62.971 161.401 63.4324 161.401C64.5632 161.424 65.6929 161.32 66.7995 161.091V163.162C67.0674 162.547 67.4919 162.01 68.0324 161.601Z" fill="#FAFAFA"/>
<path d="M82.5368 162.438C83.5123 163.403 84 164.928 84 167.014C84 169.099 83.5123 170.616 82.5368 171.565C81.4054 172.492 79.9778 173 78.5032 173C77.0286 173 75.6009 172.492 74.4695 171.565C73.4856 170.608 72.9958 169.091 73 167.014C73.0042 164.938 73.4941 163.414 74.4695 162.445C75.5982 161.512 77.0269 161 78.5032 161C79.9794 161 81.4082 161.512 82.5368 162.445V162.438ZM76.9591 162.803C76.5129 164.162 76.3194 165.588 76.3876 167.014C76.3187 168.429 76.5123 169.845 76.9591 171.193C77.3443 172.106 77.858 172.559 78.5054 172.559C79.1529 172.559 79.6675 172.106 80.0428 171.199C80.484 169.848 80.6754 168.431 80.608 167.014C80.6748 165.586 80.4835 164.159 80.0428 162.797C79.6639 161.884 79.1502 161.431 78.5054 161.431C77.8607 161.431 77.3434 161.884 76.9591 162.803Z" fill="#FAFAFA"/>
<path d="M95.1873 170.53C95.4617 170.737 95.6801 171.013 95.8212 171.332C95.9624 171.651 96.0216 172.002 95.993 172.352C95.9832 173.147 95.7416 173.919 95.2999 174.569C94.765 175.336 94.038 175.938 93.1974 176.308C92.1147 176.797 90.9412 177.032 89.7607 176.997C88.875 177.011 87.9905 176.926 87.1227 176.742C86.5494 176.633 86.0059 176.396 85.5304 176.047C85.3751 175.936 85.2466 175.789 85.1549 175.617C85.0633 175.446 85.0109 175.255 85.002 175.06C84.9911 174.885 85.0255 174.71 85.1016 174.553C85.1778 174.396 85.2929 174.263 85.4351 174.168C85.8828 173.894 86.3623 173.68 86.862 173.531C87.3547 173.39 87.8248 173.175 88.2576 172.893H87.7543C87.1768 172.898 86.6087 172.743 86.1083 172.445C85.8482 172.274 85.6395 172.032 85.5058 171.745C85.3722 171.457 85.3188 171.137 85.352 170.82C85.3442 170.418 85.4307 170.02 85.6041 169.661C85.8144 169.27 86.1066 168.932 86.4591 168.674C86.9572 168.291 87.493 167.965 88.0575 167.699C87.3858 167.48 86.7884 167.067 86.3361 166.508C85.9116 165.929 85.6943 165.215 85.721 164.489C85.6946 163.98 85.7943 163.473 86.0107 163.016C86.2271 162.559 86.553 162.167 86.9573 161.877C87.9747 161.246 89.1519 160.946 90.3359 161.018C90.8723 161.014 91.4077 161.065 91.9343 161.17C91.9139 160.794 91.943 160.417 92.0209 160.049C92.0651 159.498 92.281 158.977 92.636 158.565C92.8214 158.371 93.0447 158.221 93.2908 158.124C93.5369 158.028 93.8001 157.986 94.0628 158.004C94.4713 157.985 94.8727 158.118 95.1943 158.38C95.3381 158.497 95.4536 158.647 95.5315 158.818C95.6094 158.99 95.6476 159.178 95.643 159.367C95.6455 159.546 95.6077 159.724 95.5325 159.885C95.4573 160.046 95.3468 160.187 95.2098 160.297C94.9078 160.544 94.5306 160.671 94.146 160.656C93.7803 160.677 93.419 160.564 93.1255 160.337C92.8561 160.086 92.6601 159.762 92.5598 159.401C92.3788 159.757 92.268 160.147 92.234 160.548V161.229C93.0001 161.404 93.6982 161.812 94.2387 162.401C94.7231 162.991 94.9755 163.748 94.9456 164.522C94.9604 165.235 94.7438 165.932 94.3305 166.503C93.9071 167.051 93.3388 167.461 92.6949 167.681C91.9234 167.954 91.112 168.085 90.2969 168.07C89.6761 168.073 89.057 168 88.4525 167.853C88.1326 168.041 87.8354 168.268 87.5671 168.528C87.4741 168.617 87.3999 168.724 87.349 168.843C87.2982 168.963 87.2718 169.092 87.2717 169.223C87.2717 169.713 87.5542 169.961 88.1329 169.961H93.1012C93.8342 169.931 94.5594 170.127 95.1856 170.522L95.1873 170.53ZM88.1164 173.792C87.9966 174.084 87.9299 174.398 87.9197 174.715C87.9073 174.993 87.9635 175.269 88.083 175.517C88.2025 175.766 88.3812 175.979 88.6024 176.136C89.1151 176.486 89.7214 176.66 90.335 176.633C90.8925 176.64 91.4452 176.527 91.9585 176.302C92.447 176.106 92.8729 175.773 93.1879 175.34C93.4897 174.914 93.6474 174.396 93.6366 173.868C93.6467 173.736 93.6269 173.603 93.579 173.481C93.531 173.358 93.4561 173.248 93.3602 173.161C93.0668 172.977 92.7236 172.896 92.3822 172.931H88.6934C88.4388 173.167 88.2412 173.462 88.1164 173.792ZM89.266 162.097C88.97 162.87 88.8439 163.701 88.8969 164.53C88.8437 165.356 88.9698 166.184 89.266 166.953C89.3614 167.166 89.5134 167.345 89.704 167.471C89.8946 167.597 90.1159 167.664 90.342 167.664C90.568 167.664 90.7894 167.597 90.98 167.471C91.1706 167.345 91.3225 167.166 91.418 166.953C91.7084 166.183 91.8323 165.356 91.7809 164.53C91.8314 163.701 91.7076 162.871 91.418 162.097C91.3225 161.885 91.1706 161.705 90.98 161.579C90.7894 161.453 90.568 161.387 90.342 161.387C90.1159 161.387 89.8946 161.453 89.704 161.579C89.5134 161.705 89.3614 161.885 89.266 162.097Z" fill="#FAFAFA"/>
<path d="M102.765 161.951C102.587 161.766 102.37 161.622 102.128 161.531C101.886 161.44 101.626 161.404 101.368 161.425C101.068 161.426 100.769 161.471 100.482 161.558C100.211 161.638 99.9622 161.776 99.7535 161.963C100.137 162.076 100.479 162.296 100.737 162.597C100.982 162.911 101.107 163.299 101.092 163.694C101.097 163.984 101.018 164.269 100.863 164.516C100.709 164.763 100.485 164.961 100.219 165.088C99.9193 165.232 99.5888 165.303 99.2551 165.297C99.036 165.306 98.8175 165.267 98.6159 165.183C98.4143 165.098 98.2348 164.97 98.0907 164.808C97.794 164.469 97.6391 164.032 97.657 163.585C97.669 163.196 97.7899 162.817 98.0065 162.491C98.2231 162.165 98.5271 161.903 98.8852 161.735C99.9567 161.216 101.144 160.97 102.338 161.02C102.929 160.965 103.525 161.024 104.092 161.194C104.659 161.365 105.186 161.644 105.643 162.015C105.967 162.334 106.192 162.736 106.29 163.176C106.415 163.815 106.469 164.465 106.451 165.115V171.149C106.436 171.409 106.474 171.67 106.561 171.916C106.592 171.985 106.643 172.043 106.708 172.083C106.773 172.122 106.849 172.141 106.926 172.137C107.242 172.106 107.538 171.972 107.767 171.757L108 172.137C107.668 172.417 107.283 172.633 106.868 172.771C106.396 172.913 105.904 172.979 105.411 172.968C104.811 173.023 104.213 172.843 103.749 172.467C103.583 172.299 103.453 172.1 103.367 171.883C103.28 171.665 103.238 171.433 103.244 171.2C102.902 171.776 102.4 172.244 101.795 172.55C101.195 172.851 100.529 173.004 99.8555 172.996C99.1055 173.033 98.3683 172.796 97.7864 172.331C97.5223 172.099 97.3148 171.811 97.1794 171.49C97.0439 171.168 96.9839 170.821 97.0037 170.474C96.9953 170.122 97.0598 169.772 97.1932 169.445C97.3266 169.119 97.5262 168.822 97.78 168.573C98.4628 167.929 99.2788 167.436 100.173 167.128L101.323 166.703C101.843 166.541 102.329 166.29 102.759 165.962C102.888 165.861 102.992 165.734 103.066 165.589C103.139 165.445 103.18 165.286 103.186 165.125V163.402C103.222 162.885 103.073 162.372 102.765 161.951ZM102.765 166.526C102.465 166.755 102.152 166.966 101.827 167.16C101.383 167.451 101.001 167.823 100.702 168.257C100.418 168.713 100.277 169.241 100.295 169.775C100.263 170.228 100.399 170.678 100.676 171.042C100.803 171.183 100.961 171.296 101.137 171.37C101.314 171.445 101.506 171.48 101.698 171.473C102.011 171.461 102.317 171.371 102.585 171.212C102.853 171.052 103.075 170.828 103.23 170.56V166.039C103.092 166.231 102.919 166.396 102.719 166.526H102.765Z" fill="#FAFAFA"/>
<path d="M118.145 171.235C117.739 171.759 117.216 172.191 116.613 172.499C115.936 172.844 115.178 173.017 114.411 172.999C113.446 173.019 112.493 172.801 111.644 172.366C110.802 171.909 110.128 171.215 109.714 170.38C109.208 169.333 108.965 168.188 109.004 167.035C108.971 165.888 109.225 164.75 109.747 163.716C110.199 162.849 110.91 162.13 111.79 161.648C112.706 161.192 113.73 160.97 114.763 161.003C115.31 161.003 115.856 161.063 116.388 161.182C116.837 161.282 117.269 161.443 117.669 161.662C118.048 161.875 118.371 162.17 118.611 162.521C118.832 162.882 118.947 163.292 118.943 163.71C118.95 163.942 118.909 164.174 118.821 164.391C118.733 164.608 118.601 164.806 118.432 164.974C118.258 165.138 118.05 165.266 117.822 165.351C117.594 165.436 117.35 165.476 117.105 165.467C116.869 165.479 116.633 165.446 116.411 165.37C116.189 165.293 115.985 165.175 115.812 165.022C115.644 164.871 115.511 164.689 115.422 164.486C115.333 164.284 115.289 164.066 115.294 163.846C115.284 163.421 115.442 163.007 115.738 162.688C116.026 162.379 116.405 162.158 116.826 162.055C116.681 161.879 116.487 161.745 116.265 161.67C116.001 161.572 115.719 161.523 115.436 161.524C115.133 161.521 114.833 161.58 114.556 161.696C114.279 161.813 114.031 161.985 113.83 162.201C113.341 162.732 112.996 163.371 112.828 164.06C112.584 164.943 112.468 165.853 112.483 166.766C112.449 167.656 112.594 168.543 112.91 169.38C113.124 169.95 113.515 170.444 114.032 170.797C114.488 171.078 115.021 171.225 115.564 171.221C116.122 171.213 116.67 171.078 117.162 170.829C117.771 170.495 118.274 170.01 118.615 169.425L119 169.557C118.806 170.154 118.517 170.72 118.145 171.235Z" fill="#FAFAFA"/>
<path d="M129.248 162.079C129.833 162.087 130.418 162.066 131 162.018V162.445C130.664 162.535 130.365 162.719 130.143 162.973C129.825 163.363 129.584 163.803 129.429 164.271L125.367 174.948C125.175 175.524 124.831 176.046 124.367 176.465C123.793 176.855 123.089 177.042 122.381 176.992C121.988 176.992 121.598 176.93 121.226 176.81C120.866 176.701 120.542 176.507 120.286 176.246C120.033 175.986 119.897 175.645 119.909 175.294C119.901 175.095 119.943 174.897 120.029 174.715C120.116 174.533 120.246 174.372 120.409 174.244C120.778 173.974 121.238 173.834 121.706 173.85C122.149 173.829 122.585 173.954 122.94 174.202C123.095 174.321 123.218 174.471 123.3 174.642C123.382 174.812 123.421 174.998 123.414 175.185C123.41 175.482 123.303 175.77 123.108 176.004C122.888 176.259 122.599 176.454 122.271 176.568C122.444 176.577 122.617 176.577 122.79 176.568C123.737 176.568 124.426 176.01 124.867 174.888L125.232 173.875L120.409 163.638C120.261 163.267 120.018 162.936 119.701 162.674C119.498 162.532 119.253 162.454 119 162.449V162C119.995 162.085 121.033 162.127 122.115 162.127C123.01 162.127 124.062 162.085 125.275 162V162.449C125.02 162.434 124.764 162.434 124.509 162.449C124.34 162.463 124.178 162.515 124.035 162.6C123.969 162.647 123.916 162.709 123.882 162.78C123.848 162.851 123.834 162.929 123.841 163.007C123.85 163.217 123.903 163.423 123.996 163.614L126.806 169.929L128.36 165.846C128.576 165.299 128.699 164.724 128.726 164.141C128.755 163.698 128.596 163.263 128.284 162.928C127.945 162.633 127.502 162.464 127.038 162.455V162.027C127.755 162.061 128.488 162.079 129.248 162.079Z" fill="#FAFAFA"/>
</svg>
