<svg width="14" height="17" viewBox="0 0 14 17" fill="none" xmlns="http://www.w3.org/2000/svg">
<path d="M7 0C10.8662 0 14 3.13226 14 6.99646C14 9.95291 11.9215 13.1749 7.81846 16.6968C7.59031 16.8927 7.29943 17.0003 6.99866 17C6.69789 16.9997 6.40719 16.8916 6.17939 16.6954L5.908 16.46C1.98656 13.0299 0 9.8869 0 6.99646C0 3.13226 3.13385 0 7 0ZM7 1.07638C5.4291 1.07638 3.92254 1.7001 2.81175 2.81033C1.70096 3.92056 1.07692 5.42636 1.07692 6.99646C1.07692 9.50945 2.90626 12.4049 6.61518 15.6484L6.88297 15.8802C6.91554 15.9082 6.95706 15.9235 7 15.9235C7.04294 15.9235 7.08447 15.9082 7.11703 15.8802C11.0054 12.542 12.9231 9.56901 12.9231 6.99646C12.9231 6.21902 12.7699 5.4492 12.4722 4.73094C12.1745 4.01269 11.7383 3.36006 11.1882 2.81033C10.6382 2.2606 9.98528 1.82453 9.26666 1.52702C8.54804 1.22951 7.77783 1.07638 7 1.07638ZM7 4.30551C7.71404 4.30551 8.39884 4.58902 8.90375 5.09367C9.40866 5.59832 9.69231 6.28278 9.69231 6.99646C9.69231 7.71014 9.40866 8.3946 8.90375 8.89925C8.39884 9.4039 7.71404 9.68741 7 9.68741C6.28596 9.68741 5.60116 9.4039 5.09625 8.89925C4.59135 8.3946 4.30769 7.71014 4.30769 6.99646C4.30769 6.28278 4.59135 5.59832 5.09625 5.09367C5.60116 4.58902 6.28596 4.30551 7 4.30551ZM7 5.38189C6.57157 5.38189 6.16069 5.552 5.85775 5.85479C5.55481 6.15758 5.38462 6.56825 5.38462 6.99646C5.38462 7.42467 5.55481 7.83534 5.85775 8.13813C6.16069 8.44092 6.57157 8.61103 7 8.61103C7.42843 8.61103 7.83931 8.44092 8.14225 8.13813C8.44519 7.83534 8.61539 7.42467 8.61539 6.99646C8.61539 6.56825 8.44519 6.15758 8.14225 5.85479C7.83931 5.552 7.42843 5.38189 7 5.38189Z" fill="#FAFAFA"/>
</svg>
