<svg width="93" height="75" viewBox="0 0 93 75" fill="none" xmlns="http://www.w3.org/2000/svg">
<g filter="url(#filter0_d_188:2315)">
<path d="M33.4248 58.9001C29.0748 58.9001 25.1998 57.8251 21.7998 55.6751C18.3998 53.5251 15.7248 50.4251 13.7748 46.3751C11.8748 42.2751 10.9248 37.4001 10.9248 31.7501C10.9248 26.1001 11.8748 21.2501 13.7748 17.2001C15.7248 13.1001 18.3998 9.9751 21.7998 7.8251C25.1998 5.6751 29.0748 4.6001 33.4248 4.6001C37.7748 4.6001 41.6498 5.6751 45.0498 7.8251C48.4498 9.9751 51.0998 13.1001 52.9998 17.2001C54.9498 21.2501 55.9248 26.1001 55.9248 31.7501C55.9248 37.4001 54.9498 42.2751 52.9998 46.3751C51.0998 50.4251 48.4498 53.5251 45.0498 55.6751C41.6498 57.8251 37.7748 58.9001 33.4248 58.9001ZM33.4248 48.6251C36.6248 48.6251 39.1248 47.2501 40.9248 44.5001C42.7748 41.7501 43.6998 37.5001 43.6998 31.7501C43.6998 26.0001 42.7748 21.7501 40.9248 19.0001C39.1248 16.2501 36.6248 14.8751 33.4248 14.8751C30.2748 14.8751 27.7748 16.2501 25.9248 19.0001C24.1248 21.7501 23.2248 26.0001 23.2248 31.7501C23.2248 37.5001 24.1248 41.7501 25.9248 44.5001C27.7748 47.2501 30.2748 48.6251 33.4248 48.6251Z" fill="#50ADA8"/>
<path d="M82.7637 5.5001V58.0001H70.6137V15.2501H60.1137V5.5001H82.7637Z" fill="#50ADA8"/>
</g>
<defs>
<filter id="filter0_d_188:2315" x="0.924805" y="0.600098" width="91.8389" height="74.3" filterUnits="userSpaceOnUse" color-interpolation-filters="sRGB">
<feFlood flood-opacity="0" result="BackgroundImageFix"/>
<feColorMatrix in="SourceAlpha" type="matrix" values="0 0 0 0 0 0 0 0 0 0 0 0 0 0 0 0 0 0 127 0" result="hardAlpha"/>
<feOffset dy="6"/>
<feGaussianBlur stdDeviation="5"/>
<feComposite in2="hardAlpha" operator="out"/>
<feColorMatrix type="matrix" values="0 0 0 0 0 0 0 0 0 0.6 0 0 0 0 0.6 0 0 0 0.2 0"/>
<feBlend mode="normal" in2="BackgroundImageFix" result="effect1_dropShadow_188:2315"/>
<feBlend mode="normal" in="SourceGraphic" in2="effect1_dropShadow_188:2315" result="shape"/>
</filter>
</defs>
</svg>
