<svg width="19" height="19" viewBox="0 0 19 19" fill="none" xmlns="http://www.w3.org/2000/svg">
<path d="M2.65431 4.37533L4.6512 2.38058C4.89495 2.13686 5.2212 2 5.5662 2C5.9112 2 6.23745 2.13498 6.4812 2.38058L8.63184 4.52718C8.87559 4.7709 9.01247 5.09899 9.01247 5.44394C9.01247 5.79078 8.87747 6.11511 8.63184 6.36071L6.95183 8.04237C7.33455 8.93398 7.88445 9.74409 8.57184 10.4289C9.25997 11.1207 10.0643 11.6663 10.9568 12.0525L12.6369 10.3708C12.8806 10.1271 13.2069 9.99025 13.5519 9.99025C13.722 9.98962 13.8906 10.023 14.0477 10.0883C14.2049 10.1537 14.3473 10.2497 14.4669 10.3708L16.6194 12.5174C16.8631 12.7612 17 13.0892 17 13.4342C17 13.781 16.865 14.1054 16.6194 14.351L14.6244 16.3457C14.2081 16.7619 13.6344 17 13.0456 17C12.9237 17 12.8056 16.9906 12.6856 16.97C10.2031 16.5613 7.73934 15.2396 5.74995 13.2523C3.76244 11.2613 2.44244 8.7979 2.02993 6.31384C1.91181 5.60892 2.14806 4.88339 2.65431 4.37533ZM3.35932 6.09074C3.72494 8.30109 4.9137 10.5058 6.70433 12.2962C8.49496 14.0866 10.6981 15.2752 12.9087 15.6408C13.1862 15.6877 13.4712 15.5939 13.6737 15.3933L15.6331 13.4342L13.5556 11.3551L11.3094 13.6048L11.2925 13.6217L10.8875 13.4717C9.65948 13.0203 8.54434 12.3072 7.61935 11.382C6.69436 10.4568 5.98164 9.34161 5.53058 8.11361L5.38057 7.70866L7.64558 5.44582L5.56808 3.3667L3.60869 5.32583C3.40619 5.52831 3.31244 5.81327 3.35932 6.09074Z" fill="#FAFAFA"/>
</svg>
