<?xml version="1.0"?><!DOCTYPE svg PUBLIC "-//W3C//DTD SVG 1.1//EN" "http://www.w3.org/Graphics/SVG/1.1/DTD/svg11.dtd"><svg xmlns="http://www.w3.org/2000/svg" xmlns:xlink="http://www.w3.org/1999/xlink"><symbol viewBox="0 0 512 512" id="check" xmlns="http://www.w3.org/2000/svg"><path d="M434.539 98.499l-38.828-38.828c-5.324-5.328-11.799-7.993-19.41-7.993-7.618 0-14.093 2.665-19.417 7.993L169.59 247.248l-83.939-84.225c-5.33-5.33-11.801-7.992-19.412-7.992-7.616 0-14.087 2.662-19.417 7.992L7.994 201.852C2.664 207.181 0 213.654 0 221.269c0 7.609 2.664 14.088 7.994 19.416l103.351 103.349 38.831 38.828c5.327 5.332 11.8 7.994 19.414 7.994 7.611 0 14.084-2.669 19.414-7.994l38.83-38.828L434.539 137.33c5.325-5.33 7.994-11.802 7.994-19.417.004-7.611-2.669-14.084-7.994-19.414z" data-original="#000000" class="aactive-path" data-old_color="#000000" fill="#DC4A4A"/></symbol><symbol viewBox="0 0 390.4 538.67" id="fire" xmlns="http://www.w3.org/2000/svg"><path d="M140.367 465.067C116.9 438.4 93.434 410.667 78.5 377.6c-14.933-35.2-19.2-75.733-11.733-114.133s24.533-74.667 49.067-105.6c-2.133 26.667 7.467 54.4 25.6 74.667-10.667-51.2 6.4-106.667 40.533-147.2S263.034 18.133 312.1 0c-24.533 25.6-27.733 66.133-18.133 100.267 9.6 34.133 29.867 64 48 94.933 18.133 30.933 35.2 62.933 36.267 98.133 9.6-18.133 20.267-36.267 26.667-56.533 6.4-20.267 9.6-41.6 4.267-61.867 19.2 23.467 29.867 46.933 35.2 76.8 5.333 29.867 4.267 60.8 1.067 90.667-4.267 33.067-12.8 67.2-30.933 94.933-21.333 33.067-55.467 56.533-92.8 69.333C255.567 518.4 190.5 508.8 140.367 465.067z" fill="#f3705a"/><path d="M221.434 504.533C308.9 538.667 395.3 435.2 347.3 355.2c0-1.067-1.067-1.067-1.067-2.133 4.267 43.733-6.4 75.733-26.667 93.867 10.667-25.6 3.2-55.467-9.6-81.067-12.8-24.533-30.933-46.933-44.8-70.4-13.867-24.533-24.533-52.267-18.133-80-25.6 19.2-43.733 48-51.2 78.933-7.467 30.933-3.2 65.067 10.667 93.867-16-11.733-27.733-30.933-28.8-51.2-17.067 20.267-27.733 46.933-26.667 73.6.001 41.6 33.067 78.933 70.401 93.866z" fill="#ffd15c"/></symbol><symbol viewBox="0 0 960 960" id="internet_casino_icon_01" xmlns="http://www.w3.org/2000/svg"><path fill="#6C7A88" d="M205.313 316.875c-39.351 0-71.25 31.898-71.25 71.25v529.686H600V316.875H205.313z"/><path fill="#4D5967" d="M994.688 316.875H600v600.936h465.938V388.125c0-39.351-31.9-71.25-71.25-71.25z"/><path fill="#8B9BA9" d="M939.375 262.5h-678.75c-30.03 0-54.375 24.343-54.375 54.375v600.936h787.5V316.875c0-30.032-24.345-54.375-54.375-54.375z"/><path fill="#6C7A88" d="M939.375 262.5H937.5v599.061H206.25v56.25h787.5V316.875c0-30.032-24.345-54.375-54.375-54.375z"/><path fill="#FF5368" d="M725.874 480H474.126c-15.698 0-28.424 12.724-28.424 28.423v437.515h308.596V508.423c0-15.699-12.726-28.423-28.424-28.423z"/><path fill="#C5324F" d="M686.25 485.625v404.063H445.702v56.25h308.596V485.625z"/><path fill="#FFF9EB" d="M359.063 945.938v-416.25c0-62.133 50.368-112.5 112.5-112.5h256.875c62.132 0 112.5 50.367 112.5 112.5v416.25H742.5V541.875c0-14.498-11.753-26.25-26.25-26.25h-232.5c-14.497 0-26.25 11.752-26.25 26.25v404.063h-98.437z"/><g fill="#B6B0A2"><path d="M359.063 889.688h98.438v56.25h-98.438zM784.688 529.688v360H742.5v56.25h98.438v-416.25c0-62.133-50.368-112.5-112.5-112.5 0 26.771 12.99 51.565 34.215 67.88 13.389 10.292 22.035 26.465 22.035 44.62z"/></g><path fill="#FFD33F" d="M840.938 164.063h-90.986c-1.007-82.003-67.736-150-149.951-150s-148.944 67.997-149.951 150h-90.986c-54.141 0-98.438 44.297-98.438 98.438s44.297 98.438 98.438 98.438h481.875c54.141 0 98.438-44.297 98.438-98.438s-44.299-98.438-98.439-98.438z"/><path fill="#C5324F" d="M600 70.313c-51.692 0-93.748 42.056-93.748 93.748h187.496c0-51.693-42.056-93.748-93.748-93.748z"/><path d="M398.541 302.297c5.492-5.49 5.492-14.396 0-19.885-5.49-5.493-14.394-5.493-19.882 0-10.963 10.965-28.806 10.961-39.769 0-10.965-10.969-10.965-28.806 0-39.771 10.961-10.969 28.804-10.965 39.769 0 5.488 5.49 14.393 5.494 19.882-.004 5.492-5.49 5.492-14.393 0-19.883-21.926-21.928-57.611-21.932-79.54.004-21.93 21.929-21.93 57.613 0 79.538 21.928 21.929 57.611 21.929 79.54.001zM422.931 317.846c7.275 2.721 15.377-.956 18.105-8.229l1.85-4.937h33.24l1.853 4.937c2.115 5.647 7.472 9.126 13.165 9.126 1.641 0 3.309-.285 4.937-.898 7.268-2.725 10.952-10.828 8.226-18.102l-31.635-84.367a14.063 14.063 0 00-26.329 0l-31.637 84.367c-2.731 7.273.957 15.376 8.225 18.103zm36.574-57.485l6.07 16.198h-12.147l6.077-16.198zM554.69 290.621h-21.092c-7.765 0-14.059 6.29-14.059 14.059 0 7.768 6.294 14.063 14.059 14.063h21.092c19.384 0 35.152-15.769 35.152-35.152s-15.769-35.152-35.152-35.152a7.039 7.039 0 01-7.031-7.031c0-3.874 3.154-7.027 7.031-7.027h9.842c7.767 0 14.061-6.295 14.061-14.063 0-7.769-6.294-14.06-14.061-14.06h-9.842c-19.384 0-35.15 15.77-35.15 35.149 0 19.384 15.767 35.152 35.15 35.152 3.878 0 7.031 3.157 7.031 7.031s-3.151 7.031-7.031 7.031zM612.225 290.621c-7.764 0-14.059 6.29-14.059 14.059 0 7.768 6.295 14.063 14.059 14.063h41.245c7.766 0 14.061-6.295 14.061-14.063 0-7.769-6.295-14.059-14.061-14.059h-6.561v-56.242h6.561c7.766 0 14.061-6.295 14.061-14.063 0-7.769-6.295-14.06-14.061-14.06h-41.245c-7.764 0-14.059 6.291-14.059 14.06 0 7.768 6.295 14.063 14.059 14.063h6.561v56.242h-6.561zM697.802 318.742c7.765 0 14.061-6.291 14.061-14.059v-41.415l36.467 49.727a14.05 14.05 0 0015.715 5.046 14.06 14.06 0 009.688-13.363v-84.363c-.002-7.765-6.296-14.06-14.063-14.06-7.766 0-14.061 6.291-14.061 14.06v41.415l-36.469-49.728a14.06 14.06 0 00-25.397 8.314v84.367c0 7.768 6.294 14.059 14.059 14.059zM841.202 318.742c31.012 0 56.244-25.231 56.244-56.246 0-31.011-25.232-56.239-56.244-56.239-31.011 0-56.243 25.229-56.243 56.239 0 31.015 25.232 56.246 56.243 56.246zm0-84.363c15.506 0 28.121 12.616 28.121 28.117 0 15.508-12.617 28.125-28.121 28.125-15.505 0-28.12-12.617-28.12-28.125.001-15.503 12.615-28.117 28.12-28.117z"/><path d="M1006.524 303.632c-5.336-27.102-26.719-48.512-53.807-53.886C946.365 193.695 898.657 150 840.938 150h-77.475C756.308 66.094 685.727 0 600 0S443.692 66.094 436.537 150h-77.475c-57.72 0-105.428 43.694-111.782 99.744-27.086 5.374-48.471 26.784-53.807 53.886C152.016 309.412 120 345.099 120 388.125v529.686c0 7.768 6.294 14.063 14.063 14.063H345v14.064c0 3.693 1.5 7.331 4.125 9.938a14.086 14.086 0 009.938 4.125h481.875c3.711 0 7.331-1.502 9.938-4.125 2.625-2.606 4.125-6.244 4.125-9.938v-14.064h210.938c7.769 0 14.063-6.295 14.063-14.063V388.125c-.002-43.026-32.018-78.713-73.478-84.493zM600 28.125c70.209 0 128.156 53.501 135.214 121.875H521.55c6.55-36.78 38.828-65.625 78.45-65.625 26.231 0 50.813 12.975 65.755 34.741 4.381 6.383 13.144 8.018 19.558 3.638 6.394-4.388 8.023-13.164 3.636-19.556C668.813 73.798 635.55 56.25 600 56.25c-54.658 0-100.003 40.892-106.903 93.75h-28.311C471.844 81.626 529.791 28.125 600 28.125zm-240.937 150h481.875c46.524 0 84.375 37.851 84.375 84.375 0 46.523-37.851 84.375-84.375 84.375H359.063c-46.524 0-84.375-37.852-84.375-84.375 0-46.524 37.85-84.375 84.375-84.375zm-210.938 210c0-27.018 18.834-49.72 44.063-55.665v571.29h-44.063V388.125zm580.313 153.75v390H614.063V529.688H716.25c6.713.018 12.169 5.474 12.188 12.187zm-142.5 390H471.563v-390c.019-6.713 5.475-12.169 12.188-12.188h102.188v402.188zm255-360c-7.765 0-14.063 6.298-14.063 14.063v345.938h-70.313v-390c0-.173 0-.344-.004-.515l-.002-.092a63.441 63.441 0 00-.007-.429l-.002-.045c-.272-10.359-4.442-20.064-11.798-27.42-7.357-7.358-17.061-11.526-27.42-11.798l-.047-.002a30.547 30.547 0 00-.428-.008c-.03-.002-.06-.002-.092-.002a44.035 44.035 0 00-.514-.003h-232.5c-.173 0-.343.001-.514.003-.03 0-.062 0-.092.002-.143.002-.285.004-.428.008l-.047.002c-10.357.271-20.063 4.44-27.42 11.798-7.355 7.355-11.525 17.061-11.798 27.42l-.002.045-.007.429-.002.092c-.002.173-.004.344-.004.515v390h-70.313V529.688c0-26.29 10.237-51 28.837-69.601 18.6-18.6 43.311-28.837 69.6-28.837h256.875c26.269 0 51 10.237 69.6 28.837 18.601 18.601 28.838 43.311 28.838 69.601 0 7.743 6.298 14.063 14.063 14.063 7.763 0 14.063-6.319 14.063-14.063 0-33.848-13.378-65.804-37.07-89.494-24.236-24.238-56.458-37.068-89.492-37.068H471.563c-34.65 0-66.397 13.97-89.494 37.068C358.378 463.882 345 495.836 345 529.688v374.061H220.313V316.875c0-17.719 11.49-32.804 27.411-38.196C255.591 333.074 302.522 375 359.063 375h481.875c56.541 0 103.472-41.926 111.339-96.321 15.921 5.393 27.411 20.478 27.411 38.196v586.873H855v-317.81c0-7.765-6.3-14.063-14.062-14.063zm210.937 331.873h-44.063V332.46c25.228 5.945 44.063 28.647 44.063 55.665v515.623z"/><path d="M543.75 906.223c7.763 0 14.063-6.281 14.063-14.063 0-7.763-6.3-14.063-14.063-14.063-7.765 0-14.063 6.3-14.063 14.063.001 7.784 6.298 14.063 14.063 14.063zM543.75 852.449c7.763 0 14.063-6.3 14.063-14.043 0-7.779-6.3-14.082-14.063-14.082-7.765 0-14.063 6.301-14.063 14.082.001 7.742 6.298 14.043 14.063 14.043zM543.75 583.613c7.763 0 14.063-6.3 14.063-14.081 0-7.765-6.3-14.044-14.063-14.044-7.765 0-14.063 6.281-14.063 14.044.001 7.779 6.298 14.081 14.063 14.081z"/><circle cx="543.75" cy="677.081" r="14.063"/><path d="M543.75 744.918c7.763 0 14.063-6.3 14.063-14.063 0-7.781-6.3-14.063-14.063-14.063-7.765 0-14.063 6.281-14.063 14.063.001 7.763 6.298 14.063 14.063 14.063zM543.75 798.694c7.763 0 14.063-6.3 14.063-14.081 0-7.765-6.3-14.044-14.063-14.044-7.765 0-14.063 6.281-14.063 14.044.001 7.779 6.298 14.081 14.063 14.081z"/><circle cx="543.75" cy="623.306" r="14.063"/><path d="M656.25 690.991c7.763 0 14.063-6.281 14.063-14.063 0-7.763-6.3-14.042-14.063-14.042-7.765 0-14.063 6.281-14.063 14.042.001 7.784 6.298 14.063 14.063 14.063z"/><circle cx="656.25" cy="730.706" r="14.063"/><circle cx="656.25" cy="784.481" r="14.063"/><path d="M656.25 852.317c7.763 0 14.063-6.298 14.063-14.063 0-7.779-6.3-14.063-14.063-14.063-7.765 0-14.063 6.283-14.063 14.063.001 7.765 6.298 14.063 14.063 14.063zM656.25 877.948c-7.765 0-14.063 6.301-14.063 14.084 0 7.743 6.298 14.041 14.063 14.041 7.763 0 14.063-6.298 14.063-14.041 0-7.782-6.3-14.084-14.063-14.084z"/><circle cx="656.25" cy="569.4" r="14.063"/><path d="M656.25 637.236c7.763 0 14.063-6.298 14.063-14.063 0-7.779-6.3-14.081-14.063-14.081-7.765 0-14.063 6.3-14.063 14.081.001 7.765 6.298 14.063 14.063 14.063z"/></symbol><symbol viewBox="0 0 957.471 959.999" id="internet_casino_icon_02" xmlns="http://www.w3.org/2000/svg"><path fill="#EDE6F5" d="M603.742 852.742l-259.492 90.19c-26.524 9.214-55.513-4.815-64.727-31.339l-141.189-406.26c-9.214-26.524 4.815-55.514 31.338-64.728l135.255-47 124.239-43.189c26.542-9.214 55.531 4.815 64.745 31.339L607.08 707.379l28.021 80.633c9.214 26.527-4.814 55.515-31.359 64.73z"/><path fill="#CEC1E8" d="M607.08 707.381H355.775c-28.078 0-50.848-22.771-50.848-50.867V393.606l124.239-43.189c26.542-9.213 55.531 4.815 64.745 31.339L607.08 707.381z"/><path fill="#ED4596" d="M422.662 750.111c-109.74-10.887-181.173-129.974-135.281-161.737 45.893-31.765 91.146 34.743 91.146 34.743s-5.745-80.238 49.956-83.782c55.702-3.541 73.518 134.178-5.821 210.776z"/><path fill="#EDE6F5" d="M734.448 177.15v430.069c0 1.383-.056 2.767-.17 4.113-2.085 26.183-23.983 46.753-50.696 46.753h-274.72c-28.078 0-50.848-22.77-50.848-50.866V177.15c0-28.097 22.77-50.866 50.848-50.866h274.72c28.097-.003 50.866 22.767 50.866 50.866z"/><path fill="#CEC1E8" d="M734.448 177.15v430.069c0 1.383-.056 2.767-.17 4.113l-164.093-43.359c-27.149-7.166-43.359-34.999-36.175-62.148l100.294-379.543h49.275c28.1-.001 50.869 22.769 50.869 50.868z"/><path fill="#4E4F75" d="M546.227 270.169c82.622 38.227 106.052 150.443 61.658 162.775-44.393 12.332-61.658-51.793-61.658-51.793s-17.265 64.123-61.657 51.793c-44.395-12.331-20.964-124.548 61.657-162.775z"/><path fill="#EDE6F5" d="M625.168 530.063l265.605 70.179c27.157 7.176 54.989-9.022 62.165-36.18l109.864-415.806c7.176-27.157-9.022-54.99-36.181-62.165L761.018 15.913c-27.157-7.176-54.99 9.022-62.166 36.18L588.988 467.901c-7.177 27.153 9.023 54.986 36.18 62.162z"/><path fill="#ED4596" d="M796.213 420.412c37.422-44.593 84.762-72.146 142.019-82.654-44.592-37.419-72.146-84.759-82.654-142.018-37.421 44.593-84.761 72.146-142.018 82.654 44.592 37.424 72.144 84.762 82.653 142.018z"/><path d="M618.092 695.762c-2.578-7.42-10.688-11.342-18.1-8.766-7.419 2.578-11.342 10.682-8.766 18.098l30.438 87.577c3.214 9.242 2.634 19.187-1.632 27.995-4.266 8.81-11.705 15.432-20.949 18.644l-105.561 36.687c-7.419 2.578-11.342 10.682-8.766 18.098 2.042 5.874 7.543 9.555 13.431 9.555 1.549 0 3.124-.253 4.667-.791l105.563-36.687c33.895-11.78 51.887-48.941 40.108-82.836l-30.433-87.574zM447.116 892.128l-107.531 37.369c-9.242 3.216-19.187 2.636-27.996-1.631-8.809-4.266-15.431-11.706-18.643-20.95l-141.18-406.243c-6.632-19.083 3.499-40.005 22.583-46.637l149.61-51.995c7.419-2.578 11.342-10.683 8.766-18.1-2.578-7.421-10.688-11.34-18.098-8.766l-149.61 51.996c-16.421 5.707-29.635 17.465-37.211 33.11-7.577 15.645-8.606 33.306-2.899 49.727L266.091 916.25c5.708 16.422 17.465 29.635 33.112 37.211 8.979 4.347 18.621 6.539 28.311 6.537a65.157 65.157 0 0021.415-3.64l107.53-37.369c7.419-2.578 11.342-10.682 8.766-18.098-2.589-7.418-10.697-11.341-18.109-8.763z"/><path d="M466.414 681.661c-7.202-3.123-15.578.177-18.705 7.38-7.573 17.439-17.729 32.922-30.24 46.116-68.708-9.909-118.296-65.661-128.128-103.65-2.725-10.521-3.87-24.516 6.135-31.439 7.06-4.889 14.224-6.788 21.915-5.82 7.798.999 14.904-4.539 15.885-12.33.983-7.791-4.539-14.904-12.332-15.887-14.752-1.86-28.761 1.727-41.655 10.653-18.063 12.505-24.435 35.082-17.48 61.952 7.042 27.214 26.631 56.146 53.736 79.374 21.534 18.452 57.353 41.455 105.714 46.253a14.214 14.214 0 0011.278-3.919c17.383-16.783 31.264-36.958 41.256-59.972 3.128-7.208-.176-15.581-7.379-18.711zM328.948 891.474c12.21 5.151 24.308-8.647 17.813-20.12-2.725-4.812-8.198-7.669-13.707-7.146-6.188.587-11.385 5.263-12.6 11.362-1.299 6.52 2.276 13.413 8.494 15.904z"/><path d="M734.456 593.002c-7.853 0-14.22 6.365-14.22 14.22 0 20.207-16.44 36.649-36.648 36.649H408.87c-20.209 0-36.649-16.44-36.649-36.649V177.15c0-20.208 16.44-36.648 36.649-36.648h222.975c7.853 0 14.221-6.365 14.221-14.22s-6.366-14.221-14.221-14.221H408.87c-35.89 0-65.087 29.198-65.087 65.087v430.071c0 35.887 29.197 65.086 65.087 65.086h274.718c35.889 0 65.087-29.197 65.087-65.086 0-7.852-6.366-14.217-14.219-14.217z"/><path d="M536.749 286.036c13.547 7.189 25.768 16.932 36.396 29.029 5.187 5.9 14.167 6.479 20.066 1.297 5.9-5.183 6.479-14.167 1.297-20.065-14.801-16.847-32.228-29.978-51.789-39.03a14.216 14.216 0 00-11.942 0c-36.995 17.117-59.028 45.186-71 65.717-15.092 25.886-22.645 54.281-20.723 77.906 1.946 23.933 13.695 40.61 32.229 45.759 4.979 1.383 9.938 2.07 14.805 2.07 8.804 0 17.309-2.25 25.119-6.705 4.147-2.368 7.913-5.231 11.321-8.397v45.155h-29.601c-7.853 0-14.22 6.365-14.22 14.22s6.365 14.221 14.22 14.221h49.722c7.853 0 14.22-6.366 14.22-14.221 0-4.741-2.33-8.933-5.9-11.515v-48.056c5.582 4.115 13.479 3.646 18.514-1.421 5.531-5.575 5.495-14.578-.077-20.109-12.887-12.788-18.873-34.242-18.924-34.43a14.22 14.22 0 00-27.461 0c-2.067 7.687-11.269 31.506-25.9 39.855-5.629 3.208-11.419 3.823-18.22 1.935-8.735-2.426-10.952-13.987-11.496-20.664-2.556-31.351 20.199-86.458 69.344-112.551zM426.191 580.713c-5.537-2.285-12.084-.791-16.065 3.687-4.159 4.675-4.736 11.755-1.392 17.044 3.09 4.89 9.098 7.506 14.783 6.341 5.723-1.172 10.215-5.748 11.229-11.511 1.145-6.494-2.497-13.003-8.555-15.561zM1069.877 102.527c-8.743-15.022-22.815-25.743-39.621-30.184L764.649 2.165c-34.697-9.163-70.378 11.601-79.545 46.292L575.24 464.265c-9.167 34.693 11.601 70.378 46.294 79.545l265.605 70.18a65.423 65.423 0 0016.732 2.188c11.353 0 22.555-2.998 32.627-8.859 15.022-8.743 25.742-22.814 30.184-39.62l40.932-154.913c2.006-7.594-2.524-15.373-10.116-17.379-7.594-2.007-15.373 2.523-17.38 10.115l-40.931 154.913c-2.501 9.463-8.535 17.383-16.995 22.307s-18.328 6.259-27.791 3.756L628.8 516.315c-19.533-5.16-31.227-25.252-26.064-44.786L712.602 55.721c2.501-9.463 8.534-17.383 16.995-22.307 8.456-4.922 18.328-6.257 27.791-3.758l265.604 70.182c9.464 2.501 17.386 8.535 22.308 16.993 4.924 8.458 6.256 18.328 3.757 27.791l-54.489 206.226c-2.006 7.594 2.523 15.373 10.115 17.379 7.594 2.009 15.373-2.523 17.38-10.115l54.487-206.224c4.44-16.808 2.07-34.337-6.673-49.361z"/><path d="M998.721 159.384c12.854 0 19.106-16.575 9.294-24.989-9.605-8.237-25.033-.201-23.397 12.508.899 7.006 7.01 12.481 14.103 12.481zM664.886 463.11c-6.938-10.541-23.63-6.844-25.828 5.449-2.229 12.474 12.456 21.271 22.499 13.832 5.969-4.418 7.494-13.112 3.329-19.281zM869.563 193.176a14.221 14.221 0 00-24.877-6.575c-35.063 41.784-80.044 67.963-133.693 77.809a14.221 14.221 0 00-6.574 24.878c41.784 35.063 67.961 80.041 77.809 133.692a14.22 14.22 0 0010.354 11.181c1.204.319 2.423.475 3.632.475a14.23 14.23 0 0010.894-5.079c35.063-41.784 80.044-67.963 133.693-77.809a14.221 14.221 0 006.575-24.877c-41.787-35.068-67.965-80.048-77.813-133.695zm-65.63 198.022c-11.588-40.042-32.068-75.229-61.159-105.082 40.043-11.587 75.229-32.068 105.085-61.158 11.587 40.042 32.068 75.229 61.158 105.082-40.042 11.586-75.229 32.068-105.084 61.158z"/></symbol><symbol viewBox="0 0 480 480" id="internet_casino_icon_03" xmlns="http://www.w3.org/2000/svg"><path fill="#FFB531" d="M358.762 384H121.238A32 32 0 0192 339l12-27V168c0-53.02 42.98-96 96-96h80c53.02 0 96 42.98 96 96v144l12 27a32.003 32.003 0 01-2.406 30.438A32.002 32.002 0 01358.762 384z"/><path fill="#FFA912" d="M388 339l-12-27V168a95.522 95.522 0 00-20.191-58.762c-52.008 148.504-165.184 233.16-238.906 274.473a32.94 32.94 0 004.336.289h237.523A32 32 0 00388 339z"/><path fill="#FFCB73" d="M172 119.512l-8-13.848a72.196 72.196 0 0118.008-7.383l4 15.488A55.477 55.477 0 00172 119.512zM144 200h-16v-32a71.432 71.432 0 0121.863-51.633l11.145 11.473A55.577 55.577 0 00144 168v32z"/><path fill="#FFB531" d="M280 72h-80L168 8h144l-32 64z"/><path fill="#F58F00" d="M256 200h-32c-8.836 0-16-7.164-16-16s7.164-16 16-16h56v-16h-32v-16h-16v16h-8c-17.672 0-32 14.328-32 32s14.328 32 32 32h32c8.836 0 16 7.164 16 16s-7.164 16-16 16h-56v16h32v16h16v-16h8c17.672 0 32-14.328 32-32s-14.328-32-32-32z"/><path fill="#FEC9A3" d="M404.961 325.641C363.727 293.567 306.648 291.301 263 320h-63c-17.672 0-32 14.328-32 32s14.328 32 32 32h-16L59.391 321.602a34.92 34.92 0 00-36.598 3.293l-.402.297A35.856 35.856 0 008 353.938v.84a35.765 35.765 0 0018.656 31.391l135.863 74.113A96.018 96.018 0 00208.48 472H408V328l-3.039-2.359z"/><path fill="#348FD9" d="M408 328h64v144h-64V328z"/><path fill="#3086CD" d="M408 424h64v48h-64v-48z"/><path fill="#1A5485" d="M432 424h16v16h-16v-16z"/><path fill="#FEB784" d="M296 392h-96a8 8 0 010-16h96a8 8 0 010 16z"/><path d="M384 280V168c.113-52.625-39.207-96.988-91.465-103.199l26.664-53.227a8.003 8.003 0 00-.363-7.801A8 8 0 00312 0H168a8.002 8.002 0 00-7.161 11.574l26.633 53.227C135.301 71.176 96.066 115.442 96 168v144h16V168c.059-48.578 39.422-87.941 88-88h80a87.863 87.863 0 0162.262 25.738A87.865 87.865 0 01368 168v112h16zM275.055 64h-70.109l-24-48h118.109l-24 48z"/><path d="M172 119.512a55.416 55.416 0 0113.992-5.742l-4-15.488a72.196 72.196 0 00-18.008 7.383L172 119.512zM128 200h16v-32a55.575 55.575 0 0117.008-40.16l-11.145-11.473A71.433 71.433 0 00128 168v32zM22.816 393.184l135.816 74.074A103.981 103.981 0 00208.48 480H472a8 8 0 008-8V328a8 8 0 00-8-8h-61.223l-.914-.711a126.619 126.619 0 00-30.848-17.738A129.757 129.757 0 00260.679 312H200a40.007 40.007 0 00-32.258 16.332 40.013 40.013 0 00-5.91 35.668l-98.895-49.551a42.799 42.799 0 00-45.32 4.336A43.99 43.99 0 000 353.922v.879a43.6 43.6 0 0022.816 38.383zM416 336h48v128h-48V336zM16 353.922a28.263 28.263 0 0111.594-22.641 26.768 26.768 0 0128.184-2.527l124.648 62.398A7.923 7.923 0 00184 392h120v-16H200c-13.254 0-24-10.746-24-24s10.746-24 24-24h63.039a8.087 8.087 0 004.41-1.32 113.743 113.743 0 01105.598-10.289A111.106 111.106 0 01400 331.879V464H208.48a87.979 87.979 0 01-42.176-10.785L30.449 379.129A27.614 27.614 0 0116 354.801v-.879z"/><path d="M432 424h16v16h-16v-16zM248 280v-16h8c17.672 0 32-14.328 32-32s-14.328-32-32-32h-32c-8.836 0-16-7.164-16-16s7.164-16 16-16h56v-16h-32v-16h-16v16h-8c-17.672 0-32 14.328-32 32s14.328 32 32 32h32c8.836 0 16 7.164 16 16s-7.164 16-16 16h-56v16h32v16h16z"/></symbol><symbol viewBox="0 0 960.001 775.49" id="internet_casino_icon_04" xmlns="http://www.w3.org/2000/svg"><path fill="#A4A5A6" d="M259.545 325.069l46.516-217.071 759.747 170.556-77.526 294.595"/><path d="M1003.787 577.801l-31.011-9.304 72.874-279.09-728.736-162.802L273.5 328.169l-31.01-6.201 46.515-217.07c1.55-7.753 9.303-13.955 18.606-12.404l759.747 170.556c7.753 1.55 13.955 10.854 12.404 18.605l-75.975 296.146z"/><path d="M287.3 200.684l6.792-30.255 759.4 170.45-6.79 30.256z"/><path fill="#DBD0BF" d="M166.515 325.069h790.756c17.056 0 31.011 13.954 31.011 31.01V821.23c0 17.056-13.955 31.01-31.011 31.01H166.515c-17.056 0-31.01-13.954-31.01-31.01V356.078c0-17.055 13.954-31.009 31.01-31.009z"/><path d="M957.271 867.744H166.515c-26.358 0-46.515-20.156-46.515-46.515V356.078c0-26.358 20.157-46.515 46.515-46.515h790.756c26.358 0 46.516 20.156 46.516 46.515V821.23c0 26.358-20.157 46.514-46.516 46.514zM166.515 340.573c-9.303 0-15.505 6.202-15.505 15.505V821.23c0 9.303 6.202 15.505 15.505 15.505h790.756c9.304 0 15.505-6.202 15.505-15.505V356.078c0-9.303-6.201-15.505-15.505-15.505H166.515z"/><circle fill="#DC8729" cx="848.736" cy="712.695" r="77.525"/><path d="M848.736 805.725c-51.166 0-93.03-41.863-93.03-93.03s41.864-93.03 93.03-93.03c51.167 0 93.03 41.863 93.03 93.03s-41.863 93.03-93.03 93.03zm0-155.051c-34.11 0-62.02 27.909-62.02 62.021s27.909 62.021 62.02 62.021c34.111 0 62.021-27.909 62.021-62.021s-27.909-62.021-62.021-62.021z"/><circle fill="#9F3A37" cx="755.706" cy="712.695" r="77.525"/><path d="M755.706 805.725c-51.166 0-93.03-41.863-93.03-93.03s41.864-93.03 93.03-93.03c51.167 0 93.03 41.863 93.03 93.03s-41.863 93.03-93.03 93.03zm0-155.051c-34.11 0-62.02 27.909-62.02 62.021s27.909 62.021 62.02 62.021c34.111 0 62.021-27.909 62.021-62.021s-27.91-62.021-62.021-62.021zM213.03 743.704h31.01v62.021h-31.01zM275.05 743.704h31.01v62.021h-31.01zM337.07 743.704h31.01v62.021h-31.01zM399.091 743.704h31.01v62.021h-31.01zM213.03 526.634h31.01v62.021h-31.01zM275.05 526.634h31.01v62.021h-31.01zM337.07 526.634h31.01v62.021h-31.01zM399.091 526.634h31.01v62.021h-31.01zM492.121 526.634h31.01v62.021h-31.01zM554.141 526.634h31.011v62.021h-31.011zM616.161 526.634h31.01v62.021h-31.01zM678.182 526.634h31.01v62.021h-31.01zM461.11 743.704h31.011v62.021H461.11zM523.131 743.704h31.01v62.021h-31.01z"/><path fill="#656A73" d="M228.535 387.089h124.041v93.03H228.535z"/><path d="M352.576 495.624H228.535c-9.303 0-15.505-6.202-15.505-15.505v-93.03c0-9.304 6.202-15.505 15.505-15.505h124.041c9.303 0 15.505 6.201 15.505 15.505v93.03c0 9.303-6.203 15.505-15.505 15.505zm-108.536-31.01h93.03v-62.02h-93.03v62.02zM461.11 681.685h93.03v31.01h-93.03zM337.07 681.685h93.03v31.01h-93.03zM213.03 681.685h93.03v31.01h-93.03z"/></symbol><symbol viewBox="0 0 496 496" id="internet_casino_icon_05" xmlns="http://www.w3.org/2000/svg"><path fill="#838F9B" d="M464 296.871v64c0 8.801-7.199 16-16 16h-24v-80h40z"/><path fill="#FFB530" d="M424 376.871v64h-96l-16-16H136l-16 16H24v-240c0-17.68 14.32-32 32-32h336c17.68 0 32 14.32 32 32v176zm-32 8v-176c0-4.398-3.602-8-8-8H56v192h328c4.398 0 8-3.597 8-8z"/><path fill="#CCD1D9" d="M440 456.871v32H8v-32c0-8.801 7.199-16 16-16h96l16-16h176l16 16h96c8.801 0 16 7.2 16 16z"/><g fill="#E5685C"><path d="M392 208.871v24H280v-32h104c4.398 0 8 3.602 8 8zM168 360.871h112v32H168v-32zM168 200.871v32H56v-24c0-4.398 3.602-8 8-8h104z"/></g><path fill="#CCD1D9" d="M56 384.871v-152h112v160H64c-4.398 0-8-3.597-8-8zM280 360.871v-128h112v152c0 4.402-3.602 8-8 8H280v-32zM168 360.871v-160h112v160H168z"/><path fill="#EAD7A2" d="M336 168.871H112l-32-128 87.922 72 56-96 56.078 96 88-72-32 128z"/><path fill="#FFB530" d="M240 120.871c0 8.836-7.164 16-16 16s-16-7.164-16-16 7.164-16 16-16 16 7.164 16 16zM488 112.871c0 13.254-10.746 24-24 24s-24-10.746-24-24 10.746-24 24-24 24 10.746 24 24z"/><path d="M224 96.871c-13.23 0-24 10.77-24 24 0 13.234 10.77 24 24 24s24-10.766 24-24c0-13.23-10.77-24-24-24zm0 32c-4.414 0-8-3.59-8-8 0-4.406 3.586-8 8-8s8 3.594 8 8c0 4.41-3.586 8-8 8zM152 136.871a8 8 0 11-16 0 8 8 0 0116 0zM312 136.871a8 8 0 11-16 0 8 8 0 0116 0z"/><path d="M496 112.871c0-17.648-14.352-32-32-32s-32 14.352-32 32c0 14.863 10.23 27.289 24 30.863v145.137h-24v-88c0-22.055-17.945-40-40-40h-45.762l35.379-141.473-99.457 81.344L223.938 1l-58.176 99.742-99.379-81.359 35.379 141.488H56c-22.055 0-40 17.945-40 40v233.473c-9.289 3.313-16 12.113-16 22.527v40h448v-40c0-10.414-6.711-19.215-16-22.527v-49.473h16c13.23 0 24-10.766 24-24V143.735c13.77-3.575 24-16 24-30.864zM93.617 62.36L170.129 125l53.809-92.258 53.84 92.25 76.598-62.656-24.613 98.535H118.238L93.617 62.36zM56 176.871h336c13.23 0 24 10.77 24 24v232h-84.688l-16-16H132.688l-16 16H32v-232c0-13.23 10.77-24 24-24zm376 304H16v-24c0-4.406 3.586-8 8-8h99.313l16-16h169.375l16 16H424c4.414 0 8 3.594 8 8v24zm16-112h-16v-64h24v56c0 4.41-3.586 8-8 8zm16-240c-8.824 0-16-7.176-16-16s7.176-16 16-16 16 7.176 16 16-7.176 16-16 16z"/><path d="M160 400.871h224c8.824 0 16-7.176 16-16v-176c0-8.824-7.176-16-16-16H48v208h112zm-96-16v-144h96v144H64zm112 0v-16h96v16h-96zm112 0v-144h96l.008 144H288zm96-176v16h-96v-16h96zm-112 0v144h-96v-144h96zm-112 0v16H64v-16h96z"/><path d="M80 288.871h46.848l-37.84 68.113 13.984 7.777L144 290.946v-18.074H80v15.999zM304 272.871v16h46.848l-37.84 68.113 13.984 7.777L368 290.946v-18.074h-64zM201.008 324.985l13.984 7.777L256 258.946v-18.074h-64v16h46.848l-37.84 68.113zM216 448.871h16v16h-16v-16zM160 448.871h16v16h-16v-16zM272 448.871h16v16h-16v-16z"/></symbol><symbol viewBox="0 0 512 364.953" id="menu_icon_1" xmlns="http://www.w3.org/2000/svg"><path fill="#49BFA5" d="M298.023 210.938c0 79.535-64.477 144.012-144.012 144.012S10 290.473 10 210.938 74.477 66.926 154.012 66.926s144.011 64.477 144.011 144.012z"/><g fill="#FFF"><path d="M413.629 297.457v57.496H154.012c47.066 0 88.863-22.582 115.141-57.496h144.476zM476.902 239.973v57.484h-207.75c12.574-16.711 21.602-36.246 25.949-57.484h181.801z"/><path d="M476.902 182.477v57.496h-181.8a145.032 145.032 0 002.926-29.031c0-9.75-.973-19.266-2.816-28.465h181.69zM502 124.985v57.492H295.211c-4.246-21.219-13.172-40.754-25.637-57.492H502zM436.57 67.496v57.488H269.574c-23.844-32-60.66-53.758-102.656-57.488H436.57zM190.922 10h285.98v57.492h-285.98V10z"/></g><path fill="#FFF" d="M154.011 140.328l20.386 35.305h40.769l-20.387 35.304 20.387 35.305h-40.769l-20.386 35.309-20.382-35.309H92.861l20.387-35.305-20.387-35.304h40.768l20.382-35.305z"/><path d="M502 114.985h-55.43V77.492h30.332c5.523 0 10-4.477 10-10V10c0-5.523-4.477-10-10-10h-285.98c-5.523 0-10 4.477-10 10v46.926h-26.91C69.09 56.926 0 126.016 0 210.938c0 9.027.793 18.09 2.355 26.941.957 5.438 6.148 9.066 11.586 8.105 5.438-.957 9.066-6.145 8.109-11.586a135.047 135.047 0 01-2.05-23.46c0-73.895 60.117-134.012 134.012-134.012 11.352 0 22.719 1.438 33.707 4.297 57.629 14.988 100.305 67.461 100.305 129.715 0 70.395-54.555 128.285-123.605 133.613-3.461.262-6.938.398-10.406.398-34.816 0-67.809-13.293-92.895-37.43-3.98-3.828-10.309-3.703-14.141.273-3.828 3.98-3.707 10.313.273 14.141a154.536 154.536 0 0030.801 23.016H38.785c-5.523 0-10 4.477-10 10s4.477 10 10 10h115.141c.027 0 .059.004.086.004l259.703-.004h69.543c5.523 0 10-4.477 10-10s-4.477-10-10-10h-59.629v-37.488h53.273c5.523 0 10-4.48 10-10v-104.98H502c5.523 0 10-4.477 10-10v-57.496c0-5.524-4.477-10-10-10zM200.922 20h265.98v37.492h-80.906c-5.523 0-10 4.477-10 10v.004c0 5.523 4.477 10 10 10h40.574v37.488H274.488a154.432 154.432 0 00-43.582-37.488h64.93c5.523 0 10-4.477 10-10 0-.344-.02-.688-.055-1.023-.508-5.043-4.77-8.98-9.945-8.98h-94.914V20zm202.707 324.949H229.965c16.832-9.57 31.902-22.387 44.074-37.492h129.59v37.492zm63.273-57.492H287.684a155.912 155.912 0 008.121-16.41 153.713 153.713 0 007.227-21.074h163.871v37.484zm0-57.484H306.859a156.16 156.16 0 00.066-37.496h159.977v37.496zM492 172.477H303.188a151.575 151.575 0 00-15.148-37.492H492v37.492z"/><path d="M331.68 71.418c2.066 5.039 8.039 7.492 13.059 5.41 5.031-2.09 7.496-8.023 5.41-13.063-2.082-5.031-8.031-7.492-13.059-5.41s-7.504 8.036-5.41 13.063zM31.051 288.535c5.039-2.063 7.492-8.043 5.41-13.059-2.09-5.031-8.012-7.492-13.051-5.41-5.043 2.082-7.5 8.027-5.41 13.063 2.082 5.02 8.02 7.504 13.051 5.406z"/></symbol><symbol viewBox="0 0 436.008 422.018" id="menu_icon_2" xmlns="http://www.w3.org/2000/svg"><path fill="#49BFA5" d="M327.692 129.732c44.155-.039 82.858 29.514 94.459 72.11 11.601 42.604-6.776 87.693-44.854 110.05-38.074 22.354-82.404 16.426-113.953-14.467a34.926 34.926 0 00-6.551 6.581c-7.391 9.708-10.828 24.101-10.828 45.229 0 39.103 21.826 60.976 60.929 60.976.28 0 .5.332.5.601 0 .271-.22.718-.5.718H129.096c-.281 0-.5-.439-.5-.718 0-.28.219-.71.5-.71 39.103 0 60.928-21.813 60.928-60.916 0-21.124-3.438-35.489-10.827-45.209a35.222 35.222 0 00-6.551-6.558c-32.844 32.079-79.585 36.982-117.961 11.786S.635 235.5 17.015 192.612c16.383-42.892 60.401-68.604 105.805-61.799-9.306-39.327 6.539-80.326 39.871-103.183 33.328-22.852 77.284-22.852 110.61 0 33.332 22.855 49.178 63.854 39.871 103.183a97.769 97.769 0 0114.52-1.081z"/><path stroke="#000" stroke-width="5" stroke-miterlimit="10" d="M104.296 333.331a104.992 104.992 0 0068.185-24.972c.121.148.238.301.355.453 6.274 8.252 9.196 21.076 9.196 40.37 0 17.854-4.982 23.874-14.034 35.106-9.387 11.657-22.84 17.818-38.903 17.818a8.707 8.707 0 000 17.409h177.798a8.65 8.65 0 000-17.298c-16.059 0-29.512-6.169-38.902-17.843-9.053-11.248-14.035-17.284-14.035-35.143 0-19.313 2.924-32.146 9.201-40.394.117-.156.234-.31.354-.461 35.755 30.155 83.065 33.254 122.187 7.616 39.123-25.634 56.762-73.92 43.379-118.738s-54.611-75.524-101.385-75.517c-1.588 0-3.18.034-4.775.108 5.26-40.718-13.506-80.799-48.149-102.828-34.644-22.025-78.903-22.025-113.545.003-34.643 22.029-53.41 62.11-48.15 102.828a104.497 104.497 0 00-4.775-.108C49.866 121.741 2.5 169.108 2.5 227.538c0 58.427 43.366 105.793 101.796 105.793zm4-195.608c4.463 0 8.923.331 13.34.991a7.987 7.987 0 008.954-9.747c-8.541-36.113 6.009-73.76 36.617-94.747 30.608-20.982 70.966-20.982 101.575 0 30.607 20.987 45.157 58.634 36.616 94.747a7.986 7.986 0 001.89 7.25 7.981 7.981 0 007.064 2.497c33.314-5.006 66.637 9.056 86.292 36.418 19.655 27.361 22.354 63.421 6.978 93.401-15.377 29.976-46.234 48.827-79.931 48.827-23.476.039-42.022-9.177-58.754-25.645a7.983 7.983 0 00-10.46-.625 42.862 42.862 0 00-8.041 8.077c-8.502 11.166-12.462 27.072-12.462 50.064 0 21.494 6.237 31.084 17.565 45.161a65.22 65.22 0 008.935 9.143h-93.071a65.013 65.013 0 009.04-9.221c11.33-14.064 17.569-23.644 17.569-45.134 0-22.965-3.96-38.868-12.465-50.054a43.401 43.401 0 00-8.034-8.05 7.988 7.988 0 00-10.46.625c-28.97 28.337-69.327 33.76-104.267 13.236-34.943-20.521-51.81-61.902-41.17-101.005 10.646-39.093 46.155-66.225 86.68-66.209z"/></symbol><symbol viewBox="0 0 383.721 439.5" id="menu_icon_3" xmlns="http://www.w3.org/2000/svg"><path fill="#49BFA5" d="M356.982 91.197L212.7 13.374a40.056 40.056 0 00-20.839-5.845 40.036 40.036 0 00-20.839 5.845L26.74 91.197A40.08 40.08 0 007.5 125.431v178.954a40.078 40.078 0 0019.294 34.268l144.282 87.512a40.057 40.057 0 0041.57 0l144.281-87.512c11.98-7.266 19.295-20.258 19.295-24.268V135.431c-.002-23.987-7.293-36.962-19.24-44.234z"/><path fill="#49BFA5" d="M356.927 338.651a40.077 40.077 0 0019.295-34.268V125.431a40.046 40.046 0 00-5.109-19.572l-179.25 98.87v227.246a40.07 40.07 0 0020.786-5.811l144.278-87.513zM26.794 338.651A40.078 40.078 0 017.5 304.383V125.431a40.057 40.057 0 015.109-19.572l179.251 98.87v227.246c-7.2 0-14.398-1.938-20.785-5.811L26.794 338.651z"/><ellipse transform="rotate(156.93 95.815 269.965)" fill="#FFF" cx="95.817" cy="269.969" rx="14.963" ry="26.447"/><ellipse fill="#FFF" cx="192.052" cy="101.4" rx="26.4" ry="16.653"/><ellipse fill="#FFF" cx="274.062" cy="101.4" rx="26.4" ry="16.653"/><ellipse fill="#FFF" cx="110.044" cy="101.4" rx="26.4" ry="16.653"/><path d="M383.72 125.43c0-16.493-8.75-32.064-22.838-40.642L216.599 6.967c-15.26-9.288-34.217-9.289-49.476 0L22.842 84.79C8.753 93.365.001 108.939.001 125.431v178.952c0 16.523 8.776 32.111 22.904 40.682l144.283 87.512c7.608 4.617 16.142 6.926 24.674 6.926 8.5 0 16.999-2.295 24.586-6.875l164.139-106.631-8.084-11.408-156.055 100.497-7.691 4.666a32.68 32.68 0 01-9.396 3.842V208.953l168.209-92.026a32.284 32.284 0 011.152 8.504v194.472a7.499 7.499 0 1014.998 0M30.683 332.24C21.01 326.371 15 315.699 15 304.385V125.431c0-2.9.401-5.757 1.153-8.504l19.554 11.86a7.495 7.495 0 0010.301-2.523 7.498 7.498 0 00-2.522-10.301l-20.162-12.229a32.35 32.35 0 017.315-6.131l144.282-77.824c10.449-6.358 23.43-6.358 33.879 0l144.283 77.824a32.308 32.308 0 017.316 6.131L191.86 195.958 70.666 132.447c-3.542-2.146-8.155-1.018-10.301 2.523a7.499 7.499 0 002.521 10.301l121.475 63.681v214.64a32.56 32.56 0 01-9.396-3.842L30.683 332.24z"/><path d="M99.447 240.598c-6.465-3.732-13.309-4.063-18.772-.908-6.167 3.561-9.705 11.006-9.705 20.428 0 15.309 9.215 32.617 20.978 39.408 3.522 2.033 7.159 3.059 10.623 3.059 2.892 0 5.664-.715 8.148-2.148 6.167-3.563 9.705-11.006 9.705-20.426 0-15.31-9.213-32.622-20.977-39.413zm3.772 46.848c-.668.385-2.148.027-3.772-.908-7.181-4.146-13.478-16.49-13.478-26.42 0-4.877 1.442-6.998 2.205-7.439.179-.102.416-.152.698-.152.772 0 1.886.375 3.075 1.063 7.18 4.146 13.477 16.492 13.477 26.422.001 4.871-1.441 6.992-2.205 7.434zM192.052 125.552c19.009 0 33.902-10.609 33.902-24.152s-14.893-24.151-33.902-24.151c-19.01 0-33.899 10.608-33.899 24.151-.001 13.542 14.89 24.152 33.899 24.152zm0-33.306c11.539 0 18.902 5.421 18.902 9.152 0 3.732-7.363 9.153-18.902 9.153-11.539 0-18.9-5.422-18.9-9.153 0-3.73 7.361-9.152 18.9-9.152zM274.062 125.552c19.01 0 33.898-10.609 33.898-24.152s-14.891-24.151-33.898-24.151-33.9 10.608-33.9 24.151 14.892 24.152 33.9 24.152zm0-33.306c11.537 0 18.9 5.421 18.9 9.152 0 3.732-7.363 9.153-18.9 9.153s-18.9-5.422-18.9-9.153c-.001-3.73 7.363-9.152 18.9-9.152zM110.044 125.552c19.01 0 33.9-10.609 33.9-24.152s-14.892-24.151-33.9-24.151-33.9 10.608-33.9 24.151c-.003 13.542 14.889 24.152 33.9 24.152zm0-33.306c11.538 0 18.901 5.421 18.901 9.152 0 3.732-7.364 9.153-18.901 9.153-11.538 0-18.901-5.422-18.901-9.153-.001-3.73 7.362-9.152 18.901-9.152z"/><ellipse fill="#FFF" cx="318.216" cy="289.234" rx="18.33" ry="24.046"/><ellipse fill="#FFF" cx="253.073" cy="244.094" rx="18.328" ry="24.047"/><path d="M318.216 257.688c-13.262 0-24.049 14.15-24.049 31.545 0 17.396 10.787 31.549 24.049 31.549 13.26 0 24.047-14.152 24.047-31.549-.002-17.395-10.789-31.545-24.047-31.545zm0 48.093c-6.957 0-12.613-7.424-12.613-16.549 0-9.123 5.656-16.547 12.613-16.547 6.955 0 12.613 7.424 12.613 16.547 0 9.128-5.658 16.549-12.613 16.549zM253.075 212.547c-13.26 0-24.047 14.151-24.047 31.545s10.787 31.547 24.047 31.547c13.258 0 24.045-14.152 24.045-31.547s-10.787-31.545-24.045-31.545zm0 48.094c-6.957 0-12.613-7.424-12.613-16.547 0-9.125 5.658-16.547 12.613-16.547 6.953 0 12.611 7.422 12.611 16.547.001 9.123-5.657 16.547-12.611 16.547z"/></symbol><symbol viewBox="0 0 720 726.391" id="menu_icon_4" xmlns="http://www.w3.org/2000/svg"><path fill="#49BFA5" d="M68.571 332.104h582.857v377.144H68.571V332.104z"/><path fill="#49BFA5" d="M17.143 177.818h685.714v205.715H17.143V177.818z"/><path fill="#FFF" d="M308.571 332.104h102.857v377.144H308.571V332.104z"/><path fill="#FFF" d="M291.429 177.818h137.143v205.715H291.429V177.818z"/><path d="M-.001 160.677v240h51.43V726.39h617.143V400.677h51.43v-240h-91.973a97.041 97.041 0 0023.4-63.223C651.418 43.621 607.768-.013 553.933.001A97.484 97.484 0 00485.04 28.54L360 153.58 234.96 28.54c-38.072-38.061-99.789-38.052-137.851.02A97.478 97.478 0 0068.57 97.488a96.992 96.992 0 0023.383 63.188H-.001v.001zM34.285 366.39V194.962h230V366.39h-230zm387.144 0H298.571V194.962h122.857V366.39zM85.713 692.104V400.677h195.716v291.429l-195.716-.002zm230.001 0V400.677h88.57v291.429l-88.57-.002zm318.572 0H438.571V400.677h195.715v291.427zm51.428-325.714h-230V194.962h230V366.39zM509.279 52.778c24.683-24.673 64.688-24.666 89.362.014a63.191 63.191 0 0118.501 44.695c-.028 34.887-28.303 63.16-63.188 63.188H401.383L509.279 52.778zM102.856 97.453c-.234-25.625 15.238-48.779 39-58.371a65.42 65.42 0 0124.789-4.902 61.22 61.22 0 0144.074 18.6l107.896 107.897h-152.57c-34.892-.047-63.16-28.332-63.189-63.224z"/><path fill="#FFF" d="M367.271 160.85L234.96 28.54A97.472 97.472 0 00166.033.001c-53.836.007-97.469 43.653-97.462 97.486.025 24.195 8.859 46.324 23.463 63.362l275.237.001zM141.856 39.082a65.42 65.42 0 0124.789-4.902 61.22 61.22 0 0144.074 18.6l107.896 107.897h-152.57c-34.892-.047-63.16-28.331-63.188-63.223-.235-25.626 15.238-48.78 38.999-58.372z"/><path fill="#FFF" d="M627.956 160.85c14.612-17.046 23.45-39.188 23.473-63.396a97.48 97.48 0 00-28.539-68.895c-38.063-38.07-99.778-38.079-137.85-.019L352.729 160.85h275.227zM509.279 52.778a63.184 63.184 0 0144.696-18.501c34.896.014 63.178 28.313 63.167 63.21-.028 34.887-28.303 63.16-63.188 63.188H401.383L509.279 52.778z"/></symbol><symbol viewBox="0 0 12.415 12.414" id="minus_icon" xmlns="http://www.w3.org/2000/svg"><path fill="#223147" d="M12.415 5.044H0v2.329h12.415z"/></symbol><symbol viewBox="0 0 12.415 12.414" id="plus_icon" xmlns="http://www.w3.org/2000/svg"><path fill-rule="evenodd" clip-rule="evenodd" fill="#223147" d="M12.415 5.044H7.371V0H5.043v5.044H0v2.329h5.043v5.041h2.328V7.373h5.044z"/></symbol><symbol viewBox="0 0 49.613 51.491" id="ribbon_icon" xmlns="http://www.w3.org/2000/svg"><path fill="url(#a)" d="M3.475 25.754H.092v23.855c0 1.275 1.412 1.786 3.382 1.882V25.754z"/><path fill="url(#b)" d="M49.573 3.335c.145-1.814-.066-3.339-1.204-3.326-2.809.034-22.74 0-22.74 0v3.326h23.944z"/><path fill="url(#c)" d="M.092 25.58c-.035 1.957-.188 21.894 0 24.04C3.169 42.874 41.621 2.644 48.375.01c-3.198-.034-18.896.034-22.715 0C21.839-.024.281 19.315.092 25.58z"/><path fill="#BE1E2D" d="M.092 49.619c1.354-2.569 3.266-4.788 5.055-7.054a249.877 249.877 0 015.675-6.582 485.47 485.47 0 0111.8-12.755c4.039-4.152 8.142-8.247 12.34-12.238a209.49 209.49 0 016.413-5.87 84.23 84.23 0 013.358-2.754C45.886 1.495 47.044.591 48.376.01c-1.316.61-2.451 1.539-3.582 2.432a82.585 82.585 0 00-3.291 2.829 214.79 214.79 0 00-6.355 5.912c-4.166 4.02-8.23 8.146-12.237 12.324a474.105 474.105 0 00-11.89 12.656 260.813 260.813 0 00-5.723 6.528c-1.841 2.223-3.797 4.397-5.206 6.928z"/><path fill="#FF757A" d="M.708 47.855c.592-1.229 1.422-2.318 2.225-3.414a106.381 106.381 0 012.523-3.207 233.229 233.229 0 015.324-6.181 458.958 458.958 0 0111.081-11.976c3.792-3.895 7.64-7.74 11.582-11.485 1.975-1.871 3.969-3.721 6.021-5.51a77.672 77.672 0 013.15-2.588c1.086-.813 2.166-1.671 3.419-2.211-1.24.564-2.298 1.444-3.361 2.281a79.586 79.586 0 00-3.09 2.655 204.302 204.302 0 00-5.969 5.55c-3.911 3.77-7.727 7.646-11.487 11.565a453.66 453.66 0 00-11.161 11.885 235.235 235.235 0 00-5.371 6.132 102.4 102.4 0 00-2.591 3.144c-.825 1.079-1.677 2.15-2.295 3.36z"/><path fill="#FF9292" d="M25.907.503c-.777.067-1.457.478-2.122.847-.661.39-1.3.816-1.923 1.265a59.737 59.737 0 00-3.652 2.812 112.988 112.988 0 00-6.863 6.152A92.044 92.044 0 005 18.263c-.994 1.169-1.949 2.377-2.806 3.65-.429.634-.834 1.29-1.176 1.975-.333.684-.633 1.409-.681 2.181.019-.771.291-1.518.601-2.219.316-.705.696-1.38 1.105-2.037.827-1.302 1.764-2.534 2.738-3.732 1.959-2.387 4.1-4.614 6.305-6.766 2.229-2.128 4.53-4.19 6.943-6.106a60.338 60.338 0 013.729-2.743 26.463 26.463 0 011.98-1.195c.682-.344 1.388-.734 2.169-.768z"/><path opacity=".55" fill="#FF9292" d="M25.661.01C23.322-.011 14.346 7.223 7.684 14.275l20.356 3.702C37.099 8.867 45.539 1.117 48.375.01c-3.198-.034-18.896.033-22.714 0z"/></symbol><symbol viewBox="0 0 436.008 422.018" id="tab_icon_1" xmlns="http://www.w3.org/2000/svg"><path fill="#49BFA5" d="M327.692 129.732c44.155-.039 82.858 29.514 94.459 72.11 11.601 42.604-6.776 87.693-44.854 110.05-38.074 22.354-82.404 16.426-113.953-14.467a34.926 34.926 0 00-6.551 6.581c-7.391 9.708-10.828 24.101-10.828 45.229 0 39.103 21.826 60.976 60.929 60.976.28 0 .5.332.5.601 0 .271-.22.718-.5.718H129.096c-.281 0-.5-.439-.5-.718 0-.28.219-.71.5-.71 39.103 0 60.928-21.813 60.928-60.916 0-21.124-3.438-35.489-10.827-45.209a35.222 35.222 0 00-6.551-6.558c-32.844 32.079-79.585 36.982-117.961 11.786S.635 235.5 17.015 192.612c16.383-42.892 60.401-68.604 105.805-61.799-9.306-39.327 6.539-80.326 39.871-103.183 33.328-22.852 77.284-22.852 110.61 0 33.332 22.855 49.178 63.854 39.871 103.183a97.769 97.769 0 0114.52-1.081z"/><path stroke="#000" stroke-width="5" stroke-miterlimit="10" d="M104.296 333.331a104.992 104.992 0 0068.185-24.972c.121.148.238.301.355.453 6.274 8.252 9.196 21.076 9.196 40.37 0 17.854-4.982 23.874-14.034 35.106-9.387 11.657-22.84 17.818-38.903 17.818a8.707 8.707 0 000 17.409h177.798a8.65 8.65 0 000-17.298c-16.059 0-29.512-6.169-38.902-17.843-9.053-11.248-14.035-17.284-14.035-35.143 0-19.313 2.924-32.146 9.201-40.394.117-.156.234-.31.354-.461 35.755 30.155 83.065 33.254 122.187 7.616 39.123-25.634 56.762-73.92 43.379-118.738s-54.611-75.524-101.385-75.517c-1.588 0-3.18.034-4.775.108 5.26-40.718-13.506-80.799-48.149-102.828-34.644-22.025-78.903-22.025-113.545.003-34.643 22.029-53.41 62.11-48.15 102.828a104.497 104.497 0 00-4.775-.108C49.866 121.741 2.5 169.108 2.5 227.538c0 58.427 43.366 105.793 101.796 105.793zm4-195.608c4.463 0 8.923.331 13.34.991a7.987 7.987 0 008.954-9.747c-8.541-36.113 6.009-73.76 36.617-94.747 30.608-20.982 70.966-20.982 101.575 0 30.607 20.987 45.157 58.634 36.616 94.747a7.986 7.986 0 001.89 7.25 7.981 7.981 0 007.064 2.497c33.314-5.006 66.637 9.056 86.292 36.418 19.655 27.361 22.354 63.421 6.978 93.401-15.377 29.976-46.234 48.827-79.931 48.827-23.476.039-42.022-9.177-58.754-25.645a7.983 7.983 0 00-10.46-.625 42.862 42.862 0 00-8.041 8.077c-8.502 11.166-12.462 27.072-12.462 50.064 0 21.494 6.237 31.084 17.565 45.161a65.22 65.22 0 008.935 9.143h-93.071a65.013 65.013 0 009.04-9.221c11.33-14.064 17.569-23.644 17.569-45.134 0-22.965-3.96-38.868-12.465-50.054a43.401 43.401 0 00-8.034-8.05 7.988 7.988 0 00-10.46.625c-28.97 28.337-69.327 33.76-104.267 13.236-34.943-20.521-51.81-61.902-41.17-101.005 10.646-39.093 46.155-66.225 86.68-66.209z"/></symbol><symbol viewBox="0 0 720 726.391" id="tab_icon_2" xmlns="http://www.w3.org/2000/svg"><path fill="#49BFA5" d="M68.571 332.104h582.857v377.144H68.571V332.104z"/><path fill="#49BFA5" d="M17.143 177.818h685.714v205.715H17.143V177.818z"/><path fill="#FFF" d="M308.571 332.104h102.857v377.144H308.571V332.104z"/><path fill="#FFF" d="M291.429 177.818h137.143v205.715H291.429V177.818z"/><path d="M-.001 160.677v240h51.43V726.39h617.143V400.677h51.43v-240h-91.973a97.041 97.041 0 0023.4-63.223C651.418 43.621 607.768-.013 553.933.001A97.484 97.484 0 00485.04 28.54L360 153.58 234.96 28.54c-38.072-38.061-99.789-38.052-137.851.02A97.478 97.478 0 0068.57 97.488a96.992 96.992 0 0023.383 63.188H-.001v.001zM34.285 366.39V194.962h230V366.39h-230zm387.144 0H298.571V194.962h122.857V366.39zM85.713 692.104V400.677h195.716v291.429l-195.716-.002zm230.001 0V400.677h88.57v291.429l-88.57-.002zm318.572 0H438.571V400.677h195.715v291.427zm51.428-325.714h-230V194.962h230V366.39zM509.279 52.778c24.683-24.673 64.688-24.666 89.362.014a63.191 63.191 0 0118.501 44.695c-.028 34.887-28.303 63.16-63.188 63.188H401.383L509.279 52.778zM102.856 97.453c-.234-25.625 15.238-48.779 39-58.371a65.42 65.42 0 0124.789-4.902 61.22 61.22 0 0144.074 18.6l107.896 107.897h-152.57c-34.892-.047-63.16-28.332-63.189-63.224z"/></symbol><symbol viewBox="0 0 384 496" id="tab_icon_3" xmlns="http://www.w3.org/2000/svg"><path fill="#E6E9ED" d="M258.398 85.039C322.719 111.199 368 174.321 368 248c0 97.199-78.801 176-176 176S16 345.199 16 248c0-73.68 45.281-136.801 109.602-162.961L112 8h160l-13.602 77.039z"/><path fill="#49BFA5" d="M376 456v32H8v-32c0-17.68 14.32-32 32-32h304c17.68 0 32 14.321 32 32zM336 248h-96c0-13.281-5.359-25.199-14.078-33.922l67.918-67.918C319.84 172.239 336 208.239 336 248z"/><path fill="#FCD770" d="M240 248h96c0 39.762-16.16 75.762-42.16 101.84l-67.918-67.918C234.641 273.199 240 261.281 240 248z"/><path fill="#FFEAA7" d="M293.84 146.16l-67.918 67.918C220.879 209.121 192 199.55 192 199.55V104c39.762 0 75.762 16.16 101.84 42.16z"/><path fill="#49BFA5" d="M225.922 281.922l67.918 67.918C267.762 375.84 231.762 392 192 392v-94.783l16-4.018c6.801-2.398 12.879-6.32 17.922-11.277z"/><path fill="#DC4A4A" d="M225.68 46.321A21.58 21.58 0 01232 61.602c0 6.559-2.961 12.797-8.078 16.879L192 104l-31.922-25.52C154.961 74.399 152 68.16 152 61.602 152 49.68 161.68 40 173.602 40h1.438c5.762 0 11.199 2.238 15.281 6.32L192 48l1.68-1.68c4.082-4.082 9.52-6.32 15.281-6.32h1.438a21.583 21.583 0 0115.281 6.321z"/><path fill="#FFEAA7" d="M192 298.92V392c-39.762 0-75.762-16.16-101.84-42.16l67.918-67.918c5.043 4.957 11.121 8.879 17.922 11.277l16 5.721z"/><path fill="#49BFA5" d="M192 104v90.07s-28.879 15.051-33.922 20.008L90.16 146.16C116.238 120.16 152.238 104 192 104zM158.078 281.922L90.16 349.84C64.16 323.762 48 287.762 48 248h96c0 13.281 5.359 25.199 14.078 33.922z"/><path fill="#FCD770" d="M90.16 146.16l67.918 67.918C149.359 222.801 144 234.719 144 248H48c0-39.761 16.16-75.761 42.16-101.84z"/><path d="M344 416h-77.098C331.121 387.258 376 322.793 376 248c0-72.969-42.406-138.152-108.609-167.848L281.535 0h-179.07l14.145 80.152C50.406 109.848 8 175.031 8 248c0 74.793 44.879 139.258 109.098 168H40c-22.055 0-40 17.945-40 40v40h384v-40c0-22.054-17.945-40-40-40zM24 248c0-68.602 41.063-129.664 104.609-155.594l5.984-2.438L121.535 16h140.93l-13.059 73.977 5.984 2.438C318.938 118.336 360 179.399 360 248c0 92.641-75.359 168-168 168S24 340.641 24 248zm344 232H16v-24c0-13.23 10.77-24 24-24h304c13.23 0 24 10.77 24 24v24z"/><path d="M212.816 97.602l16.078-12.867C235.953 79.078 240 70.656 240 61.617 240 45.289 226.711 32 210.383 32h-1.43c-6.152 0-12.016 1.863-16.953 5.328C187.063 33.864 181.199 32 175.047 32h-1.43C157.289 32 144 45.289 144 61.617c0 9.039 4.047 17.473 11.113 23.117l16.07 12.867C97.215 107.793 40 171.266 40 248c0 83.816 68.184 152 152 152s152-68.184 152-152c0-76.734-57.207-140.199-131.184-150.398zm12.664 105.605C214.384 192.94 200 192.303 200 192.303v-79.897c31.465 1.84 60.039 14.379 82.199 34.09l-56.719 56.711zM184 192.091s-14.841.849-25.48 11.116l-56.719-56.719c22.16-19.711 50.727-32.242 82.199-34.09v79.693zm-36.754 22.468c-5.535 7.395-9.254 16.09-10.613 25.441H56.406c1.84-31.465 14.379-60.039 34.09-82.199l56.75 56.758zM136.633 256c1.359 9.352 5.086 18.047 10.613 25.441l-56.758 56.758c-19.711-22.16-32.242-50.727-34.09-82.199h80.235zm21.887 36.793c10.53 8.764 25.48 11.904 25.48 11.904v78.896c-31.465-1.84-60.039-14.379-82.199-34.09l56.719-56.71zM200 304.771s16.091-2.338 25.48-11.978l56.719 56.719c-22.16 19.711-50.727 32.242-82.199 34.09v-78.831zm36.754-23.329c5.535-7.395 9.254-16.09 10.613-25.441h80.227c-1.84 31.465-14.379 60.039-34.09 82.199l-56.75-56.758zM247.367 240c-1.359-9.352-5.086-18.047-10.613-25.441l56.758-56.758c19.711 22.16 32.242 50.727 34.09 82.199h-80.235zM160 61.617C160 54.106 166.105 48 173.617 48h1.43c3.641 0 7.059 1.414 9.633 3.992l7.32 7.32 7.328-7.328A13.52 13.52 0 01208.953 48h1.43C217.895 48 224 54.106 224 61.617c0 4.16-1.863 8.031-5.105 10.629L192 93.754l-26.887-21.516A13.518 13.518 0 01160 61.617zM336 448h16v16h-16v-16zM304 448h16v16h-16v-16zM272 448h16v16h-16v-16z"/><circle fill="#FCD770" cx="192" cy="248.638" r="42.959"/></symbol><symbol viewBox="0 0 960 960" id="tab_icon_4" xmlns="http://www.w3.org/2000/svg"><circle fill="#49BFA5" cx="481" cy="480" r="461.25"/><circle fill="#FFF" cx="481" cy="480" r="294.375"/><circle fill="#DC4A4A" cx="481" cy="480" r="276.925"/><g fill="#FFF"><path d="M277.36 267.437c52.792-50.588 124.384-81.705 203.25-81.808l.013-.004V26.25l-31.882-6.36C332.567 27.919 228.25 78.958 151.568 157.205l9.452 2.86L270.963 270.01l6.397-2.573zM689.131 688.177c-28.182 28.176-62.052 50.659-99.737 65.594l-.006.003-.007.002c-33.542 13.29-70.108 20.6-108.381 20.6-.118 0-.236-.004-.354-.004l-.023.004v160.739l14.146 5.914c120.166-3.522 228.783-53.012 308.915-131.487v-6.809L689.131 688.177zM690.647 280.195c50.588 52.79 81.705 124.384 81.809 203.248l.005.013h159.375l6.36-31.883c-8.029-116.171-59.068-220.489-137.315-297.17l-2.861 9.452-109.945 109.944 2.572 6.396zM269.907 691.965c-28.175-28.183-50.659-62.053-65.593-99.737l-.004-.006-.002-.007c-13.29-33.544-20.599-70.108-20.599-108.381l.003-.354-.003-.024H22.969l-5.914 14.147c3.523 120.166 53.012 228.783 131.488 308.915h6.808l114.556-114.553z"/></g><path d="M820.411 140.589C729.751 49.927 609.213 0 481 0S232.25 49.927 141.589 140.589C50.928 231.249 1 351.786 1 480c0 128.212 49.928 248.75 140.589 339.409C232.25 910.073 352.787 960 481 960s248.751-49.929 339.411-140.591C911.072 728.75 961 608.212 961 480c0-128.214-49.928-248.751-140.589-339.411zM806.688 779.22l-91.555-91.554c45.085-50.772 73.938-116.247 78.37-188.232h129.545c-4.674 107.633-47.97 205.408-116.36 279.786zM38.95 499.432h129.545c4.427 71.943 33.251 137.386 78.291 188.146l-91.556 91.557C86.888 704.767 43.625 607.026 38.95 499.432zm649.629-253.644c-51.011-45.262-116.846-74.15-189.208-78.358V37.91c108.012 4.435 206.151 47.755 280.765 116.32l-91.557 91.558zm-226.708-78.311c-72.104 4.367-137.692 33.242-188.537 78.388l-91.555-91.554c74.45-68.453 172.338-111.766 280.092-116.372v129.538zM481 204.375c151.979 0 275.625 123.645 275.625 275.625 0 75.396-30.44 143.809-79.663 193.62-.43.358-.852.731-1.254 1.136-.401.4-.771.818-1.127 1.247C624.771 725.2 556.375 755.625 481 755.625c-151.979 0-275.625-123.646-275.625-275.625 0-151.98 123.646-275.625 275.625-275.625zM273.297 714.103c50.851 45.165 116.452 74.052 188.574 78.42v129.536C354.1 917.45 256.197 874.125 181.744 805.654l91.553-91.551zm226.074 78.469c72.379-4.209 138.229-33.109 189.244-78.392l91.554 91.555c-74.615 68.585-172.771 111.918-280.8 116.354V792.572h.002zm395.278-330.64c-3.229-60.752-18.896-121.162-45.59-175.44-4.57-9.297-15.812-13.121-25.099-8.553-9.293 4.569-13.121 15.81-8.552 25.099 24.18 49.173 38.475 103.846 41.664 158.896H793.59c-4.146-72.54-33.1-138.536-78.487-189.635l91.553-91.553c68.695 74.695 112.076 172.997 116.444 281.188l-28.451-.002zM155.264 180.83l91.555 91.555c-45.343 51.086-74.265 117.051-78.411 189.547H38.899c4.367-108.149 47.715-206.416 116.365-281.102z"/><path d="M789.319 224.64c-8.482 5.938-10.547 17.629-4.608 26.113l.019.027c3.646 5.207 9.453 7.989 15.358 7.989 3.714 0 7.47-1.103 10.745-3.396 8.482-5.938 10.537-17.646 4.6-26.128-5.939-8.479-17.629-10.545-26.114-4.605z"/><path fill="#FFF" d="M477.368 527.153c0 42.236 34.361 76.599 76.6 76.599 42.236 0 76.599-34.361 76.599-76.599v-94.306c0-42.236-34.361-76.597-76.599-76.597-42.236 0-76.6 34.359-76.6 76.597v94.306zm37.5-94.306c0-21.56 17.539-39.097 39.1-39.097 21.562 0 39.099 17.537 39.099 39.097v94.306c0 21.56-17.539 39.098-39.099 39.098-21.559 0-39.1-17.538-39.1-39.098v-94.306zM331.435 375v110.644a18.751 18.751 0 0032.01 13.258c7.451-7.451 17.355-11.554 27.893-11.554s20.442 4.103 27.895 11.556c7.451 7.451 11.555 17.355 11.555 27.894s-4.104 20.442-11.557 27.893c-15.381 15.383-40.407 15.381-55.784 0-7.322-7.322-19.194-7.322-26.52 0-7.321 7.321-7.321 19.194 0 26.518 15 15 34.706 22.5 54.411 22.5 19.704 0 39.41-7.5 54.41-22.5 14.533-14.531 22.538-33.855 22.538-54.409 0-20.555-8.005-39.878-22.538-54.409-14.533-14.533-33.856-22.539-54.41-22.539a77.23 77.23 0 00-22.401 3.295V393.75h80.601c10.354 0 18.75-8.396 18.75-18.75 0-10.356-8.396-18.75-18.75-18.75h-99.351c-10.358 0-18.752 8.394-18.752 18.75z"/></symbol></svg>